<svg width="500" height="709" viewBox="0 0 500 709" fill="none" xmlns="http://www.w3.org/2000/svg">
<g clip-path="url(#clip0_2506_279)">
<path d="M500 190.083V276.039C499.86 276.359 499.719 276.68 499.578 277H0V137C1.10154 140.351 2.39231 143.598 3.86231 146.705C5.49154 150.15 7.35923 153.478 8.32692 157.316C9.29538 161.153 9.19846 165.734 7.15923 168.795C10.2631 175.059 13.3662 181.322 16.47 187.586C17.5746 189.815 18.7023 192.12 19.0585 194.725C19.4846 197.84 18.7592 201.075 19.1846 204.191C19.61 207.307 22.1431 210.408 24.31 208.924C23.5869 218.753 28.7154 228.786 38.43 231.007C37.7085 234.428 37.8769 238.327 39.4808 241.207C41.0846 244.088 44.3246 245.535 46.75 243.863C48.4454 242.693 49.4246 240.373 50.6738 238.488C51.9231 236.604 53.9346 235.011 55.6923 236.015C57.9715 237.316 57.9308 241.708 59.7915 243.846C61.5723 245.892 64.3085 245.163 66.6546 244.612C75.8508 242.458 85.6846 245.256 98.3362 252.228C99.68 249.86 102.652 251.285 104.253 253.371C105.854 255.457 107.433 258.242 109.708 258.194C110.708 258.173 111.638 257.573 112.598 257.215C116.482 255.764 121.038 258.892 126.754 264.15C129.394 260.031 132.143 255.796 135.845 253.392C139.545 250.987 144.486 250.899 147.451 254.634C153.916 253.122 160.382 251.61 169.562 250.008C170.392 248.412 171.222 246.816 172.051 245.22C174.418 240.667 176.785 236.113 179.152 231.559C180.002 229.923 180.89 228.239 182.182 227.188C185.254 224.685 189.992 226.212 192.242 222.533C194.158 219.402 192.854 214.662 194.005 210.961C195.212 207.083 198.68 205.412 201.774 204.17C208.592 201.429 215.776 198.661 225.897 201.359C230.027 203.177 233.93 205.847 237.414 209.236C237.262 211.081 237.108 212.926 236.956 214.771C240.225 212.532 244.077 211.906 248.116 213.005C251.42 213.904 254.848 215.955 258.184 219.222C261.917 222.978 264.601 228.433 265.647 234.387C268.457 234.758 271.267 235.129 274.077 235.5C273.032 237.951 271.988 240.403 270.945 242.855C274.663 240.034 280.225 243.772 280.56 249.32C280.695 251.563 280.124 253.893 280.665 256.032C281.206 258.172 283.812 259.469 286.793 257.645C292.902 258.446 299.222 256.182 304.134 251.431C303.085 253.549 304.778 256.433 306.692 256.906C308.606 257.379 310.525 256.37 312.418 255.775C317.295 254.242 322.668 255.559 328.683 256.672C332.096 255.67 335.595 254.622 338.507 252.116C341.418 249.611 343.659 245.29 343.269 240.805C343.097 238.82 342.432 236.94 342.314 234.948C342.088 231.128 343.956 227.505 346.381 225.29C348.805 223.075 351.731 222.005 354.592 220.972C350.148 212.976 353.135 200.002 361.77 193.188C361.601 188.859 361.432 184.529 361.263 180.199C361.21 178.832 361.156 177.467 361.103 176.1C364.315 173.669 368.04 172.381 371.764 172.416C373.244 166.947 379.048 165.608 383.263 167.614C387.192 169.483 390.368 173.268 394.015 175.922C394.28 176.116 394.548 176.303 394.819 176.484C405.975 183.9 420.455 178.292 433.342 189.649C439.334 181.133 447.575 175.296 456.363 173.347C456.741 179.532 462.283 184.213 465.429 183.236C464.898 189.47 464.368 195.705 463.838 201.939C463.695 203.619 463.695 205.692 464.828 206.544C466.651 207.915 468.987 204.429 470.886 205.617C472.972 206.92 471.427 211.012 471.805 213.961C472.255 217.47 476.035 218.957 478.383 217.09C480.732 215.223 481.617 211.247 481.307 207.712C481.078 205.108 480.321 202.619 480.084 200.017C479.847 197.415 480.267 194.459 481.892 192.886C482.973 191.839 484.383 191.592 485.725 191.38C490.552 190.615 495.379 189.85 500 190.083Z" fill="#331600"/>
<path d="M453.073 179.841C451.657 176.908 450.22 173.939 448.27 171.56C446.321 169.181 443.769 167.419 441.076 167.442C439.877 167.452 438.61 167.796 437.525 167.142C436.442 166.49 435.8 164.819 436.056 163.323C436.158 162.729 436.471 162.097 436.945 162.069C437.421 162.041 437.764 162.611 438.076 163.073C438.95 164.363 440.242 165.172 441.712 165.379C439.678 163.359 437.902 160.6 437.578 157.33C437.507 156.61 437.514 155.847 437.768 155.198C437.852 154.984 437.984 154.768 438.169 154.731C438.465 154.67 438.681 155.076 438.803 155.427C439.262 156.747 439.569 158.146 440.006 159.479C440.443 160.812 441.032 162.108 441.994 163.34C442 161.535 442.68 159.825 442.738 158.021C442.789 156.409 442.342 154.842 441.837 153.365C441.544 152.508 441.223 151.565 441.435 150.67C441.466 150.54 441.513 150.406 441.603 150.333C441.779 150.189 442.01 150.35 442.169 150.525C443.415 151.89 443.766 154.176 443.748 156.276C443.73 158.375 443.425 160.488 443.619 162.293C444.293 163.546 444.98 164.818 445.905 165.773C446.717 166.612 447.699 167.181 448.727 167.407C448.232 167.261 447.847 166.767 447.529 166.259C446.408 164.47 445.75 162.215 445.681 159.924C445.673 159.654 445.675 159.37 445.775 159.131C445.873 158.892 446.1 158.719 446.299 158.811C446.427 158.87 446.513 159.02 446.59 159.165C447.945 161.722 448.574 164.905 450.334 167.053C449.856 164.148 450.846 161.213 451.814 158.514C451.178 158.278 450.735 157.56 450.336 156.883C448.972 154.567 447.535 151.924 447.816 149.044C447.85 148.696 448.016 148.256 448.283 148.335C448.383 148.364 448.46 148.466 448.523 148.571C448.883 149.174 448.947 149.971 449.092 150.707C449.378 152.165 450.035 153.5 450.807 154.726C451.478 152.966 451.851 151.021 451.893 149.063C451.896 148.926 451.905 148.767 451.992 148.687C452.157 148.535 452.353 148.816 452.429 149.057C453.082 151.146 452.963 153.481 452.841 155.985C452.685 156.258 452.529 156.532 452.373 156.804C452.679 157.095 452.969 157.412 453.2 158.137C453.249 157.185 453.751 156.372 454.303 155.731C454.855 155.089 455.485 154.54 455.926 153.772C456.542 152.701 456.727 151.319 456.745 149.988C456.764 148.659 456.635 147.327 456.706 146C457.129 146.319 457.472 146.811 457.687 147.395C458.075 149.473 458.44 151.783 457.625 153.647C457.191 154.637 456.477 155.362 455.873 156.191C455.268 157.019 454.739 158.076 454.655 159.382C454.716 159.753 454.776 160.122 454.836 160.493C454.631 159.223 455.584 158.169 456.457 157.51C457.33 156.852 458.352 156.039 458.403 154.743C459.013 155.499 459.007 156.797 458.647 157.782C458.286 158.766 457.648 159.527 457.07 160.324C456.213 161.505 455.462 162.813 454.837 164.212C454.228 165.577 453.733 167.05 453.575 168.609C453.418 170.168 453.621 171.822 454.307 173.157C455.458 170.407 456.876 167.84 458.517 165.534C458.688 165.293 458.869 165.038 458.919 164.719C458.954 164.497 458.921 164.27 458.887 164.048C458.726 163.02 458.522 161.988 458.559 160.94C458.595 159.892 458.916 158.8 459.595 158.215C459.466 159.354 459.559 160.534 459.913 162.295C460.43 160.128 461.674 158.398 462.77 156.618C463.865 154.837 464.883 152.763 464.805 150.499C464.793 150.155 464.756 149.804 464.829 149.473C464.901 149.142 465.123 148.832 465.391 148.845C465.737 148.861 465.931 149.356 466.017 149.785C466.518 152.301 465.838 154.983 464.787 157.205C463.736 159.427 462.329 161.333 461.274 163.852C461.775 162.644 462.815 161.966 463.841 161.588C464.867 161.211 465.947 161.056 466.929 160.519C468.797 159.498 470.132 157.044 470.233 154.446C470.265 153.615 470.181 152.776 470.274 151.951C470.368 151.128 470.689 150.278 471.282 149.936C471.762 151.85 471.895 153.905 471.648 156.124C472.166 155.937 472.613 155.455 472.847 154.834C472.965 154.522 473.102 154.111 473.373 154.127C473.463 154.132 473.545 154.189 473.617 154.257C474.108 154.731 474.098 155.738 473.751 156.387C473.405 157.037 472.823 157.405 472.256 157.709C471.689 158.012 471.093 158.294 470.653 158.843C470.291 159.295 470.064 159.893 469.737 160.386C468.658 162.016 466.788 162.193 465.22 162.925C463.154 163.888 461.515 165.914 459.943 167.884C458.707 169.434 457.391 171.194 457.348 173.654C459.084 171.968 461.366 171.622 463.518 171.182C465.669 170.742 467.968 170.03 469.376 167.901C470.155 166.722 470.617 165.164 471.611 164.289C472.224 164.792 472.297 165.926 472.085 166.818C471.79 168.055 471.095 169.086 470.284 169.858C469.473 170.63 468.545 171.172 467.184 172.07C467.805 172.223 468.437 172.311 469.069 172.332C469.264 172.339 469.463 172.339 469.648 172.26C469.902 172.151 470.103 171.905 470.294 171.667C470.592 171.297 470.893 170.923 471.11 170.47C471.221 170.24 471.342 169.961 471.553 169.934C471.763 169.908 471.937 170.176 471.96 170.443C471.982 170.711 471.895 170.972 471.809 171.219C471.664 171.638 471.52 172.058 471.374 172.477C471.233 172.885 471.073 173.32 470.771 173.539C470.307 173.875 469.735 173.573 469.206 173.484C468.799 173.416 468.387 173.481 467.977 173.47C467.017 173.444 466.066 172.983 465.396 172.138C462.022 172.531 459.011 174.898 456.14 177.203C455.573 177.659 454.987 178.136 454.621 178.855C454.301 179.483 454.058 180.367 453.073 179.838V179.841Z" fill="#331600"/>
<path d="M96.3482 252.522C94.2612 252.695 92.1696 250.899 91.515 248.37C91.1815 247.082 91.1924 245.674 90.8185 244.404C90.7922 244.315 90.7611 244.221 90.6983 244.17C90.6053 244.092 90.4812 244.135 90.3757 244.185C89.5691 244.563 88.8067 245.164 87.9505 245.257C87.0943 245.349 86.0884 244.655 86.0853 243.561C86.0845 243.251 86.2459 242.873 86.4863 242.924C86.5615 242.939 86.6274 242.997 86.691 243.052C87.1331 243.44 87.5744 243.829 88.3724 244.166C88.1964 243.708 88.087 243.208 88.0514 242.701C88.0397 242.539 88.0436 242.351 88.1398 242.243C88.2902 242.075 88.5338 242.242 88.6361 242.461C88.7393 242.679 88.7788 242.949 88.9207 243.129C89.2573 243.557 89.8196 243.169 90.1841 242.78C89.8251 242.353 89.5598 241.801 89.4256 241.2C89.3496 240.859 89.3116 240.495 89.1604 240.197C89.0433 239.967 88.8665 239.796 88.6819 239.657C87.22 238.557 85.112 239.159 83.9231 237.614C83.474 237.031 83.239 236.191 83.2972 235.379C83.3034 235.292 83.315 235.199 83.3616 235.135C83.4888 234.96 83.7098 235.141 83.8362 235.317C84.2232 235.858 84.611 236.4 85.1508 236.952C85.0042 236.584 84.8537 236.195 84.8731 235.784C84.8917 235.374 85.15 234.95 85.4726 234.981C85.9899 235.029 86.0644 235.993 86.4653 236.411C86.6251 236.578 86.833 236.649 87.033 236.716C87.5697 236.893 88.1064 237.072 88.6439 237.25C87.9211 236.371 87.7186 235.02 87.2176 233.919C86.7314 232.851 85.9418 232.011 85.029 231.593C84.421 231.314 83.6291 231.286 83.2445 231.946C83.0397 232.298 82.9854 232.795 82.707 233.051C82.4549 233.282 82.1114 233.231 81.8042 233.17C81.4196 233.093 80.9248 232.842 80.976 232.35C81.0147 231.98 81.3482 231.806 81.7391 231.665C81.0822 231.719 80.3935 231.766 79.7932 231.421C79.4202 231.207 79.0836 230.808 79.0115 230.294C78.9386 229.781 79.2209 229.185 79.6296 229.156C79.9018 229.136 80.1453 229.349 80.4013 229.47C80.8208 229.668 81.2831 229.618 81.7306 229.643C82.1773 229.669 82.6636 229.805 83.222 230.369C82.662 229.247 81.6569 228.649 80.8309 227.835C80.0057 227.022 79.2946 225.655 79.6909 224.426C80.4261 225.031 81.0093 225.931 81.3374 226.964C81.1985 226.642 81.0566 226.305 81.0365 225.938C81.0163 225.57 81.1551 225.161 81.4281 225.037C81.7903 224.872 82.1695 225.28 82.3223 225.729C82.4759 226.178 82.5023 226.69 82.6845 227.121C83.2957 228.567 85.1942 228.302 85.8798 229.694C85.6502 229.38 85.4106 229.043 85.3485 228.621C85.2865 228.2 85.4889 227.686 85.8247 227.66C86.2815 227.624 86.4723 228.37 86.577 228.936C87.023 231.345 88.4958 233.24 89.1418 235.573C89.7428 237.744 89.68 240.389 90.7495 241.837C90.4269 240.856 90.5804 239.649 91.1303 238.848C91.4359 239.653 91.5592 240.569 91.484 241.457C91.3793 240.658 91.8624 239.811 92.4914 239.691C92.8582 240.293 92.6341 241.152 92.4883 241.892C92.1517 243.601 92.3479 245.47 93.025 247.007C93.7021 248.543 94.853 249.731 96.1745 250.256C95.7999 250.132 95.8263 249.448 95.938 248.977C96.1807 247.952 96.4235 246.927 96.8058 246.026C96.1683 245.712 95.5169 245.386 95.0042 244.811C94.4916 244.235 94.1387 243.348 94.2822 242.498C94.7599 242.888 95.2121 243.33 95.6309 243.816C95.5137 243.385 95.2059 243.083 95.0399 242.678C94.8739 242.273 94.9631 241.615 95.3214 241.579C95.6301 241.547 95.8154 241.99 95.9473 242.347C96.2847 243.261 96.8089 244.063 97.4534 244.652C97.0889 243.509 97.5434 242.07 97.0075 241.043C96.8074 240.659 96.4956 240.397 96.2467 240.063C95.5339 239.111 95.3959 237.702 95.233 236.403C95.0701 235.104 94.7793 233.682 93.913 232.965C93.6268 232.728 93.2964 232.588 93.0079 232.355C92.3844 231.85 92.0028 230.896 92.0493 229.958C92.0587 229.767 92.1029 229.547 92.2409 229.472C92.4922 229.335 92.6729 229.777 92.7877 230.092C93.0188 230.725 93.5376 231.171 94.3194 231.432C92.7768 229.702 92.3115 226.852 92.4441 224.24C92.4619 223.886 92.4875 223.518 92.389 223.185C92.2681 222.781 91.9842 222.498 91.7779 222.155C91.4972 221.687 91.3599 221.083 91.401 220.497C91.4281 220.108 91.6313 219.643 91.9338 219.711C92.1378 219.755 92.2556 220.021 92.3456 220.258C92.707 221.209 93.0684 222.161 93.6129 223.352C93.7052 222.578 93.9704 221.84 94.3698 221.244C94.7366 221.584 94.8313 222.244 94.7522 222.814C94.6731 223.383 94.4551 223.903 94.3093 224.45C93.8618 226.131 94.1472 228.096 95.2237 229.949C94.9018 229.103 94.5901 228.134 94.8452 227.253C94.9212 226.99 95.0632 226.735 95.2741 226.657C95.5898 226.542 95.9147 226.889 96.014 227.288C96.1133 227.687 96.0543 228.118 96.0194 228.535C95.9008 229.955 96.0768 231.387 96.2529 232.799C96.3296 233.42 96.4072 234.041 96.3304 235.084C96.8299 234.272 97.1688 233.301 97.3084 232.285C97.4123 231.527 97.4511 230.645 97.9381 230.19C98.1049 230.725 98.2235 231.283 98.2918 231.851C98.5128 230.6 98.8998 229.397 99.4311 228.307C99.5071 228.152 99.5924 227.991 99.7235 227.916C100.025 227.745 100.347 228.122 100.49 228.501C100.812 229.35 100.771 230.378 100.477 231.243C100.182 232.108 99.6537 232.82 99.0495 233.365C98.7315 233.652 98.3872 233.902 98.1165 234.26C97.3192 235.315 97.3704 237.017 97.7272 238.409C97.6194 237.989 97.9932 237.55 98.3344 237.626C98.6757 237.702 98.9091 238.149 98.9301 238.59C98.951 239.03 98.8029 239.456 98.6214 239.831C98.4399 240.206 98.2204 240.555 98.1561 241.332C98.6338 241.557 99.01 242.105 99.1209 242.739C99.3876 244.259 98.2212 245.611 98.1367 247.164C98.1623 246.793 98.6509 246.767 98.7905 247.094C98.9308 247.421 98.7975 247.836 98.5981 248.108C98.3988 248.379 98.1375 248.572 97.949 248.856C97.5961 249.389 97.555 250.158 97.6504 250.844C98.4105 249.161 99.4008 247.648 100.563 246.393C101.059 245.857 101.631 245.26 101.66 244.434C101.685 243.719 101.285 243.109 101.059 242.453C100.836 241.804 100.781 241.064 100.903 240.374C100.926 240.242 100.967 240.095 101.064 240.039C101.172 239.977 101.296 240.058 101.394 240.143C101.762 240.462 102.072 240.887 102.771 241.611C102.132 240.409 102.035 238.769 102.529 237.46C102.71 236.977 102.974 236.469 102.864 235.951C102.691 235.139 101.681 234.791 101.763 233.955C101.824 233.33 102.68 233.23 102.829 233.83C102.625 233.534 102.412 233.215 102.363 232.826C102.314 232.437 102.506 231.971 102.816 231.951C103.164 231.929 103.373 232.421 103.497 232.837C103.741 233.661 103.985 234.487 104.229 235.311C104.233 233.387 104.236 231.462 104.24 229.539C104.24 229.214 104.24 228.878 104.138 228.581C104.02 228.236 103.783 227.986 103.586 227.708C102.903 226.742 102.681 225.286 103.032 224.065C103.467 224.764 103.903 225.464 104.338 226.163C104.022 225.441 104.161 224.446 104.654 223.908C104.884 223.656 105.172 223.504 105.408 223.262C106.182 222.47 106.198 221.015 106.265 219.754C106.273 219.585 106.286 219.41 106.354 219.266C106.531 218.896 107 218.934 107.238 219.243C107.476 219.551 107.534 220.015 107.546 220.447C107.604 222.46 106.934 224.371 106.382 226.258C105.831 228.145 105.386 230.237 105.89 232.146C105.598 231.198 105.872 230.018 106.522 229.424C107.027 229.747 107.218 230.579 107.12 231.288C107.021 231.996 106.7 232.616 106.401 233.226C104.763 236.574 103.612 240.307 103.024 244.18C103.398 244.054 103.475 243.375 103.815 243.142C104.164 242.903 104.625 243.316 104.675 243.816C104.724 244.316 104.468 244.796 104.143 245.085C103.819 245.375 103.431 245.519 103.064 245.705C101.541 246.479 100.287 248.073 99.5753 250.263C100.157 249.092 101.229 248.472 102.28 248.115C103.332 247.756 104.433 247.589 105.425 247.021C106.417 246.451 107.32 245.347 107.405 243.965C107.433 243.502 107.368 243.034 107.412 242.573C107.456 242.112 107.648 241.624 107.996 241.486C108.566 241.258 109.066 242.098 109.138 242.855C109.21 243.61 109.073 244.42 109.324 245.11C109.756 243.66 110.059 242.15 110.228 240.615C110.327 239.707 110.37 238.73 110.025 237.924C109.875 237.574 109.652 237.249 109.633 236.852C109.594 236.061 110.328 235.625 110.928 235.413C111.191 236.09 111.453 236.768 111.716 237.445C112.36 235.92 113.004 234.394 113.649 232.867C113.883 232.312 114.06 231.475 113.624 231.178C113.408 231.03 113.132 231.112 112.91 230.979C112.451 230.707 112.555 229.841 112.771 229.257C112.998 229.523 113.224 229.789 113.452 230.053C112.638 229.084 112.22 227.603 112.362 226.196C112.394 225.872 112.562 225.465 112.809 225.553C112.927 225.596 112.999 225.743 113.058 225.881C113.395 226.681 113.62 227.557 113.72 228.456C114.33 226.635 113.21 224.581 113.4 222.616C113.44 222.194 113.669 221.682 113.991 221.786C114.233 221.865 114.321 222.238 114.365 222.551C114.649 224.558 114.869 226.58 114.858 229.227C115.182 228.418 115.505 227.609 115.829 226.801C116.155 227.602 115.971 228.594 115.646 229.397C115.322 230.199 114.866 230.92 114.622 231.767C114.257 233.031 114.4 234.438 114.185 235.757C113.931 237.317 113.193 238.668 112.474 239.971C112.99 239.481 113.516 239.005 114.049 238.545C114.307 239.876 113.618 241.199 112.856 242.167C112.094 243.136 111.189 244.026 110.83 245.317C110.736 245.659 110.681 246.025 110.53 246.333C110.117 247.175 109.201 247.252 108.424 247.335C108.168 247.362 107.824 247.554 107.902 247.867C108.116 248.094 108.419 248.179 108.688 248.086L108.956 248.616C109.356 248.089 109.809 247.529 110.383 247.47C110.957 247.411 111.572 248.202 111.289 248.84C111.094 249.282 110.631 249.363 110.234 249.393C109.497 249.451 108.756 249.507 108.022 249.406C107.45 249.328 106.887 249.154 106.314 249.091C103.372 248.77 100.788 251.319 98.1041 252.885C97.8443 253.036 97.4689 253.137 96.3529 252.527L96.3482 252.522Z" fill="#331600"/>
<path d="M295.851 243.889C295.331 243.317 294.811 242.744 294.291 242.171C294.242 242.117 294.191 242.06 294.131 242.027C293.835 241.861 293.557 242.277 293.364 242.611C292.388 244.303 290.491 245.018 288.951 244.275C288.671 243.409 288.988 242.409 289.435 241.667C289.882 240.925 290.462 240.308 290.823 239.494C288.868 239.846 286.955 240.577 285.17 241.653C284.85 241.845 284.526 242.053 284.174 242.093C283.822 242.132 283.43 241.964 283.263 241.566C283.095 241.169 283.278 240.564 283.629 240.524C283.152 240.117 282.537 240.119 281.986 239.91C281.436 239.701 280.874 239.061 281.025 238.354C281.173 237.659 281.862 237.468 282.424 237.408C284.375 237.201 286.33 237.056 288.773 237.156C288.674 236.439 288.574 235.722 288.475 235.004C287.868 235.258 287.516 236.316 286.879 236.246C286.235 236.174 286.076 234.996 286.352 234.249C286.629 233.501 287.149 232.887 287.255 232.072C287.435 230.694 286.388 229.603 285.444 228.897C284.5 228.191 283.404 227.273 283.401 225.876C283.401 225.65 283.452 225.388 283.615 225.298C283.727 225.236 283.857 225.28 283.975 225.329C285.153 225.824 286.187 226.858 286.845 228.2C286.44 225.917 286.347 223.544 286.574 221.221C286.75 219.408 287.334 217.329 288.715 216.85C288.887 219.381 289.02 221.914 289.114 224.452C288.991 223.393 289.56 222.275 290.368 221.989C290.654 223.173 290.441 224.444 290.363 225.679C290.132 229.322 291.165 233.067 293.131 235.722C292.338 234.016 293.16 231.471 294.663 230.974C294.791 232.875 294.919 234.777 295.047 236.678C295.08 237.168 295.121 237.688 295.355 238.078C295.589 238.469 296.088 238.642 296.361 238.295C296.71 237.851 296.417 237.119 296.233 236.535C295.993 235.774 295.983 234.899 296.203 234.129C296.346 233.633 296.579 233.183 296.694 232.676C296.991 231.367 296.459 230.009 296.166 229.213C295.44 226.694 294.709 224.162 293.674 221.825C293.212 220.782 292.69 219.775 292.348 218.66C291.999 217.522 291.848 216.287 291.907 215.067C291.924 214.702 292.011 214.26 292.288 214.166C292.59 214.065 292.841 214.462 292.987 214.814C293.58 216.25 293.933 217.824 294.283 219.386C294.068 218.263 293.865 217.01 294.313 216.005C294.448 215.7 294.73 215.41 294.973 215.571C295.067 215.633 295.13 215.749 295.18 215.867C295.619 216.899 295.304 218.162 295.296 219.336C295.285 220.957 295.876 222.474 296.454 223.918C296.082 222.998 296.044 221.87 296.351 220.913C296.454 220.592 296.742 220.246 296.952 220.464C297.016 220.531 297.048 220.635 297.078 220.733C297.255 221.328 297.433 221.921 297.611 222.516C297.759 221.449 297.907 220.383 298.054 219.317C298.109 218.923 298.163 218.522 298.119 218.126C297.985 216.934 296.98 215.96 297.196 214.788C297.243 214.536 297.376 214.274 297.579 214.244C297.844 214.203 298.031 214.558 298.15 214.865C298.396 215.494 298.64 216.123 299.196 216.986C299.202 215.549 299.348 214.114 299.822 212.683C300.298 212.461 300.829 212.969 300.988 213.582C301.147 214.196 301.04 214.865 300.933 215.497C300.669 217.048 300.405 218.598 300.141 220.149C299.801 222.144 299.461 224.23 299.87 226.204C300.137 227.496 300.708 228.646 301.271 229.772C300.377 228.195 301.933 225.874 301.295 224.106C301.045 223.415 300.483 222.915 300.382 222.165C300.295 221.523 300.675 220.801 301.185 220.776C301.695 220.75 302.122 221.582 302.158 222.549C302.179 220.765 302.069 218.978 301.805 217.065C301.881 216.132 302.106 215.219 302.631 214.513C302.828 215.76 303.025 217.007 303.222 218.255C303.217 217.557 303.214 216.837 303.417 216.189C303.621 215.541 304.085 214.975 304.632 214.966C304.228 221.423 303.676 227.865 302.977 234.279C303.121 233.994 303.366 233.796 303.629 233.751C303.627 235.176 303.624 236.6 303.622 238.025C304.629 232.308 305.102 226.439 305.03 220.581C305.02 219.698 305.009 218.756 305.379 218.011C305.49 217.787 305.664 217.571 305.871 217.586C306.192 217.61 306.321 218.12 306.369 218.528C306.494 219.621 306.619 220.715 306.744 221.808C306.494 218.591 306.835 215.301 307.907 211.817C308.239 211.43 308.645 211.147 309.08 211C309.386 212.525 309.354 214.158 308.988 215.662C308.649 217.061 308.022 218.525 308.532 220.399C309.305 218.407 310.285 216.197 311.983 215.704C312.47 216.721 311.844 217.983 311.292 218.945C308.466 223.859 306.95 229.979 306.991 235.995C307.162 236.658 307.334 237.323 307.504 237.986C307.375 237.274 307.707 236.558 308.09 236.013C308.473 235.467 308.932 234.973 309.144 234.294C309.451 233.313 309.171 232.216 309.045 231.172C308.899 229.965 308.968 228.718 309.243 227.548C309.324 227.204 309.458 226.824 309.727 226.723C310.164 226.558 310.496 227.228 310.621 227.787C310.882 228.947 310.991 230.162 310.945 231.368C311.317 230.047 311.968 228.855 312.81 227.95C312.927 227.825 313.054 227.701 313.204 227.668C313.478 227.608 313.744 227.881 313.846 228.211C313.948 228.54 313.921 228.911 313.879 229.261C313.417 233.089 311.232 236.553 311.898 240.316C311.795 237.907 312.833 235.698 313.677 233.539C314.52 231.38 315.196 228.792 314.384 226.614C314.186 226.08 313.901 225.589 313.801 225.012C313.701 224.437 313.864 223.717 314.302 223.53C314.689 223.366 315.119 223.701 315.318 224.156C315.517 224.61 315.542 225.151 315.562 225.672C315.325 223.094 316.476 220.4 318.303 219.26C318.192 222.124 317.798 224.969 317.13 227.706C317.491 225.409 318.327 223.086 319.886 221.849C320.19 222.313 320.021 223.011 319.838 223.568C319.134 225.707 318.431 227.847 317.727 229.986C318.052 229.65 318.226 229.137 318.486 228.718C318.745 228.299 319.183 227.954 319.568 228.162C319.978 228.383 320.069 229.121 319.881 229.636C319.692 230.152 319.317 230.506 318.978 230.875C317.258 232.744 316.195 235.448 315.622 238.238C315.05 241.028 314.928 243.932 314.667 247.192C315.852 244.778 316.754 242.137 317.335 239.387C317.454 238.825 317.633 238.159 318.077 238.026C318.224 239.579 318.228 241.153 318.088 242.707C318.154 240.036 319.076 237.417 320.595 235.58C320.749 236.026 320.902 236.473 321.056 236.919C320.788 235.139 321.5 233.19 322.739 232.307C323.003 233.099 323.102 233.981 323.009 234.926C323.546 232.791 324.179 230.487 325.654 229.269C325.803 229.145 325.969 229.032 326.147 229.039C326.459 229.052 326.693 229.446 326.733 229.842C326.771 230.237 326.664 230.628 326.557 231.003C326.258 232.061 325.958 233.12 325.659 234.178C325.865 233.42 326.139 232.675 326.569 232.09C326.999 231.506 327.604 231.095 328.232 231.121C328.352 231.829 328.454 232.607 328.187 233.246C328.008 233.671 327.692 233.968 327.39 234.257C325.039 236.512 322.981 239.262 321.322 242.363C321.728 241.465 322.369 240.744 323.119 240.346C323.367 240.215 323.652 240.118 323.899 240.253C324.146 240.387 324.286 240.846 323.921 241.444C327.188 239.037 328.215 233.031 331.707 231.208C331.866 231.125 332.047 231.052 332.206 231.136C332.306 231.188 332.381 231.297 332.437 231.413C332.847 232.259 332.357 233.328 331.884 234.118C330.72 236.06 329.556 238.003 328.393 239.946C329.455 238.719 330.687 237.733 332.016 237.046C332.243 236.928 332.485 236.817 332.73 236.855C333.303 236.942 333.618 237.859 333.448 238.564C333.278 239.269 332.779 239.762 332.266 240.101C331.269 240.761 330.14 241.012 329.076 241.474C327.584 242.121 326.225 243.177 324.881 244.225C324.152 244.792 323.366 245.452 323.022 247.022C324.575 246.179 326.451 246.942 327.992 246.066C328.685 245.672 329.244 244.981 329.786 244.302C330.321 243.635 330.855 242.967 331.389 242.3C331.794 243.044 331.773 244.124 331.236 245.192C332.433 244.308 333.631 243.425 334.828 242.542C334.974 242.434 335.126 242.324 335.294 242.306C335.794 242.252 336.12 243.082 335.958 243.689C335.796 244.297 335.342 244.687 334.908 245.008C330.515 248.265 325.298 249.071 320.239 249.663C324.422 249.964 328.642 249.422 332.694 248.065C331.284 250.507 328.841 251.503 326.56 252.358C328.344 252.626 330.119 252.985 331.88 253.432C332.659 253.631 333.636 254.174 333.549 255.182C333.534 255.364 333.47 255.553 333.343 255.638C333.249 255.7 333.139 255.695 333.035 255.687C327.679 255.323 322.37 252.94 317.06 253.898C316.127 254.065 315.172 254.356 314.431 255.098C313.971 255.557 313.62 256.164 313.24 256.731C311.457 259.392 308.943 261.238 306.246 261.868C304.873 262.189 303.167 262.002 302.502 260.436C302.355 260.091 302.269 259.695 302.062 259.406C301.711 258.92 301.13 258.88 300.612 258.889C299.24 258.912 297.826 259.036 296.538 258.433C295.249 257.831 294.116 256.25 294.279 254.511C294.35 253.765 294.643 252.984 294.397 252.302C294.188 251.723 293.662 251.454 293.172 251.337C292.256 251.12 291.311 251.248 290.386 251.1C289.461 250.951 288.485 250.431 288.078 249.361C287.671 248.292 288.214 246.689 289.146 246.715C289.607 246.728 290.004 247.104 290.418 247.362C292.283 248.527 294.848 246.908 295.851 243.888V243.889Z" fill="#331600"/>
<path d="M52.6092 244.498C51.99 240.576 53.7339 236.671 53.7908 232.669C53.8254 230.229 53.2308 227.765 53.6146 225.376C53.7831 224.329 54.1369 223.322 54.1523 222.254C54.1808 220.28 53.0531 218.389 53.4169 216.471C53.5323 215.861 53.7985 215.264 53.7146 214.645C53.5915 213.737 52.7885 213.25 52.4962 212.407C52.0008 210.978 53.1469 209.505 53.3046 207.953C53.4485 206.537 52.7492 205.19 52.7254 203.764C52.6823 201.217 54.7162 199.36 55.0808 196.856C55.1954 196.067 55.1615 195.167 55.5823 194.575C56.1177 193.821 57.1185 193.964 57.7062 193.28C58.2892 192.6 58.2369 191.42 58.5215 190.474C59.15 188.386 61.3631 187.625 61.9192 185.502C62.1108 184.771 62.0731 183.97 62.2315 183.225C62.6931 181.047 64.6692 179.859 65.1646 177.695C65.9769 178.505 66.1592 180.011 66.0092 181.32C65.8585 182.63 65.4439 183.871 65.3046 185.184C65.2231 185.952 65.2346 186.747 65.04 187.481C64.4769 189.609 62.4431 190.484 61.5754 192.433C60.9785 193.775 60.9923 195.501 60.2562 196.721C59.5346 197.917 58.2239 198.39 57.6177 199.687C56.7031 201.644 57.88 204.161 57.6077 206.418C57.4531 207.701 56.8277 208.868 56.8431 210.166C56.8569 211.319 57.3785 212.378 57.4354 213.528C57.5169 215.189 56.6277 216.71 56.6115 218.374C56.5946 220.071 57.4892 221.68 57.27 223.353C57.17 224.117 56.8469 224.795 56.6031 225.503C56.2423 226.548 56.0508 227.674 55.8608 228.792C55.7423 229.489 55.6239 230.186 55.5062 230.884C54.77 235.222 54.0339 239.566 52.6108 244.496L52.6092 244.498Z" fill="#331600"/>
<path d="M51.5177 246.68C50.6847 242.104 49.8462 237.506 48.4877 233.143C47.9724 231.486 47.377 229.845 47.167 228.081C47.0239 226.879 47.0623 225.636 46.7931 224.47C46.3147 222.393 44.8931 220.68 44.9008 218.513C44.9047 217.599 45.1554 216.589 44.7616 215.828C44.2708 214.879 42.9939 214.819 42.7539 213.721C42.6754 213.361 42.7362 212.957 42.6054 212.623C42.1762 211.523 40.5247 212.588 40.0331 211.531C39.9054 211.258 39.9093 210.918 39.8477 210.609C39.4223 208.467 36.4393 208.852 35.9277 206.742C35.6847 205.741 36.1254 204.471 35.5793 203.692C35.2685 203.25 34.7393 203.156 34.4239 202.719C33.8654 201.949 34.2854 200.689 34.8062 199.876C35.327 199.063 35.9793 198.151 35.8116 197.118C35.7547 196.77 35.6062 196.459 35.507 196.127C34.9754 194.344 35.917 192.448 36.77 190.887C37.6231 189.326 38.4577 187.284 37.74 185.613C38.3193 185.466 38.86 185.073 39.6508 184.874C38.6516 186.898 39.3639 189.6 38.9008 191.924C38.69 192.981 38.2385 193.939 38.0508 195.002C37.8631 196.066 38.0331 197.371 38.77 197.908C39.2085 198.227 39.7685 198.214 40.1754 198.598C40.857 199.242 40.75 200.559 40.6731 201.645C40.5962 202.73 40.827 204.151 41.6631 204.307C41.9762 204.366 42.3231 204.218 42.5977 204.421C43.3047 204.944 42.4516 206.618 43.0393 207.346C43.3493 207.729 43.8477 207.577 44.2762 207.532C45.8893 207.366 47.37 209.555 47.0254 211.593C46.9777 211.876 46.9016 212.165 46.9539 212.446C47.0585 213 47.5716 213.197 47.9831 213.406C49.0554 213.951 49.8808 215.235 50.0962 216.694C50.2777 217.924 50.0508 219.211 50.2462 220.438C50.417 221.511 50.8977 222.455 51.1962 223.482C51.9077 225.927 51.5485 228.638 51.3785 231.24C51.0354 236.497 51.5177 241.841 51.5185 246.678L51.5177 246.68Z" fill="#331600"/>
<path d="M54.7177 247.098C52.8347 241.123 51.967 234.62 52.1916 228.177C52.2885 225.394 52.5785 222.527 51.8993 219.883C51.6362 218.861 51.2316 217.889 51.1108 216.822C50.877 214.758 51.7231 212.509 51.0024 210.642C50.3408 208.926 48.547 208.155 48.17 206.301C47.9954 205.444 48.1631 204.471 47.8247 203.7C47.4639 202.88 46.6639 202.586 46.1316 201.94C45.2077 200.818 45.3877 198.569 46.47 197.714C45.4485 195.596 45.4047 192.755 46.36 190.586C46.8277 189.525 47.5124 188.619 47.8508 187.478C48.2854 186.015 48.1085 184.301 48.6993 182.932C49.4839 181.115 51.3924 180.435 52.0824 178.556C50.0554 176.946 47.0231 178.156 46.0554 180.961C45.9047 181.398 45.82 181.977 46.0916 182.302C46.26 182.503 46.5162 182.537 46.6931 182.727C47.1062 183.169 46.83 184.017 46.5693 184.622C45.8931 186.194 45.507 187.973 45.4516 189.769C45.6077 188.508 45.727 187.067 45.0854 186.095C44.7554 185.594 44.2477 185.271 44.0485 184.667C43.6139 183.35 44.9254 182.116 45 180.687C45.0462 179.801 44.6016 178.911 44.7977 178.059C45.0854 176.811 46.4 176.685 47.4047 176.809C47.2031 175.585 48.3354 174.65 49.3062 174.638C50.277 174.626 51.2424 175.117 52.1993 174.908C52.82 174.774 53.5724 174.401 53.9939 175.005C54.2262 175.337 54.2524 175.874 54.5316 176.14C54.8162 176.413 55.2139 176.273 55.5685 176.3C56.2731 176.355 56.857 177.165 56.9762 178.063C57.0954 178.96 56.8131 179.89 56.3554 180.583C56.0877 180.988 55.7454 181.368 55.6824 181.893C55.6354 182.284 55.7562 182.672 55.8062 183.063C56.0177 184.714 54.9847 186.152 54.0485 187.311C52.8 188.858 51.4693 191.018 52.1262 193.083C52.2793 193.564 52.5347 193.995 52.6124 194.504C52.84 196.005 51.4754 197.204 51.4277 198.732C51.3747 200.42 52.9393 201.793 52.6385 203.438C52.5431 203.96 52.26 204.428 52.2662 204.966C52.27 205.324 52.4031 205.655 52.5193 205.981C53.207 207.911 53.3747 210.141 52.9877 212.206C52.8985 212.68 52.7808 213.167 52.8493 213.647C52.9331 214.233 53.2777 214.693 53.4808 215.228C54.0808 216.815 53.3654 218.801 53.8624 220.447C54.057 221.09 54.4239 221.628 54.6224 222.269C54.9262 223.248 54.8077 224.348 54.7016 225.393C54.0008 232.299 54.0347 239.327 54.717 247.099L54.7177 247.098Z" fill="#331600"/>
<path d="M52.7132 246.944C52.4832 244.494 53.5301 242.162 54.6616 240.171C55.7932 238.181 57.0893 236.211 57.4855 233.797C57.7308 232.302 57.6124 230.714 58.0062 229.272C58.387 227.876 59.2162 226.743 59.6062 225.35C60.1339 223.463 59.7932 221.348 60.1424 219.393C60.8093 215.661 63.777 213.332 64.9078 209.79C65.1339 209.08 65.287 208.322 65.6178 207.684C66.3185 206.332 67.6624 205.792 68.5278 204.609C69.3993 203.417 69.6893 201.573 69.2478 200.037C68.9962 199.162 68.5285 198.382 68.4255 197.458C68.2562 195.946 69.0893 194.593 69.7878 193.359C70.4862 192.124 71.1093 190.469 70.5301 189.136C70.227 188.44 69.6355 187.966 69.4539 187.202C69.1324 185.846 70.2293 184.717 70.8732 183.567C71.9762 181.595 71.7024 178.559 69.8747 176.953C70.3993 177.362 71.1332 177.316 71.5324 177.916C72.0432 178.684 71.6332 179.881 71.8108 180.868C72.0155 182.007 72.9739 182.704 73.3931 184.111C72.3993 185.577 72.3716 187.979 73.3324 189.482C73.7416 190.123 74.3216 190.657 74.4578 191.468C74.6785 192.785 73.6324 193.84 73.2547 195.096C72.4278 197.848 74.9193 201.007 73.9424 203.675C73.4785 204.943 72.3201 205.703 72.0662 207.067C71.877 208.08 72.2524 209.151 72.1139 210.177C71.887 211.866 70.4247 212.774 69.8178 214.298C69.2424 215.742 69.5162 217.508 69.1624 219.066C68.4124 222.368 65.1516 223.81 64.2493 227.049C63.7678 228.777 63.8647 231.117 62.5816 231.914C62.2255 232.135 61.8193 232.18 61.4455 232.347C59.7101 233.128 59.3455 236.006 58.3924 238.033C57.147 240.68 54.5762 242.286 52.7147 246.947L52.7132 246.944Z" fill="#331600"/>
<rect y="277" width="767" height="432" fill="#331600"/>
</g>
<defs>
<clipPath id="clip0_2506_279">
<rect width="500" height="709" fill="white"/>
</clipPath>
</defs>
</svg>
