<svg width="767" height="1154" viewBox="0 0 767 1154" fill="none" xmlns="http://www.w3.org/2000/svg">
<path d="M0 429H767V1154H0V429Z" fill="#602A02"/>
<path d="M767 114.419V443.826H0V214.966C3.09986 219.963 6.19972 224.961 9.2984 229.959C10.9728 232.659 12.6567 235.377 13.8615 238.344C16.2226 244.158 16.6274 250.626 19.1644 260.562C19.7497 267.907 20.3349 275.252 20.919 282.598C21.9928 281.025 24.4189 281.214 25.8184 282.469C27.2167 283.726 27.8468 285.664 28.4168 287.507C30.8806 295.474 33.3444 303.442 40.474 310.375C42.8316 313.343 45.1893 316.312 47.5469 319.282C53.1094 319.751 58.6731 320.22 71.39 320.341C74.4686 316.388 77.5472 312.436 80.6259 308.483C77.6263 302.586 74.5807 295.515 77.3679 289.503C79.0293 285.916 82.5198 283.58 86.166 282.521C89.8133 281.46 93.6554 281.506 96.7612 280.195C103.167 284.718 112.053 284.961 118.671 280.792C120.138 279.869 121.531 278.736 123.18 278.266C124.83 277.797 126.877 278.218 127.71 279.79C128.435 281.156 128.031 282.899 128.532 284.372C129.468 287.131 133.071 287.694 135.686 286.705C138.301 285.717 140.506 283.71 143.171 282.88C145.835 282.052 149.443 283.118 151.289 287.702C155.257 295.612 157.582 304.435 158.052 313.37C162.89 312.285 167.81 317.973 166.345 322.958C167.579 323.221 168.814 323.484 170.05 323.746C163.4 338.723 168.849 358.486 181.871 370.123C186.894 368.781 192.591 370.917 195.686 375.302C196.826 376.917 197.683 378.844 199.274 379.954C201.684 381.635 204.853 380.884 207.734 380.665C218.3 379.863 227.757 387.018 237.651 395.702C244.778 391.744 254.255 393.205 260.011 399.149C261.429 400.612 262.647 402.319 263.926 403.936C265.337 405.719 266.825 407.393 268.741 408.51C274.646 411.948 281.839 408.809 288.446 407.385C301.54 404.563 315.88 409.414 326.578 422.121C328.802 417.436 333.925 415.145 338.797 414.131C343.668 413.118 348.779 412.97 353.323 410.856C357.866 408.743 361.805 403.808 360.829 398.669C359.973 394.16 355.593 390.125 357.126 385.819C358.215 382.758 361.816 381.623 364.914 381.744C368.011 381.865 371.13 382.81 374.169 382.168C377.208 381.526 380.133 378.343 380.474 370.213C380.519 367.975 380.565 365.737 380.61 363.499C380.811 353.586 381.01 343.673 381.211 333.76C381.246 332.027 381.293 330.236 381.992 328.666C384.311 323.458 391.775 323.866 395.615 319.778C398.84 316.347 398.611 310.741 397.377 306.087C396.143 301.434 394.109 296.835 394.46 292.016C394.832 286.933 397.882 282.407 401.693 279.273C405.505 276.14 410.048 274.189 412.752 269.146C418.54 262.559 425.421 257.042 432.986 252.923C432.248 256.497 436.453 259.307 439.879 258.754C443.305 258.201 446.094 255.677 449.123 253.9C462.818 245.862 481.506 253.044 488.819 244.227C495.281 251.016 497.095 262.235 493.133 270.901C491.249 275.023 488.2 279.877 490.664 283.644C492.545 286.516 496.457 286.598 499.483 288.009C504.056 290.14 506.606 295.569 506.962 300.83C507.32 306.09 505.877 311.281 503.354 319.435C505.669 323.589 507.984 327.743 510.299 331.896C512.442 329.109 516.554 329.147 519.736 330.419C522.917 331.688 525.74 333.912 529.032 334.815C532.324 335.716 536.541 334.702 539.439 327.861C544.061 325.522 549.154 323.177 554.178 322.321C558.168 321.64 562.114 321.896 565.745 323.84C567.901 324.993 569.895 326.729 572.301 326.966C578.113 327.535 581.505 319.513 587.185 318.1C590.198 317.351 593.284 318.603 596.318 319.253C598.527 319.726 601.093 319.727 604.418 316.952C605.659 315.918 607.005 314.496 608.478 312.568C615.672 304.342 613.751 289.835 621.862 282.62C629.049 276.229 641.316 278.38 647.188 270.637C651.356 265.137 650.296 257.137 652.502 250.491C656.336 238.935 668.816 233.819 678.968 228.156C691.938 231.56 706.682 222.38 710.13 208.757C711.987 201.416 711.406 192.393 717.112 187.76C722.009 183.784 729.413 185.143 734.453 181.373C739.644 177.489 740.426 169.61 739.25 163.011C738.072 156.413 735.436 150.018 735.59 143.306C735.814 133.535 742.078 124.812 749.827 119.456C755.659 115.426 762.273 112.972 767 114.419Z" fill="#602A02"/>
</svg>
