<svg width="767" height="723" viewBox="0 0 767 723" fill="none" xmlns="http://www.w3.org/2000/svg">
<g clip-path="url(#clip0_2482_1550)">
<path d="M-494.206 286.432C-498.79 287.879 -509.867 292.762 -514.833 295.022L-524 309.489V723H1057V225.853C1053.18 229.469 1044.39 237.336 1039.81 239.867C1035.23 242.399 1028.99 240.922 1026.44 239.867C1023.39 244.931 1010.4 243.785 1004.29 242.58C1001.36 247.854 992.828 259.398 982.133 263.376C971.437 267.354 957.813 263.527 952.339 261.115C950.047 264.129 943.782 270.428 937.059 271.514C930.337 272.599 925.346 269.856 923.69 268.349C922.417 271.212 919.03 277.21 915.669 278.295C912.307 279.38 907.138 276.637 904.974 275.13C897.334 285.679 879.228 307.59 867.922 310.845C853.789 314.914 845.003 302.708 839.274 301.351C833.544 299.995 812.917 299.091 799.548 296.83C786.179 294.57 759.44 301.351 749.127 301.351C738.814 301.351 733.848 290.501 720.479 285.528C707.11 280.555 675.788 286.432 670.822 285.528C665.856 284.624 638.354 273.322 631.096 263.376C625.29 255.419 611.361 247.704 605.122 244.84C600.029 236.251 588.85 217.805 584.877 212.742C579.912 206.413 572.654 204.604 565.778 202.344C560.278 200.536 550.245 188.028 545.916 182C535.73 195.864 513.983 224.315 508.482 227.209C502.982 230.102 496.768 226.003 494.349 223.592L446.22 246.197C440.719 259.217 421.009 263.376 411.842 263.828L404.203 257.499C396.69 260.061 379.068 266.993 368.679 274.226C355.692 283.268 348.816 306.324 338.503 316.722C330.252 325.041 313.674 326.518 306.417 326.216C295.976 332.998 271.504 346.56 257.142 346.56C242.779 346.56 216.27 334.806 204.811 328.929H160.12C150.698 333.751 128.034 343.215 112.755 342.491C93.6558 341.587 75.3209 332.998 61.9517 328.929C51.2564 325.674 43.7441 316.722 41.325 312.654H14.9686C7.9657 317.928 -7.64441 328.567 -14.0616 328.929C-20.4788 329.29 -33.2877 321.846 -38.89 318.079C-42.8371 319.887 -51.9536 323.323 -56.8429 322.6C-61.7322 321.876 -76.7057 312.051 -83.5813 307.229C-87.5284 309.037 -97.256 312.654 -104.59 312.654C-111.924 312.654 -116.304 309.037 -117.577 307.229C-120.888 308.585 -128.884 310.936 -134.384 309.489C-139.885 308.042 -145.334 300.749 -147.371 297.283C-149.663 298.639 -155.469 301.351 -160.359 301.351C-166.47 301.351 -167.998 294.57 -172.964 294.118C-177.929 293.666 -184.805 298.187 -190.535 297.283C-195.118 296.559 -222.748 278.898 -235.99 270.157C-240.956 271.815 -252.109 275.13 -256.999 275.13C-261.888 275.13 -272.787 270.911 -277.625 268.801H-293.668L-306.273 279.199H-315.823C-318.879 281.731 -328.81 282.062 -333.394 281.912C-334.922 285.167 -342.179 291.104 -345.617 293.666H-355.548C-358.222 295.474 -364.563 299.091 -368.536 299.091C-372.508 299.091 -380.886 296.077 -384.579 294.57C-388.271 296.529 -396.267 300.628 -398.712 301.351C-401.768 302.256 -423.158 301.351 -427.742 300.447C-431.409 299.724 -444.04 292.31 -449.897 288.693C-453.207 289.898 -460.363 292.31 -462.502 292.31C-465.176 292.31 -471.669 290.049 -475.871 286.432C-480.073 282.816 -488.476 284.624 -494.206 286.432Z" fill="#E3C485"/>
</g>
<defs>
<clipPath id="clip0_2482_1550">
<rect width="767" height="723" fill="white"/>
</clipPath>
</defs>
</svg>
