<svg width="767" height="1838" viewBox="0 0 767 1838" fill="none" xmlns="http://www.w3.org/2000/svg">
<g clip-path="url(#clip0_2413_523)">
<path d="M767 628.031V936H0V352C1.11274 357.44 2.12046 362.942 2.98776 368.529C5.97552 387.769 7.2452 407.695 8.50426 427.524C9.53676 443.766 10.5681 460.008 13.5889 481.448C22.3091 486.681 27.4751 502.151 32.0276 516.33C36.4089 529.976 40.9177 543.492 45.5504 556.874C50.8238 572.102 56.4878 589.149 59.7965 605.201C67.6706 614.651 79.9167 609.062 84.2355 594.05C86.1164 587.51 87.4368 578.514 91.5397 577.481C93.6613 576.948 95.7688 579.009 97.9034 578.65C103.215 577.753 104.078 564.906 106.834 556.811C110.816 545.112 119.782 542.808 125.885 534.458C130.799 527.735 133.624 517.394 136.179 507.368C138.735 497.341 141.326 486.902 145.967 479.594C150.609 472.287 157.962 469.088 167.886 472.291C176.331 468.379 184.776 464.468 193.223 460.556C195.356 459.567 197.815 458.673 199.612 460.939C204.83 467.516 196.075 485.474 201.087 492.537C202.916 495.117 205.637 494.249 207.71 492.33C209.782 490.408 211.599 487.576 213.823 486.298C218.545 483.582 223.783 488.897 226.44 496.327C229.096 503.759 229.775 512.805 239.698 526.428C238.51 541.759 244.974 555.31 251.11 566.324C257.245 577.339 263.975 590.159 263.493 605.609C263.093 618.428 257.645 630.83 259.906 643.029C261.513 651.695 266.438 656.714 270.718 661.788C284.248 677.827 294.638 702.02 301.017 727.164C305.462 740.082 309.907 753 314.352 765.921C317.424 756.446 321.93 745.606 328.052 746.919C329.655 747.262 331.154 748.462 332.624 749.647C342.486 757.591 352.347 765.536 362.9 766.487C366.883 772.437 372.914 769.514 377.706 765.889C382.498 762.264 388.096 758.244 392.658 762.705C398.179 768.11 398.354 781.912 401.635 791.454C404.729 800.452 410.58 805.323 416.359 807.794C422.14 810.265 428.157 810.848 433.858 813.844C441.661 817.946 448.49 826.357 455.92 832.242C463.351 838.127 472.229 841.332 477.027 828.303C498.939 825.786 516.893 785.196 513.035 746.896C524.649 749.566 536.879 741.799 544.89 726.661C552.901 711.522 556.49 689.401 554.239 669.036C563.53 654.728 565.878 628.2 559.505 609.539C569.355 610.354 575.034 590.681 578.916 574.623C582.798 558.565 590.983 540.201 601.953 540.182C610.442 540.533 618.931 540.885 627.419 541.234C628.644 549.828 629.867 558.423 631.091 567.018C653.054 551.94 678.414 553.14 699.892 570.269C717.065 579.135 734.237 587.999 751.411 596.866C750.964 607.191 750.515 617.517 750.068 627.843C755.894 625.516 761.553 625.779 767 628.031Z" fill="#7A3401"/>
<path d="M656.274 571.2C655.883 566.378 655.483 561.501 654.556 557.02C653.63 552.539 652.11 548.425 650.017 546.396C648.631 545.053 646.998 544.594 645.904 542.342C644.383 539.212 644.523 534.028 643.793 529.803C643.5 528.101 643.028 526.465 642.303 525.513C641.445 524.384 640.379 524.374 639.378 524.087C638.377 523.801 637.28 523.013 636.847 521.075C636.578 519.87 636.623 518.457 636.444 517.179C636.133 514.95 635.187 513.396 634.22 512.309C633.254 511.222 632.2 510.422 631.36 508.933C630.113 506.724 629.482 503.041 629.769 499.642C632.296 501.914 633.16 509.254 635.703 511.441C636.396 512.036 637.222 512.269 637.681 513.519C638.116 514.704 638.074 516.446 638.498 517.649C638.985 519.037 639.897 519.255 640.663 519.845C641.503 520.49 642.242 521.713 642.744 523.284C643.025 524.163 643.34 525.282 643.841 525.235C644.083 525.212 644.297 524.896 644.536 524.808C645.15 524.582 645.648 525.877 645.882 527.11C646.116 528.34 646.279 529.771 646.8 530.499C647.107 530.925 647.502 531.046 647.766 531.586C648.074 532.216 648.113 533.212 648.272 534.056C648.701 536.348 649.944 537.299 650.905 538.68C653.258 542.056 654.135 548.633 656.279 552.589C655.363 548.716 657.231 544.094 656.74 539.887C656.314 536.237 654.261 534.191 653.918 530.504C653.641 527.514 654.576 524.14 653.852 521.509C653.058 518.628 650.739 518.605 650.25 515.43C650.065 514.225 650.221 512.902 650.13 511.649C649.978 509.545 649.16 507.949 648.311 506.824C647.461 505.7 646.515 504.841 645.809 503.333C645.103 501.824 644.7 499.369 645.214 497.544C646.115 499.542 647.015 501.54 647.916 503.538C648.189 504.141 648.472 504.761 648.837 505.075C649.433 505.587 650.128 505.178 650.739 505.594C651.644 506.212 652.075 508.351 652.396 510.251C653.338 507.575 653.388 503.624 652.515 500.842C651.915 498.937 650.902 497.358 650.872 495.069C650.84 492.548 652.042 490.668 652.233 488.178C652.413 485.818 651.659 483.654 650.995 481.729C650.331 479.804 649.688 477.366 650.101 475.145C650.217 474.517 650.443 473.92 650.754 473.792C651.183 473.613 651.567 474.354 651.842 475.077C653.176 478.594 653.842 483.223 653.859 488.183C653.759 489.93 653.657 491.677 653.557 493.424C653.53 493.896 653.504 494.393 653.586 494.833C653.698 495.43 653.98 495.784 654.201 496.226C655.421 498.666 654.627 503.074 655.145 506.46C655.284 507.372 655.523 508.21 655.641 509.136C655.783 510.256 655.746 511.438 655.76 512.598C655.798 515.435 656.172 518.246 656.838 520.704C657.093 521.642 657.391 522.534 657.594 523.528C657.972 525.383 657.998 527.461 658.018 529.482C658.064 534.081 658.11 538.682 658.155 543.281C658.193 547.117 658.269 551.203 659.306 554.341C658.665 552.971 659.226 550.553 659.99 549.504C660.755 548.457 661.718 547.968 662.292 546.469C662.994 544.637 662.873 541.938 663.35 539.799C663.894 537.354 665.16 535.896 665.681 533.428C665.818 532.781 665.9 532.048 665.822 531.355C665.638 529.705 664.625 528.704 664.683 527.012C664.707 526.327 664.911 525.737 665.022 525.092C665.4 522.9 664.681 520.608 664.033 518.723C663.386 516.838 662.754 514.345 663.286 512.302C664.043 514.22 664.802 516.14 665.56 518.058C665.732 518.492 665.921 518.951 666.301 518.746C665.396 515.681 665.428 511.478 666.381 508.479C666.7 507.477 667.109 506.603 667.37 505.532C668.391 501.334 666.803 496.088 667.454 491.569C667.871 488.673 669.172 486.403 669.201 483.373C669.227 480.635 668.177 478.197 668.275 475.466C668.324 474.07 668.824 472.594 669.481 472.68C670.434 472.803 670.647 475.571 670.576 477.597C670.443 481.438 670.31 485.279 670.177 489.119C670.117 490.869 670.041 492.709 669.576 494.155C669.299 495.016 668.894 495.696 668.701 496.655C668.337 498.455 668.832 500.461 668.951 502.404C669.241 507.121 667.279 511.677 667.838 516.283C667.975 517.413 668.263 518.577 668.087 519.682C668.002 520.219 667.818 520.653 667.673 521.128C666.281 525.676 668.635 532.412 667.236 536.95C666.79 538.399 666.019 539.337 665.659 540.894C665.21 542.829 665.504 545.267 665.045 547.192C664.728 548.522 664.107 549.381 663.625 550.465C663.142 551.55 662.788 553.222 663.147 554.504C663.824 551.567 665.271 549.504 666.805 549.281C667.206 549.223 667.631 549.271 667.987 548.869C668.725 548.033 668.766 545.834 669.234 544.363C670.107 541.622 672.371 541.677 672.885 538.549C673.45 539.809 673.23 541.981 672.683 543.279C672.137 544.576 671.358 545.294 670.673 546.246C669.987 547.197 669.336 548.61 669.316 550.35C669.311 550.799 669.357 551.284 669.514 551.585C669.89 552.31 670.452 551.47 670.929 551.096C672.077 550.192 673.4 553.217 672.892 555.589C670.638 553.415 668.061 556.129 665.922 558.772C665.028 559.879 664.107 561.031 663.488 562.793C663.098 563.9 662.847 565.193 662.533 566.403C661.96 568.612 661.167 570.56 660.22 572.086C659.441 569.784 658.997 566.975 658.961 564.139C658.293 565.161 658.221 567.209 658.325 568.944C658.429 570.678 658.64 572.511 658.322 574.125C658.003 575.739 656.72 576.693 656.273 571.198L656.274 571.2Z" fill="#602A02"/>
<path d="M652.796 492.021C652.681 490.784 652.538 489.443 652.076 488.655C651.858 488.281 651.586 488.073 651.314 487.937C650.482 487.52 649.606 487.721 648.764 487.412C647.921 487.104 647.034 486.042 646.859 484.262C646.81 483.757 646.832 483.18 646.998 482.808C647.229 482.294 647.643 482.387 647.916 482.791C648.19 483.195 648.365 483.828 648.558 484.405C648.752 484.982 648.994 485.552 649.319 485.71C649.502 485.801 649.692 485.751 649.878 485.71C650.537 485.575 651.228 485.607 651.832 486.19C652.436 486.772 652.936 488.007 652.796 492.019V492.021Z" fill="#602A02"/>
<path d="M652.352 480.411C652.061 479.839 651.96 478.925 652.003 478.087C652.045 477.248 652.214 476.462 652.39 475.707C652.613 474.748 652.909 473.706 653.4 473.47C653.788 473.282 654.24 473.641 654.571 473.169C654.809 472.83 654.892 472.18 654.958 471.588C655.361 472.81 655.521 474.678 655.003 475.687C654.627 476.417 654.049 476.407 653.608 476.947C653.225 477.414 652.974 478.265 652.843 479.161C652.712 480.057 652.673 481.044 652.352 480.414V480.411Z" fill="#602A02"/>
<path d="M669.379 487.515C668.754 486.114 668.065 484.638 667.169 484.317C666.93 484.232 666.682 484.232 666.449 484.084C665.829 483.687 665.457 482.331 665.272 481.009C665.253 480.873 665.235 480.727 665.254 480.592C665.274 480.449 665.331 480.343 665.392 480.271C665.623 479.999 665.92 480.135 666.142 480.436C666.365 480.737 666.533 481.182 666.717 481.583C667.205 482.65 667.804 483.446 668.349 484.38C668.893 485.314 669.402 486.448 669.379 487.515Z" fill="#602A02"/>
<path d="M670.031 482.507C669.913 480.047 670.503 477.497 671.491 476.194C671.572 476.086 671.663 475.983 671.759 476.003C671.939 476.038 672.037 476.465 672.082 476.837C672.357 479.133 671.87 481.749 670.93 483.022C670.561 483.524 670.095 483.838 670.031 482.507Z" fill="#602A02"/>
<path d="M667.64 508.986C668.232 506.536 668.845 504.03 669.798 502.168C670.05 501.678 670.385 501.211 670.709 501.435C671.047 501.668 671.187 502.587 671.093 503.312C670.998 504.04 670.736 504.605 670.476 505.115C669.837 506.357 669.143 507.472 668.406 508.433C668.82 508.355 669.237 508.315 669.653 508.315C669.795 508.315 669.943 508.323 670.064 508.478C670.3 508.782 670.319 509.548 670.17 510.04C670.021 510.534 669.758 510.813 669.502 511.026C668.835 511.584 668.12 511.88 667.64 508.981V508.986Z" fill="#602A02"/>
<path d="M654.552 502.494C654.328 499.798 654.649 497.037 655.046 494.431C655.338 492.521 655.764 490.437 656.642 489.702C656.936 489.456 657.281 489.398 657.559 489.717C657.92 490.133 658.077 491.102 658.04 491.973C658.002 492.845 657.809 493.645 657.615 494.418C657.015 496.821 656.364 499.248 655.384 500.993C655.804 499.856 656.353 498.934 656.97 498.329C657.306 498.001 657.721 497.777 658.029 498.216C658.377 498.714 658.401 499.805 658.27 500.654C658.014 502.321 657.346 503.551 656.638 504.447C655.93 505.341 654.856 506.162 654.551 502.494H654.552Z" fill="#602A02"/>
<path d="M633.097 509.149C632.133 505.649 632.081 501.091 632.965 497.496C633.07 497.067 633.238 496.592 633.465 496.645C633.568 496.668 633.657 496.801 633.729 496.956C634.134 497.825 634.057 499.246 633.929 500.436C633.603 503.466 633.125 506.508 633.096 509.149H633.097Z" fill="#602A02"/>
<path d="M630.775 505.88C629.801 507.218 628.501 507.409 627.451 506.362C627.201 506.114 626.959 505.79 626.786 505.331C626.614 504.871 626.517 504.256 626.577 503.681C626.606 503.415 626.672 503.154 626.784 503.021C626.861 502.931 626.95 502.908 627.037 502.893C628.596 502.612 630.202 503.747 630.775 505.878V505.88Z" fill="#602A02"/>
<path d="M637.705 517.126C637.255 513.795 637.208 510.223 637.567 506.842C637.614 506.395 637.671 505.941 637.793 505.567C637.916 505.19 638.119 504.904 638.334 504.934C638.565 504.964 638.757 505.356 638.849 505.808C638.941 506.259 638.951 506.764 638.953 507.256C638.973 511.192 638.629 515.088 637.704 517.129L637.705 517.126Z" fill="#602A02"/>
<path d="M638.524 510.675C638.972 508.933 639.778 507.625 640.686 507.163C640.751 507.131 640.828 507.108 640.877 507.206C640.923 507.299 640.921 507.454 640.913 507.587C640.766 510.058 639.718 512.146 638.524 510.675Z" fill="#602A02"/>
<path d="M647 539.393C645.593 540.264 644.104 540.535 642.648 540.183C641.975 540.02 641.3 539.719 640.696 539.064C640.4 538.742 640.113 538.313 639.956 537.691C639.798 537.068 639.805 536.217 640.043 535.723C640.258 535.276 640.59 535.228 640.891 535.208C641.559 535.163 642.236 535.12 642.883 535.472C644.128 536.149 645.122 538.208 646.999 539.39L647 539.393Z" fill="#602A02"/>
<path d="M647.838 534.708C647.55 534.583 647.322 534.076 647.209 533.498C647.095 532.921 647.08 532.278 647.088 531.651C647.12 529.394 647.448 527.157 648.028 525.265C648.138 524.901 648.279 524.522 648.48 524.441C648.68 524.361 648.884 524.622 649 524.979C649.116 525.338 649.158 525.777 649.188 526.206C649.402 529.281 649.084 532.509 647.839 534.708H647.838Z" fill="#602A02"/>
<path d="M642.267 537.736C641.572 537.568 640.895 536.917 640.409 535.845C639.923 534.774 639.641 533.272 639.691 531.786C639.705 531.365 639.753 530.913 639.903 530.634C640.057 530.35 640.288 530.315 640.48 530.458C640.672 530.604 640.831 530.9 640.965 531.224C641.619 532.788 641.822 534.979 642.265 537.736H642.267Z" fill="#602A02"/>
<path d="M644.443 527.07C643.544 524.424 643.278 520.854 643.75 517.746C643.879 516.9 644.17 515.944 644.584 516.055C644.996 516.165 645.171 517.232 645.197 518.115C645.288 521.108 644.732 524.062 644.442 527.07H644.443Z" fill="#602A02"/>
<path d="M652.771 544.36C652.436 543.16 652.095 541.928 651.978 540.555C651.89 539.523 651.933 538.461 651.989 537.419C652.061 536.084 652.155 534.741 652.375 533.481C652.401 533.33 652.453 533.149 652.527 533.18C652.56 533.192 652.585 533.247 652.607 533.298C653.258 534.781 653.432 536.958 653.388 538.986C653.346 541.014 653.118 543.01 652.77 544.358L652.771 544.36Z" fill="#602A02"/>
<path d="M656.206 558.867C655.677 557.08 655.097 555.197 654.192 554.334C653.223 553.41 652.029 553.812 651.133 552.599C650.777 552.117 650.498 551.414 650.161 550.872C649.823 550.33 649.38 549.948 648.981 550.249C648.805 550.382 648.636 550.719 648.66 551.113C648.673 551.319 648.735 551.495 648.797 551.655C649.101 552.456 649.44 553.197 649.88 553.603C648.666 552.564 647.33 552.177 646.031 552.491C645.722 552.566 645.349 552.81 645.293 553.46C645.252 553.947 645.423 554.401 645.607 554.703C646.604 556.339 648.13 555.719 649.213 556.987C648.528 557.218 647.88 557.946 647.406 559.025C647.285 559.299 647.171 559.628 647.179 560.002C647.191 560.527 647.456 560.893 647.703 560.898C647.949 560.903 648.18 560.642 648.397 560.391C649.009 559.681 649.622 558.968 650.234 558.257C650.792 557.61 651.39 556.942 652.024 557.052C652.927 557.21 653.592 558.867 654.408 559.711C654.606 559.917 654.822 560.077 655.043 560.06C655.583 560.019 655.977 558.975 656.207 558.867H656.206Z" fill="#602A02"/>
<path d="M656.722 529.276C656.224 526.931 656.155 524.245 656.355 521.708C656.554 519.17 657.008 516.752 657.52 514.423C657.769 513.288 658.16 511.995 658.749 512.038C658.912 515.557 657.921 518.831 657.669 522.328C657.995 520.603 658.713 519.235 659.556 518.738C659.922 518.522 660.43 518.635 660.52 519.418C660.563 519.792 660.486 520.176 660.403 520.518C660.06 521.951 659.6 523.256 659.049 524.358C659.536 524.517 660.015 524.78 660.476 525.147C660.585 525.232 660.698 525.335 660.763 525.536C660.899 525.957 660.753 526.525 660.6 526.919C659.793 529.012 658.693 530.589 656.72 529.274L656.722 529.276Z" fill="#602A02"/>
<path d="M647.344 503.47C646.831 503.267 646.583 502.035 646.448 500.96C646.258 499.464 646.116 497.915 646.188 496.374C646.226 495.576 646.382 494.652 646.747 494.456C646.882 494.383 647.027 494.428 647.157 494.539C647.514 494.84 647.75 495.596 647.855 496.384C647.96 497.172 647.956 498.003 647.967 498.819C647.99 500.328 648.074 501.831 647.344 503.47Z" fill="#602A02"/>
<path d="M666.634 534.716C667.847 533.466 668.99 531.658 669.611 529.113C669.825 528.234 669.972 527.291 670.187 526.414C670.403 525.538 670.702 524.71 671.124 524.291C671.713 525.777 671.53 528.061 671.097 529.773C670.228 533.215 668.453 535.534 666.634 534.716Z" fill="#602A02"/>
<path d="M670.62 529.946C671.226 528.222 671.848 526.465 672.684 525.25C672.868 524.981 673.067 524.738 673.288 524.665C673.508 524.592 673.755 524.72 673.896 525.086C674.035 525.45 674.045 525.965 674.018 526.429C673.913 528.177 673.34 529.703 672.616 530.561C671.893 531.42 671.036 531.668 670.619 529.944L670.62 529.946Z" fill="#602A02"/>
<path d="M670.906 543.248C670.649 542.239 670.39 541.212 670.273 540.09C670.157 538.968 670.202 537.721 670.516 536.787C670.659 536.363 670.86 536.011 671.094 535.863C671.329 535.715 671.602 535.798 671.791 536.134C672.104 536.697 672.097 537.713 672.05 538.582C671.96 540.201 671.824 541.81 670.906 543.248Z" fill="#602A02"/>
<path d="M671.669 552.913C672.685 551.823 673.428 549.652 673.603 547.262C673.636 546.81 673.65 546.346 673.722 545.914C673.793 545.482 673.935 545.071 674.137 544.925C674.44 544.707 674.781 545.166 674.908 545.789C675.036 546.411 674.995 547.132 674.908 547.782C674.647 549.707 674.009 551.279 673.387 552.785C673.114 553.445 672.825 554.133 671.669 552.915V552.913Z" fill="#602A02"/>
<path d="M664.302 519.064C663.488 519.72 662.568 519.76 661.74 519.177C661.269 518.846 660.808 518.271 660.566 517.35C660.325 516.426 660.38 515.106 660.783 514.493C661.223 513.823 661.851 514.23 662.284 514.92C662.716 515.61 663.06 516.559 663.535 517.104C663.985 517.618 664.53 517.744 664.302 519.064Z" fill="#602A02"/>
<path d="M667.985 495.872C668.377 493.751 668.884 491.391 669.9 490.676C670.681 490.126 671.525 490.736 672.347 490.799C674.046 490.927 675.71 488.379 676.194 484.91C676.371 483.639 676.412 482.239 676.769 481.154C677.125 480.067 677.99 479.593 678.342 480.685C678.525 481.252 678.497 482.013 678.427 482.683C678.159 485.226 677.393 487.422 676.497 489.205C676.017 490.159 675.486 491.027 674.876 491.542C673.294 492.872 671.222 491.84 670.058 494.481C669.717 495.257 669.506 496.266 669.144 496.999C668.781 497.73 668.155 498.083 667.985 495.874V495.872Z" fill="#602A02"/>
<path d="M674.004 490.774C673.629 489.089 673.547 487.116 673.78 485.321C673.87 484.623 674.017 483.923 674.282 483.469C674.352 483.351 674.434 483.245 674.524 483.25C674.713 483.26 674.817 483.715 674.871 484.101C675.209 486.516 675.283 489.097 674.004 490.774Z" fill="#602A02"/>
<path d="M677.09 486.647C678.974 483.81 679.976 478.875 681.862 476.041C682.052 479.003 681.323 481.962 680.289 483.991C679.255 486.019 677.948 487.274 677.09 486.647Z" fill="#602A02"/>
<path d="M653.52 517.95C652.783 518.341 652.031 518.605 651.275 518.743C650.261 518.926 649.202 518.861 648.287 517.917C647.373 516.973 646.64 514.97 646.705 512.811C646.715 512.45 646.75 512.081 646.847 511.785C647.013 511.282 647.328 511.092 647.614 511.139C648.141 511.227 648.623 512.056 648.773 513.135C648.869 513.823 648.864 514.669 649.137 515.088C649.298 515.337 649.511 515.349 649.71 515.354C650.159 515.364 650.616 515.369 651.041 515.06C651.245 514.91 651.441 514.686 651.655 514.619C652.238 514.43 652.747 515.399 653.52 517.952V517.95Z" fill="#602A02"/>
<path d="M668.451 502.507C667.624 502.953 666.785 502.01 666.05 501.088C665.288 500.134 664.521 499.155 663.899 497.817C663.277 496.482 662.806 494.73 662.776 492.852C662.766 492.147 662.892 491.266 663.221 491.18C663.476 491.112 663.686 491.574 663.849 491.994C664.224 492.958 664.601 493.919 664.976 494.883C665.666 496.655 666.42 498.515 667.458 499.163C667.611 499.258 667.77 499.326 667.913 499.482C668.381 499.986 668.541 501.219 668.451 502.507Z" fill="#602A02"/>
<path d="M665.272 497.255C664.472 495.568 664.11 492.993 664.343 490.648C664.395 490.128 664.542 489.513 664.791 489.541C664.889 489.553 664.976 489.669 665.053 489.797C665.363 490.327 665.551 491.165 665.548 492.011C665.546 492.799 665.389 493.547 665.336 494.328C665.258 495.478 665.417 496.69 665.272 497.253V497.255Z" fill="#602A02"/>
<path d="M726.621 422.6C725.923 419.409 725.155 416.475 724.746 413.271C724.274 409.571 724.305 405.69 724.191 401.87C724.076 398.052 723.786 394.093 722.779 390.915C722.24 389.409 721.547 388.867 720.882 389.002C720.216 389.138 719.592 389.948 719.228 391.148C719.136 394.269 719.488 397.351 720.134 400.175C719.414 397.728 718.631 395.303 717.848 392.881C717.737 392.537 717.61 392.168 717.422 392.07C717.244 391.977 717.065 392.158 716.905 392.346C716.315 393.056 715.787 393.995 715.35 395.102C714.772 394.083 713.981 394.412 713.544 395.436C713.106 396.463 713 398.022 713.167 399.382C713.336 400.745 713.746 401.925 714.23 402.881C713.875 404.192 713.971 406.047 714.229 407.741C714.486 409.436 714.898 411.005 715.308 412.561C713.782 408.838 712.465 405.48 711.291 401.905C711.017 401.072 710.688 400.143 710.218 400.06C709.737 399.975 709.322 400.898 709.219 401.91C709.116 402.924 709.254 403.981 709.425 404.96C709.93 407.849 710.727 410.46 711.516 413.043C711.176 412.993 710.839 413.477 710.732 414.17C709.805 409.581 708.643 405.173 707.331 400.979C707.071 400.148 706.792 399.299 706.388 398.805C705.81 398.097 705.026 398.315 704.561 399.312C704.096 400.308 703.989 401.998 704.314 403.248C704.452 403.78 704.662 404.262 704.695 404.865C704.729 405.467 704.428 406.152 704.193 405.813C703.976 405.357 703.758 404.9 703.541 404.445C702.977 404.122 702.577 404.877 702.512 405.716C702.447 406.556 702.614 407.4 702.793 408.166C703.075 409.376 703.391 410.54 703.732 411.67C703.607 411.77 703.486 411.898 703.377 412.054C703.033 409.694 702.63 407.402 701.935 405.465C700.98 405.869 700.146 406.496 699.897 408.035C699.683 409.355 699.996 410.791 700.3 412.041C701.145 415.513 701.99 418.985 702.835 422.459C701.467 420.232 700.777 417.358 700.167 414.612C699.556 411.868 698.913 408.971 697.752 407.237C696.87 407.237 696.098 407.39 695.452 408.178C694.805 408.966 694.314 410.558 694.464 412.144C694.575 413.322 694.998 414.235 695.393 415.091C697.348 419.321 699.109 423.97 700.641 428.946C700.785 428.059 700.953 427.193 701.142 426.347C701.279 425.737 701.44 425.107 701.714 424.774C701.988 424.44 702.35 424.58 702.478 425.278C702.702 426.498 702.646 427.934 702.331 429.039C702.016 430.143 701.45 430.891 700.847 430.997C700.691 431.024 700.494 430.954 700.444 430.63C700.42 430.472 700.441 430.301 700.462 430.143C700.507 429.817 700.591 429.267 700.641 428.946C698.923 424.663 697.032 420.86 695.056 417.13C694.581 418.016 694.097 418.925 693.783 420.099C693.469 421.274 693.35 422.783 693.637 424.01C693.802 424.718 694.084 425.266 694.359 425.793C696.298 429.513 698.237 433.233 700.175 436.953C700.016 439.968 700.599 442.938 701.432 445.398C702.266 447.858 703.341 449.881 704.407 451.882C707.294 457.302 710.181 462.721 713.068 468.139C712.936 471.427 713.763 472.225 714.542 472.26C715.319 472.296 716.068 471.708 716.793 471.128C717.908 470.24 719.023 469.348 720.139 468.46C720.721 467.995 721.375 467.375 721.559 466.093C721.695 465.144 721.533 464.024 721.76 463.163C722.034 462.126 722.697 462.029 723.181 461.446C724.178 460.246 724.254 457.302 724.442 454.864C724.947 448.3 727.037 442.893 728.06 436.632C728.531 433.755 728.771 430.723 729.01 427.711C729.101 426.558 729.183 425.293 728.91 424.274C728.482 422.687 727.466 422.547 726.621 422.602M698.81 412.37C698.704 413.013 698.415 413.49 698.099 413.548C697.71 413.618 697.353 413.116 697.001 412.739C696.585 412.292 696.133 412.001 695.674 411.883C695.453 411.826 695.193 411.76 695.084 411.341C694.979 410.937 695.08 410.437 695.197 410.056C695.556 408.881 696.103 407.915 696.75 407.699C697.396 407.483 697.788 408.665 698.612 410.462C698.837 410.954 698.917 411.728 698.81 412.37ZM695.344 419.494C695.15 420.456 694.838 421.302 694.449 421.924C694.318 422.135 694.133 422.318 693.997 422.11C693.873 421.917 693.878 421.525 693.84 421.38C694.131 420.436 694.497 419.602 694.918 418.925C694.983 418.819 695.052 418.716 695.132 418.679C695.211 418.641 695.305 418.679 695.355 418.822C695.422 419.01 695.388 419.281 695.344 419.497M703.368 435.969C702.899 438.121 701.78 439.511 700.674 439.318C700.543 439.295 700.391 439.218 700.338 438.957C700.299 438.766 700.331 438.545 700.365 438.352C700.606 436.989 700.956 435.721 701.398 434.621C701.644 434.006 701.93 433.429 702.282 433.135C702.634 432.842 703.067 432.879 703.364 433.401C703.66 433.923 703.621 434.81 703.368 435.967M701.925 407.535C701.42 408.075 700.892 408.512 700.349 408.838C700.265 408.889 700.148 408.906 700.115 408.728C700.088 408.587 700.142 408.442 700.193 408.336C700.553 407.598 700.971 406.993 701.419 406.531C701.524 406.423 701.635 406.321 701.752 406.315C701.869 406.31 701.995 406.426 702.047 406.654C702.099 406.883 702.095 407.352 701.925 407.533M706.23 400.446C705.859 401.039 705.457 401.541 705.032 401.938C704.867 402.091 704.653 402.211 704.524 401.938C704.406 401.692 704.433 401.272 704.498 400.951C704.678 400.057 705.075 399.445 705.498 399.103C705.717 398.928 705.963 398.815 706.184 398.993C706.405 399.174 706.608 399.839 706.23 400.444M712.231 414.896C712.235 415.31 712.151 415.714 712.015 416.003C711.88 416.291 711.696 416.462 711.506 416.51C711.396 416.537 711.279 416.52 711.181 416.404C711.084 416.291 711.012 416.088 710.971 415.867C710.848 415.204 710.99 414.436 711.217 413.927C711.333 413.666 711.48 413.442 711.648 413.412C711.81 413.382 711.978 413.548 712.074 413.834C712.171 414.12 712.229 414.504 712.231 414.898M710.667 401.556C710.453 401.953 710.215 402.289 709.96 402.548C709.899 402.61 709.831 402.671 709.765 402.635C709.705 402.605 709.657 402.502 709.625 402.384C709.528 402.028 709.566 401.548 709.692 401.242C709.817 400.936 710.014 400.795 710.204 400.8C710.395 400.805 710.581 400.943 710.666 401.553M717.176 404.767C717.112 405.206 716.934 405.575 716.883 405.05C716.227 405.407 715.526 405.392 714.87 405.005C714.722 404.92 714.557 404.769 714.516 404.453C714.484 404.209 714.539 403.956 714.603 403.745C714.768 403.203 714.997 402.756 715.264 402.457C715.572 402.113 715.933 401.968 716.275 402.123C716.617 402.279 716.935 402.748 717.098 403.419C717.198 403.83 717.238 404.325 717.176 404.764M715.783 396.917C715.783 397.336 715.735 397.791 715.629 397.924C715.181 398.491 714.639 398.707 714.123 398.516C713.914 398.438 713.686 398.258 713.594 397.841C713.518 397.492 713.562 397.073 713.646 396.734C713.806 396.091 714.108 395.622 714.442 395.496C714.682 395.406 714.929 395.486 715.171 395.564C715.301 395.607 715.435 395.652 715.545 395.812C715.708 396.048 715.783 396.495 715.783 396.917ZM717.524 393.229C717.356 394.143 716.953 394.831 716.501 394.972C716.381 395.009 716.228 394.969 716.184 394.723C716.15 394.532 716.206 394.326 716.262 394.166C716.478 393.556 716.763 393.061 717.085 392.732C717.176 392.64 717.277 392.559 717.374 392.617C717.472 392.675 717.576 392.948 717.524 393.232M719.529 391.778C719.52 391.495 719.639 391.281 719.749 391.131C720.227 390.476 720.766 390.026 721.327 389.82C721.581 389.728 721.879 389.715 722.057 390.122C722.23 390.516 722.214 391.128 722.211 391.156C721.556 392.165 720.717 392.607 719.913 392.366C719.744 392.316 719.539 392.145 719.529 391.781M728.275 425.823C727.868 426.325 727.43 426.754 726.963 426.875C726.495 426.995 725.989 426.767 725.633 426.086C725.444 425.725 725.299 425.127 725.414 424.651C725.499 424.302 725.689 424.153 725.864 424.033C726.074 423.887 726.284 423.744 726.494 423.599C726.815 423.378 727.141 423.154 727.478 423.147C727.816 423.139 728.173 423.383 728.39 423.948C728.607 424.512 728.623 425.391 728.275 425.82" fill="#602A02"/>
<path d="M181.724 831.819C179.773 831.619 177.848 830.037 176.233 827.306C175.004 825.227 173.885 822.065 173.922 818.372C174.82 817.674 175.758 819.057 176.465 820.601C177.171 822.142 177.856 823.987 178.775 824.472C177.797 823.538 177.128 821.299 176.596 819.057C175.102 812.769 174.245 805.552 174.126 798.255C174.056 793.959 174.273 789.403 175.308 785.959C175.477 785.397 175.712 784.822 175.994 784.882C176.433 784.978 176.566 786.401 176.567 787.496C176.573 792.124 176.296 796.738 176.342 801.367C176.388 805.994 176.799 810.806 177.995 814.355C177.382 813.148 177.088 811.18 177.114 809.247C177.138 807.367 178.221 807.098 178.399 808.928L179.333 818.578C179.531 820.626 179.902 823.081 180.743 823.347C181.423 818.859 181.513 813.833 180.995 809.214C180.92 808.554 180.837 807.831 180.951 807.209C181.114 806.33 181.613 806.134 181.963 806.548C182.314 806.963 182.55 807.796 182.769 808.594C183.355 803.719 183.606 798.596 183.509 793.513C183.413 788.427 182.971 783.326 183.269 778.288C184.099 778.978 184.634 780.966 185.017 782.922C187.249 794.281 186.439 807.939 184.657 819.778C187.462 816.216 189.474 809.041 189.847 801.264C189.912 799.909 190.143 798.079 190.686 798.28C191.009 798.4 191.196 799.254 191.281 800.037C191.623 803.165 191.157 806.493 190.526 809.33C189.893 812.166 189.085 814.792 188.655 817.852C192.434 809.885 194.632 797.491 194.451 785.184C194.429 783.67 194.47 781.749 195.039 781.205C195.41 780.851 195.844 781.353 196.083 782.141C196.323 782.929 196.41 783.933 196.472 784.91C196.958 792.624 196.256 800.672 194.737 807.507C193.218 814.343 190.913 819.999 188.272 824.226C187.802 824.979 187.295 825.757 187.058 827.017C187.901 828.323 189.248 824.981 189.867 826.914C190.241 828.082 189.799 829.766 189.33 830.7C187.213 834.915 184.067 835.623 181.725 831.824" fill="#602A02"/>
<path d="M195.727 793.081C196.237 789.007 196.816 784.985 197.464 781.031C197.499 780.818 197.552 780.57 197.645 780.557C197.687 780.552 197.727 780.6 197.763 780.652C198.133 781.18 198.351 782.216 198.414 783.266C198.476 784.315 198.401 785.382 198.302 786.413C198.155 787.925 197.956 789.406 197.706 790.832C197.54 791.77 197.346 792.712 197.031 793.374C196.679 794.113 196.218 794.421 195.726 793.081" fill="#602A02"/>
<path d="M185.283 791.135C185.607 787.849 185.763 784.461 185.748 781.079C185.744 780.432 185.736 779.766 185.822 779.154C185.908 778.541 186.112 777.984 186.372 777.919C186.562 777.871 186.748 778.094 186.898 778.391C187.325 779.232 187.518 780.65 187.515 782.003C187.513 783.356 187.339 784.671 187.148 785.939C186.821 788.108 186.416 790.287 185.283 791.135Z" fill="#602A02"/>
<path d="M186.572 783.296C187.082 782.791 187.451 781.684 187.762 780.56C188.071 779.435 188.352 778.228 188.772 777.351C188.885 777.115 189.03 776.892 189.173 776.987C189.256 777.043 189.322 777.193 189.372 777.364C189.634 778.26 189.479 779.52 189.277 780.507C189.005 781.832 188.65 783.102 188.146 783.903C187.643 784.707 186.968 784.96 186.573 783.293" fill="#602A02"/>
<path d="M175.446 806.014C174.765 806.646 173.957 806.33 173.387 805.208C172.864 804.179 172.569 802.61 172.311 801.079C172.057 799.575 171.819 798.024 171.768 796.397C171.737 795.431 171.845 794.223 172.222 793.977C172.447 793.832 172.679 794.103 172.869 794.429C173.25 795.087 173.558 796.005 173.748 797.057C173.957 798.214 174.022 799.497 174.201 800.685C174.495 802.635 175.104 804.282 175.446 806.011" fill="#602A02"/>
<path d="M175.594 793.949C176.306 792.132 176.807 789.805 177.019 787.322C177.098 786.393 177.141 785.424 177.319 784.586C177.497 783.747 177.858 783.052 178.235 783.203C178.535 783.326 178.766 783.946 178.907 784.616C179.127 785.663 179.184 786.913 179.064 788.055C178.885 789.765 178.344 791.09 177.773 792.144C177.203 793.199 176.574 794.087 175.594 793.947" fill="#602A02"/>
<path d="M193.135 807.879C194.673 806.764 195.484 802.635 196.775 800.283C196.968 799.931 197.179 799.612 197.415 799.515C197.651 799.417 197.918 799.58 198.064 800.049C198.229 800.576 198.207 801.324 198.147 801.975C197.78 805.943 196.39 808.74 195.069 811.147C194.769 811.694 194.449 812.259 194.078 812.357C193.465 812.518 192.903 811.303 193.134 807.879" fill="#602A02"/>
<path fill-rule="evenodd" clip-rule="evenodd" d="M767 971.341V308.844C762.273 305.927 755.659 310.875 749.828 319.001C742.078 329.8 735.814 347.387 735.59 367.087C735.489 375.954 736.586 384.546 737.686 393.159C738.264 397.691 738.844 402.23 739.25 406.818C740.426 420.122 739.644 436.007 734.453 443.839C731.985 447.561 728.95 448.804 725.92 450.044C722.763 451.336 719.611 452.625 717.112 456.717C712.999 463.449 712.153 474.78 711.305 486.125C710.977 490.52 710.648 494.917 710.13 499.05C706.682 526.518 691.938 545.026 678.969 538.163C677.554 539.754 676.094 541.323 674.619 542.909C665.506 552.708 655.802 563.143 652.502 583.195C651.658 588.322 651.292 593.849 650.928 599.34C650.342 608.201 649.761 616.968 647.188 623.813C644.02 632.236 638.99 634.853 633.901 637.5C629.558 639.759 625.171 642.041 621.862 647.975C617.596 655.626 616.105 667.345 614.603 679.15C613.25 689.788 611.888 700.495 608.478 708.357C607.005 712.243 605.659 715.109 604.418 717.195C601.093 722.791 598.527 722.788 596.318 721.834C595.623 721.534 594.925 721.171 594.227 720.806C591.874 719.579 589.508 718.345 587.185 719.51C584.65 720.782 582.571 724.707 580.529 728.562C577.995 733.346 575.519 738.021 572.301 737.386C570.57 737.042 569.052 735.133 567.533 733.223C566.942 732.479 566.35 731.734 565.745 731.082C562.114 727.164 558.168 726.647 554.178 728.02C549.154 729.747 544.061 734.474 539.439 739.191C536.541 752.982 532.324 755.028 529.032 753.21C527.127 752.158 525.38 750.214 523.63 748.267C522.354 746.847 521.077 745.426 519.736 744.347C516.554 741.784 512.442 741.706 510.299 747.326C507.984 738.952 505.669 730.578 503.354 722.201C505.877 705.761 507.32 695.296 506.962 684.69C506.606 674.082 504.056 663.137 499.483 658.839C498.517 657.931 497.461 657.296 496.409 656.664C494.166 655.316 491.945 653.981 490.664 650.038C488.545 643.507 490.504 635.353 492.292 627.911C492.583 626.701 492.869 625.509 493.133 624.345C497.095 606.874 495.281 584.254 488.819 570.565C485.042 579.746 478.232 580.324 470.643 580.967C463.536 581.57 455.746 582.231 449.123 590.068C448.292 591.051 447.479 592.148 446.666 593.244C444.516 596.145 442.365 599.046 439.879 599.855C436.453 600.97 432.248 595.304 432.986 588.1C425.421 596.404 418.54 607.527 412.752 620.808C410.802 628.138 407.897 632.228 404.999 636.307C403.878 637.886 402.757 639.464 401.693 641.227C397.882 647.545 394.832 656.67 394.46 666.92C394.197 674.209 395.276 681.25 396.353 688.275C396.711 690.612 397.069 692.947 397.377 695.288C398.611 704.672 398.84 715.975 395.615 722.894C393.938 726.492 391.571 728.363 389.242 730.202C386.238 732.575 383.298 734.897 381.992 740.812C381.293 743.978 381.246 747.59 381.211 751.084C381.112 760.949 381.013 770.814 380.914 780.679C380.813 790.801 380.712 800.923 380.61 811.045C380.587 813.331 380.564 815.617 380.541 817.904C380.519 820.129 380.497 822.355 380.474 824.58C380.133 840.972 377.208 847.391 374.169 848.684C372.171 849.535 370.138 849.003 368.1 848.47C367.038 848.192 365.975 847.914 364.914 847.83C361.816 847.587 358.215 849.874 357.126 856.046C356.181 861.396 357.483 866.54 358.82 871.827C359.653 875.119 360.5 878.466 360.829 881.955C361.805 892.315 357.866 902.266 353.323 906.525C350.166 909.487 346.735 910.535 343.302 911.584C341.793 912.045 340.284 912.506 338.797 913.13C333.925 915.173 328.802 919.792 326.578 929.238C315.88 903.619 301.54 893.839 288.446 899.527C287.124 900.101 285.779 900.814 284.425 901.532C279.012 904.4 273.465 907.34 268.741 901.796C266.825 899.544 265.337 896.168 263.926 892.573C263.604 891.754 263.287 890.923 262.969 890.091C262.022 887.614 261.073 885.13 260.011 882.921C254.255 870.937 244.778 867.993 237.651 875.973C227.757 858.464 218.3 844.037 207.734 845.654C207.228 845.731 206.713 845.842 206.195 845.953C203.763 846.476 201.261 847.014 199.274 844.22C198.125 842.605 197.359 840.128 196.592 837.65C196.298 836.698 196.003 835.746 195.686 834.842C192.591 826.001 186.894 821.693 181.871 824.399C168.849 800.936 163.4 761.09 170.05 730.894C168.814 730.364 167.579 729.835 166.345 729.305C167.81 719.254 162.89 707.784 158.052 709.973C157.582 691.957 155.257 674.169 151.289 658.222C149.443 648.979 145.835 646.83 143.171 648.499C141.746 649.393 140.452 650.967 139.157 652.542C138.03 653.912 136.902 655.284 135.686 656.211C133.071 658.204 129.468 657.069 128.531 651.507C128.309 650.187 128.265 648.76 128.222 647.34C128.167 645.564 128.113 643.799 127.71 642.269C126.877 639.098 124.83 638.25 123.18 639.196C121.921 639.919 120.811 641.421 119.704 642.92C119.361 643.385 119.018 643.849 118.671 644.29C112.053 652.694 103.167 652.204 96.7612 643.085C95.0093 644.576 93.0232 645.196 90.9699 645.837C89.383 646.333 87.756 646.841 86.166 647.774C82.5198 649.91 79.0293 654.619 77.3679 661.851C74.5807 673.974 77.6263 688.229 80.6259 700.121C79.0865 704.106 77.5472 708.09 76.0079 712.075C74.4686 716.059 72.9293 720.043 71.39 724.028C58.6731 723.785 53.1094 722.839 47.5469 721.892C45.1893 715.905 42.8316 709.918 40.474 703.934C33.345 689.958 30.881 673.893 28.4173 657.831L28.4168 657.827C27.8468 654.112 27.2167 650.204 25.8184 647.671C24.4189 645.141 21.9928 644.759 20.919 647.93C20.3769 634.182 19.8337 620.437 19.2904 606.689L19.1644 603.5C18.121 595.262 17.4382 588.205 16.8317 581.937C15.9635 572.964 15.2516 565.606 13.8615 558.704C12.6567 552.722 10.9728 547.242 9.2984 541.798C6.19972 531.721 3.09986 521.645 0 511.569V971.341V973V1457.59H767V973V971.341Z" fill="#602A02"/>
<path d="M767 1154.08V1390.36C766.785 1391.24 766.569 1392.12 766.353 1393H0V1008.16C1.68976 1017.38 3.6698 1026.3 5.92478 1034.84C8.42402 1044.31 11.2891 1053.46 12.7735 1064.01C14.2591 1074.56 14.1104 1087.15 10.9823 1095.56C15.7436 1112.78 20.5037 1130 25.265 1147.22C26.9595 1153.34 28.6893 1159.68 29.2357 1166.84C29.8894 1175.4 28.7767 1184.3 29.4292 1192.86C30.0817 1201.43 33.9675 1209.95 37.2915 1205.87C36.1823 1232.89 44.0494 1260.47 58.9516 1266.57C57.8448 1275.98 58.1032 1286.69 60.5635 1294.61C63.0238 1302.53 67.994 1306.51 71.7145 1301.91C74.3152 1298.7 75.8174 1292.32 77.7337 1287.14C79.65 1281.96 82.7357 1277.58 85.432 1280.34C88.9283 1283.92 88.8658 1295.99 91.7202 1301.86C94.4519 1307.49 98.6492 1305.49 102.248 1303.97C116.355 1298.05 131.44 1305.74 150.848 1324.91C152.909 1318.4 157.469 1322.31 159.924 1328.05C162.38 1333.78 164.802 1341.44 168.293 1341.3C169.827 1341.25 171.252 1339.6 172.726 1338.61C178.683 1334.63 185.673 1343.22 194.44 1357.68C198.49 1346.35 202.707 1334.71 208.386 1328.11C214.063 1321.5 221.642 1321.25 226.189 1331.52C236.107 1327.36 246.026 1323.21 260.109 1318.8C261.381 1314.42 262.654 1310.03 263.926 1305.64C267.557 1293.13 271.189 1280.61 274.82 1268.09C276.124 1263.59 277.485 1258.96 279.466 1256.07C284.179 1249.2 291.447 1253.39 294.9 1243.28C297.838 1234.67 295.838 1221.64 297.604 1211.47C299.456 1200.81 304.775 1196.22 309.521 1192.8C319.981 1185.27 331.001 1177.66 346.526 1185.08C352.861 1190.07 358.849 1197.41 364.193 1206.73C363.959 1211.8 363.724 1216.87 363.491 1221.94C368.505 1215.79 374.414 1214.07 380.61 1217.09C385.678 1219.56 390.938 1225.2 396.054 1234.18C401.781 1244.5 405.898 1259.5 407.502 1275.86C411.813 1276.88 416.123 1277.9 420.434 1278.92C418.832 1285.66 417.23 1292.4 415.629 1299.14C421.333 1291.39 429.865 1301.66 430.379 1316.91C430.587 1323.08 429.71 1329.48 430.541 1335.36C431.37 1341.24 435.368 1344.81 439.941 1339.8C449.312 1342 459.006 1335.77 466.541 1322.71C464.933 1328.54 467.53 1336.46 470.466 1337.77C473.402 1339.07 476.346 1336.29 479.25 1334.66C486.731 1330.44 494.972 1334.06 504.2 1337.12C509.435 1334.37 514.802 1331.49 519.27 1324.6C523.736 1317.71 527.173 1305.83 526.575 1293.51C526.311 1288.05 525.29 1282.88 525.109 1277.41C524.763 1266.9 527.629 1256.95 531.348 1250.86C535.067 1244.77 539.555 1241.83 543.945 1238.99C537.127 1217.01 541.71 1181.35 554.955 1162.62C554.696 1150.71 554.437 1138.81 554.178 1126.91C554.096 1123.15 554.014 1119.4 553.932 1115.64C558.859 1108.96 564.573 1105.42 570.286 1105.52C572.556 1090.48 581.46 1086.8 587.926 1092.32C593.952 1097.45 598.824 1107.86 604.418 1115.16C604.826 1115.69 605.237 1116.2 605.653 1116.7C622.765 1137.08 644.977 1121.67 664.747 1152.89C673.938 1129.48 686.579 1113.43 700.061 1108.08C700.64 1125.08 709.142 1137.94 713.968 1135.26C713.154 1152.39 712.341 1169.53 711.527 1186.67C711.308 1191.29 711.308 1196.99 713.046 1199.33C715.842 1203.1 719.426 1193.52 722.339 1196.78C725.54 1200.36 723.169 1211.61 723.749 1219.72C724.439 1229.36 730.237 1233.45 733.84 1228.32C737.442 1223.19 738.8 1212.26 738.325 1202.54C737.973 1195.38 736.812 1188.54 736.449 1181.39C736.085 1174.23 736.729 1166.11 739.223 1161.78C740.881 1158.91 743.044 1158.23 745.102 1157.65C752.507 1155.54 759.912 1153.44 767 1154.08Z" fill="#4A2002"/>
<path d="M695.612 1125.2C693.448 1117.11 691.251 1108.92 688.272 1102.36C685.292 1095.79 681.391 1090.93 677.275 1091C675.443 1091.02 673.505 1091.97 671.847 1090.17C670.192 1088.37 669.211 1083.76 669.602 1079.63C669.757 1077.99 670.235 1076.25 670.961 1076.17C671.688 1076.1 672.212 1077.67 672.69 1078.94C674.025 1082.5 676.001 1084.74 678.248 1085.3C675.138 1079.73 672.423 1072.12 671.929 1063.1C671.82 1061.11 671.83 1059.01 672.219 1057.22C672.348 1056.63 672.548 1056.04 672.831 1055.93C673.284 1055.77 673.614 1056.88 673.8 1057.85C674.502 1061.49 674.972 1065.35 675.64 1069.03C676.308 1072.71 677.208 1076.28 678.678 1079.68C678.686 1074.7 679.726 1069.98 679.815 1065.01C679.894 1060.56 679.21 1056.24 678.438 1052.16C677.99 1049.8 677.499 1047.2 677.824 1044.73C677.871 1044.37 677.943 1044 678.08 1043.8C678.35 1043.4 678.703 1043.85 678.946 1044.33C680.851 1048.1 681.386 1054.4 681.359 1060.19C681.332 1065.98 680.866 1071.81 681.162 1076.79C682.192 1080.25 683.242 1083.76 684.656 1086.39C685.897 1088.71 687.398 1090.28 688.97 1090.9C688.213 1090.5 687.624 1089.13 687.138 1087.73C685.424 1082.8 684.419 1076.58 684.314 1070.26C684.301 1069.51 684.305 1068.73 684.457 1068.07C684.608 1067.41 684.954 1066.93 685.258 1067.19C685.454 1067.35 685.586 1067.76 685.703 1068.16C687.774 1075.22 688.735 1084 691.426 1089.92C690.695 1081.91 692.209 1073.81 693.688 1066.37C692.716 1065.72 692.038 1063.74 691.429 1061.87C689.344 1055.48 687.147 1048.19 687.577 1040.25C687.629 1039.29 687.882 1038.07 688.291 1038.29C688.444 1038.37 688.562 1038.65 688.658 1038.94C689.207 1040.6 689.305 1042.8 689.527 1044.83C689.965 1048.85 690.969 1052.54 692.149 1055.92C693.175 1051.06 693.745 1045.7 693.808 1040.3C693.813 1039.92 693.827 1039.48 693.96 1039.26C694.212 1038.84 694.513 1039.62 694.628 1040.28C695.627 1046.04 695.444 1052.49 695.258 1059.39C695.02 1060.14 694.782 1060.9 694.543 1061.65C695.011 1062.45 695.453 1063.33 695.806 1065.33C695.882 1062.7 696.65 1060.46 697.493 1058.69C698.337 1056.92 699.299 1055.41 699.974 1053.29C700.915 1050.33 701.197 1046.52 701.226 1042.85C701.254 1039.18 701.057 1035.51 701.166 1031.85C701.812 1032.73 702.336 1034.09 702.665 1035.7C703.258 1041.43 703.816 1047.8 702.57 1052.94C701.908 1055.67 700.816 1057.67 699.892 1059.96C698.967 1062.24 698.159 1065.16 698.031 1068.76C698.123 1069.79 698.216 1070.81 698.308 1071.83C697.994 1068.32 699.451 1065.42 700.786 1063.6C702.119 1061.78 703.681 1059.54 703.759 1055.97C704.693 1058.05 704.683 1061.63 704.132 1064.35C703.581 1067.06 702.605 1069.16 701.722 1071.36C700.411 1074.62 699.265 1078.23 698.309 1082.09C697.378 1085.85 696.621 1089.92 696.381 1094.22C696.14 1098.52 696.45 1103.08 697.498 1106.76C699.259 1099.17 701.426 1092.09 703.934 1085.73C704.196 1085.07 704.472 1084.36 704.549 1083.48C704.602 1082.87 704.551 1082.25 704.499 1081.63C704.254 1078.8 703.941 1075.95 703.998 1073.06C704.053 1070.17 704.544 1067.16 705.582 1065.54C705.384 1068.69 705.527 1071.94 706.067 1076.8C706.858 1070.82 708.76 1066.05 710.434 1061.14C712.109 1056.23 713.664 1050.5 713.545 1044.26C713.527 1043.31 713.471 1042.34 713.581 1041.43C713.692 1040.52 714.031 1039.66 714.442 1039.69C714.969 1039.74 715.267 1041.1 715.397 1042.29C716.163 1049.23 715.124 1056.63 713.518 1062.76C711.912 1068.89 709.761 1074.15 708.149 1081.09C708.913 1077.76 710.503 1075.89 712.071 1074.85C713.64 1073.81 715.291 1073.38 716.792 1071.9C719.647 1069.08 721.688 1062.31 721.841 1055.15C721.891 1052.85 721.762 1050.54 721.905 1048.26C722.049 1045.99 722.539 1043.65 723.445 1042.71C724.179 1047.99 724.383 1053.66 724.004 1059.78C724.796 1059.26 725.481 1057.93 725.838 1056.22C726.019 1055.36 726.228 1054.22 726.642 1054.27C726.779 1054.28 726.905 1054.44 727.015 1054.63C727.765 1055.93 727.75 1058.71 727.22 1060.5C726.69 1062.29 725.8 1063.31 724.934 1064.15C724.068 1064.98 723.157 1065.76 722.485 1067.28C721.931 1068.52 721.584 1070.17 721.084 1071.53C719.434 1076.03 716.576 1076.52 714.18 1078.53C711.021 1081.19 708.516 1086.78 706.113 1092.22C704.224 1096.49 702.213 1101.35 702.147 1108.13C704.8 1103.48 708.289 1102.53 711.578 1101.31C714.866 1100.1 718.379 1098.14 720.532 1092.26C721.724 1089.01 722.429 1084.71 723.949 1082.3C724.886 1083.69 724.997 1086.82 724.672 1089.27C724.223 1092.69 723.16 1095.53 721.919 1097.66C720.68 1099.79 719.262 1101.29 717.182 1103.76C718.132 1104.18 719.097 1104.43 720.063 1104.49C720.361 1104.51 720.665 1104.51 720.948 1104.29C721.336 1103.99 721.643 1103.31 721.936 1102.65C722.39 1101.63 722.85 1100.6 723.182 1099.35C723.352 1098.71 723.537 1097.95 723.859 1097.87C724.18 1097.8 724.447 1098.54 724.481 1099.28C724.515 1100.01 724.382 1100.73 724.251 1101.42C724.029 1102.57 723.809 1103.73 723.587 1104.88C723.371 1106.01 723.127 1107.21 722.664 1107.82C721.955 1108.74 721.08 1107.91 720.272 1107.66C719.65 1107.47 719.02 1107.65 718.394 1107.62C716.926 1107.55 715.473 1106.28 714.449 1103.95C709.291 1105.03 704.689 1111.56 700.301 1117.92C699.433 1119.18 698.538 1120.5 697.978 1122.48C697.49 1124.21 697.118 1126.65 695.612 1125.19V1125.2Z" fill="#4A2002"/>
<path d="M147.29 1326.59C144.115 1327.07 140.932 1322.11 139.936 1315.13C139.429 1311.57 139.445 1307.68 138.877 1304.17C138.836 1303.93 138.789 1303.67 138.694 1303.53C138.552 1303.31 138.363 1303.43 138.203 1303.57C136.976 1304.61 135.816 1306.27 134.513 1306.53C133.21 1306.78 131.68 1304.87 131.675 1301.85C131.674 1300.99 131.919 1299.95 132.285 1300.09C132.4 1300.13 132.5 1300.29 132.597 1300.44C133.269 1301.51 133.941 1302.59 135.155 1303.52C134.887 1302.25 134.721 1300.87 134.666 1299.47C134.649 1299.02 134.655 1298.51 134.801 1298.21C135.03 1297.74 135.4 1298.21 135.556 1298.81C135.713 1299.41 135.773 1300.16 135.989 1300.65C136.501 1301.83 137.357 1300.76 137.911 1299.69C137.365 1298.51 136.961 1296.99 136.757 1295.33C136.642 1294.39 136.584 1293.38 136.354 1292.56C136.176 1291.92 135.906 1291.45 135.626 1291.07C133.401 1288.03 130.194 1289.69 128.385 1285.43C127.702 1283.81 127.344 1281.5 127.433 1279.25C127.442 1279.01 127.46 1278.76 127.531 1278.58C127.724 1278.1 128.061 1278.6 128.253 1279.08C128.842 1280.58 129.432 1282.07 130.253 1283.6C130.03 1282.58 129.801 1281.51 129.831 1280.37C129.859 1279.24 130.252 1278.07 130.743 1278.15C131.53 1278.29 131.643 1280.95 132.253 1282.11C132.496 1282.57 132.813 1282.76 133.117 1282.94C133.934 1283.44 134.75 1283.93 135.568 1284.42C134.468 1281.99 134.16 1278.26 133.398 1275.22C132.658 1272.27 131.457 1269.96 130.068 1268.8C129.143 1268.03 127.938 1267.95 127.353 1269.78C127.041 1270.75 126.959 1272.12 126.535 1272.83C126.151 1273.46 125.629 1273.32 125.161 1273.15C124.576 1272.94 123.823 1272.25 123.901 1270.89C123.96 1269.87 124.468 1269.39 125.062 1269C124.063 1269.15 123.015 1269.28 122.102 1268.33C121.534 1267.73 121.022 1266.63 120.912 1265.21C120.801 1263.8 121.231 1262.15 121.853 1262.07C122.267 1262.02 122.637 1262.6 123.027 1262.94C123.665 1263.49 124.368 1263.35 125.049 1263.42C125.729 1263.49 126.469 1263.86 127.318 1265.42C126.466 1262.32 124.937 1260.67 123.681 1258.42C122.425 1256.18 121.343 1252.4 121.946 1249.01C123.065 1250.68 123.952 1253.17 124.451 1256.02C124.24 1255.13 124.024 1254.2 123.993 1253.18C123.963 1252.17 124.174 1251.04 124.589 1250.7C125.14 1250.24 125.717 1251.37 125.95 1252.61C126.183 1253.85 126.223 1255.26 126.501 1256.45C127.431 1260.45 130.319 1259.71 131.362 1263.56C131.013 1262.69 130.648 1261.76 130.554 1260.6C130.46 1259.43 130.768 1258.01 131.279 1257.94C131.974 1257.84 132.264 1259.9 132.423 1261.47C133.102 1268.12 135.342 1273.35 136.325 1279.79C137.24 1285.79 137.144 1293.09 138.772 1297.09C138.281 1294.38 138.514 1291.05 139.351 1288.83C139.816 1291.06 140.003 1293.58 139.889 1296.04C139.73 1293.83 140.465 1291.49 141.422 1291.16C141.98 1292.82 141.639 1295.2 141.417 1297.24C140.905 1301.96 141.204 1307.12 142.234 1311.36C143.264 1315.6 145.015 1318.88 147.026 1320.33C146.456 1319.99 146.496 1318.1 146.666 1316.8C147.035 1313.97 147.404 1311.14 147.986 1308.65C147.016 1307.79 146.025 1306.89 145.245 1305.3C144.465 1303.71 143.928 1301.26 144.146 1298.91C144.873 1299.99 145.561 1301.21 146.198 1302.55C146.02 1301.36 145.552 1300.53 145.299 1299.41C145.047 1298.29 145.182 1296.47 145.728 1296.37C146.197 1296.29 146.479 1297.51 146.68 1298.49C147.193 1301.02 147.991 1303.23 148.971 1304.86C148.417 1301.7 149.108 1297.73 148.293 1294.89C147.989 1293.83 147.514 1293.11 147.135 1292.19C146.051 1289.56 145.841 1285.67 145.593 1282.08C145.345 1278.5 144.903 1274.57 143.585 1272.59C143.149 1271.94 142.647 1271.55 142.208 1270.9C141.259 1269.51 140.678 1266.88 140.749 1264.29C140.763 1263.76 140.831 1263.15 141.041 1262.94C141.423 1262.57 141.698 1263.79 141.873 1264.66C142.224 1266.4 143.014 1267.64 144.203 1268.36C141.856 1263.58 141.148 1255.71 141.35 1248.5C141.377 1247.52 141.416 1246.5 141.266 1245.59C141.082 1244.47 140.65 1243.69 140.336 1242.74C139.909 1241.45 139.7 1239.78 139.763 1238.16C139.804 1237.09 140.113 1235.81 140.573 1235.99C140.884 1236.11 141.063 1236.85 141.2 1237.5C141.75 1240.13 142.3 1242.76 143.128 1246.05C143.269 1243.91 143.672 1241.87 144.28 1240.23C144.838 1241.16 144.982 1242.99 144.862 1244.56C144.741 1246.13 144.41 1247.57 144.188 1249.08C143.507 1253.72 143.941 1259.14 145.579 1264.26C145.089 1261.93 144.615 1259.25 145.003 1256.82C145.119 1256.09 145.335 1255.39 145.656 1255.17C146.136 1254.85 146.63 1255.81 146.781 1256.91C146.932 1258.02 146.843 1259.2 146.79 1260.36C146.609 1264.28 146.877 1268.23 147.145 1272.13C147.262 1273.85 147.38 1275.56 147.263 1278.44C148.023 1276.2 148.538 1273.52 148.751 1270.71C148.909 1268.62 148.968 1266.18 149.709 1264.93C149.963 1266.4 150.143 1267.94 150.247 1269.51C150.583 1266.06 151.172 1262.74 151.98 1259.73C152.096 1259.3 152.226 1258.86 152.425 1258.65C152.884 1258.17 153.374 1259.22 153.592 1260.26C154.082 1262.61 154.019 1265.45 153.571 1267.83C153.123 1270.22 152.319 1272.19 151.4 1273.69C150.916 1274.49 150.392 1275.18 149.98 1276.16C148.767 1279.08 148.845 1283.78 149.388 1287.62C149.224 1286.46 149.793 1285.25 150.312 1285.46C150.831 1285.67 151.186 1286.9 151.218 1288.12C151.25 1289.34 151.025 1290.51 150.749 1291.55C150.472 1292.58 150.138 1293.55 150.041 1295.69C150.767 1296.31 151.34 1297.83 151.508 1299.58C151.914 1303.77 150.14 1307.51 150.011 1311.79C150.05 1310.77 150.793 1310.7 151.006 1311.6C151.219 1312.5 151.016 1313.65 150.713 1314.4C150.41 1315.15 150.012 1315.68 149.725 1316.47C149.189 1317.94 149.126 1320.06 149.271 1321.96C150.428 1317.31 151.934 1313.13 153.703 1309.67C154.457 1308.19 155.328 1306.54 155.372 1304.26C155.41 1302.28 154.801 1300.6 154.457 1298.79C154.117 1296.99 154.034 1294.95 154.22 1293.05C154.255 1292.68 154.317 1292.28 154.466 1292.12C154.63 1291.95 154.818 1292.17 154.967 1292.41C155.526 1293.29 155.998 1294.46 157.063 1296.46C156.089 1293.14 155.943 1288.62 156.693 1285C156.969 1283.67 157.371 1282.26 157.203 1280.83C156.94 1278.59 155.404 1277.63 155.529 1275.32C155.622 1273.6 156.923 1273.32 157.15 1274.98C156.84 1274.16 156.515 1273.28 156.441 1272.2C156.367 1271.13 156.659 1269.84 157.13 1269.79C157.66 1269.73 157.978 1271.09 158.166 1272.23C158.538 1274.51 158.909 1276.79 159.281 1279.07C159.287 1273.75 159.292 1268.44 159.298 1263.13C159.298 1262.23 159.298 1261.3 159.142 1260.48C158.963 1259.53 158.601 1258.84 158.302 1258.07C157.263 1255.41 156.926 1251.38 157.459 1248.01C158.121 1249.95 158.784 1251.88 159.446 1253.81C158.966 1251.81 159.177 1249.07 159.927 1247.58C160.277 1246.89 160.715 1246.47 161.075 1245.8C162.251 1243.61 162.276 1239.59 162.377 1236.11C162.39 1235.64 162.41 1235.16 162.514 1234.76C162.782 1233.74 163.496 1233.85 163.858 1234.7C164.221 1235.55 164.309 1236.83 164.328 1238.02C164.415 1243.58 163.396 1248.86 162.557 1254.07C161.718 1259.28 161.04 1265.06 161.807 1270.33C161.363 1267.71 161.78 1264.45 162.769 1262.81C163.537 1263.7 163.829 1266 163.679 1267.96C163.529 1269.91 163.039 1271.62 162.585 1273.31C160.093 1282.56 158.342 1292.86 157.447 1303.55C158.016 1303.21 158.133 1301.33 158.651 1300.69C159.182 1300.03 159.883 1301.17 159.958 1302.55C160.034 1303.93 159.643 1305.26 159.15 1306.06C158.657 1306.85 158.067 1307.25 157.508 1307.77C155.19 1309.91 153.282 1314.31 152.2 1320.35C153.085 1317.12 154.716 1315.41 156.316 1314.42C157.916 1313.43 159.59 1312.97 161.101 1311.4C162.61 1309.83 163.983 1306.78 164.112 1302.96C164.156 1301.68 164.057 1300.39 164.124 1299.12C164.19 1297.85 164.483 1296.5 165.011 1296.12C165.88 1295.49 166.64 1297.81 166.749 1299.9C166.859 1301.98 166.65 1304.22 167.033 1306.12C167.69 1302.12 168.151 1297.95 168.407 1293.71C168.558 1291.2 168.623 1288.51 168.099 1286.28C167.872 1285.31 167.532 1284.42 167.502 1283.32C167.443 1281.14 168.559 1279.93 169.473 1279.35C169.873 1281.22 170.272 1283.09 170.672 1284.96C171.652 1280.75 172.632 1276.53 173.612 1272.32C173.969 1270.79 174.238 1268.48 173.574 1267.65C173.246 1267.25 172.826 1267.47 172.489 1267.11C171.79 1266.35 171.948 1263.96 172.276 1262.35C172.622 1263.08 172.967 1263.82 173.312 1264.55C172.075 1261.87 171.439 1257.78 171.655 1253.9C171.704 1253 171.959 1251.88 172.334 1252.12C172.514 1252.24 172.625 1252.65 172.713 1253.03C173.226 1255.24 173.569 1257.66 173.721 1260.14C174.648 1255.11 172.946 1249.44 173.233 1244.01C173.295 1242.85 173.643 1241.43 174.134 1241.72C174.502 1241.94 174.635 1242.97 174.703 1243.83C175.134 1249.38 175.468 1254.96 175.453 1262.27C175.945 1260.03 176.437 1257.8 176.929 1255.57C177.426 1257.78 177.145 1260.52 176.652 1262.74C176.159 1264.95 175.465 1266.94 175.093 1269.28C174.539 1272.77 174.756 1276.66 174.429 1280.3C174.042 1284.61 172.92 1288.34 171.825 1291.93C172.61 1290.58 173.41 1289.27 174.221 1288C174.614 1291.67 173.565 1295.32 172.406 1298C171.247 1300.67 169.869 1303.13 169.324 1306.7C169.18 1307.64 169.096 1308.65 168.867 1309.5C168.238 1311.82 166.845 1312.04 165.664 1312.27C165.273 1312.34 164.75 1312.87 164.868 1313.74C165.194 1314.36 165.655 1314.6 166.065 1314.34L166.472 1315.81C167.081 1314.35 167.77 1312.8 168.643 1312.64C169.516 1312.48 170.453 1314.66 170.023 1316.42C169.725 1317.64 169.021 1317.87 168.417 1317.95C167.296 1318.11 166.169 1318.26 165.051 1317.99C164.18 1317.77 163.325 1317.29 162.453 1317.12C157.977 1316.23 154.045 1323.27 149.961 1327.59C149.566 1328.01 148.995 1328.29 147.297 1326.6L147.29 1326.59Z" fill="#4A2002"/>
<path d="M453.548 1301.39C452.753 1299.8 451.959 1298.22 451.163 1296.64C451.088 1296.49 451.01 1296.33 450.919 1296.24C450.466 1295.78 450.041 1296.93 449.747 1297.85C448.255 1302.53 445.357 1304.51 443.002 1302.45C442.575 1300.06 443.059 1297.29 443.742 1295.24C444.426 1293.19 445.312 1291.48 445.864 1289.23C442.876 1290.21 439.952 1292.23 437.224 1295.2C436.736 1295.74 436.24 1296.31 435.702 1296.42C435.164 1296.53 434.565 1296.06 434.309 1294.96C434.053 1293.86 434.333 1292.19 434.87 1292.08C434.141 1290.96 433.2 1290.96 432.359 1290.38C431.518 1289.81 430.659 1288.04 430.89 1286.08C431.116 1284.16 432.169 1283.63 433.028 1283.46C436.01 1282.89 438.998 1282.49 442.731 1282.77C442.579 1280.78 442.427 1278.8 442.274 1276.82C441.347 1277.52 440.809 1280.44 439.837 1280.25C438.851 1280.05 438.608 1276.79 439.031 1274.73C439.454 1272.66 440.248 1270.96 440.411 1268.71C440.686 1264.9 439.086 1261.88 437.643 1259.93C436.201 1257.98 434.525 1255.44 434.521 1251.57C434.521 1250.95 434.599 1250.22 434.847 1249.98C435.02 1249.8 435.218 1249.92 435.397 1250.06C437.198 1251.43 438.778 1254.29 439.785 1258C439.165 1251.69 439.024 1245.12 439.369 1238.7C439.638 1233.69 440.532 1227.94 442.641 1226.61C442.905 1233.61 443.108 1240.62 443.251 1247.64C443.064 1244.71 443.934 1241.62 445.168 1240.83C445.606 1244.1 445.28 1247.61 445.161 1251.03C444.808 1261.1 446.386 1271.46 449.391 1278.8C448.179 1274.08 449.435 1267.05 451.732 1265.67C451.928 1270.93 452.123 1276.19 452.319 1281.45C452.369 1282.8 452.432 1284.24 452.789 1285.32C453.147 1286.4 453.91 1286.88 454.327 1285.92C454.86 1284.69 454.412 1282.66 454.131 1281.05C453.765 1278.95 453.749 1276.53 454.086 1274.4C454.303 1273.03 454.66 1271.78 454.836 1270.38C455.29 1266.76 454.477 1263 454.03 1260.8C452.919 1253.84 451.802 1246.83 450.221 1240.37C449.515 1237.49 448.716 1234.7 448.194 1231.62C447.661 1228.47 447.43 1225.05 447.52 1221.68C447.547 1220.67 447.679 1219.45 448.102 1219.19C448.564 1218.91 448.947 1220.01 449.17 1220.98C450.077 1224.95 450.617 1229.31 451.152 1233.62C450.822 1230.52 450.513 1227.06 451.196 1224.27C451.404 1223.43 451.834 1222.63 452.206 1223.08C452.349 1223.25 452.446 1223.57 452.523 1223.89C453.193 1226.75 452.712 1230.24 452.7 1233.49C452.682 1237.97 453.586 1242.16 454.469 1246.16C453.901 1243.61 453.842 1240.5 454.312 1237.85C454.469 1236.96 454.909 1236 455.23 1236.61C455.328 1236.79 455.377 1237.08 455.422 1237.35C455.693 1239 455.965 1240.64 456.237 1242.28C456.463 1239.33 456.689 1236.38 456.915 1233.43C456.998 1232.35 457.081 1231.24 457.014 1230.14C456.808 1226.85 455.273 1224.15 455.604 1220.91C455.675 1220.21 455.879 1219.49 456.188 1219.41C456.594 1219.29 456.879 1220.28 457.061 1221.12C457.436 1222.86 457.81 1224.6 458.66 1226.99C458.669 1223.02 458.892 1219.05 459.617 1215.09C460.344 1214.48 461.154 1215.88 461.397 1217.58C461.641 1219.27 461.478 1221.12 461.314 1222.87C460.91 1227.16 460.507 1231.45 460.103 1235.73C459.584 1241.25 459.065 1247.02 459.69 1252.48C460.098 1256.05 460.97 1259.23 461.831 1262.35C460.464 1257.99 462.842 1251.57 461.867 1246.68C461.486 1244.77 460.627 1243.39 460.472 1241.31C460.339 1239.54 460.92 1237.54 461.7 1237.47C462.478 1237.4 463.131 1239.7 463.186 1242.37C463.218 1237.44 463.051 1232.5 462.646 1227.21C462.763 1224.63 463.106 1222.1 463.909 1220.15C464.209 1223.6 464.512 1227.05 464.812 1230.5C464.804 1228.57 464.799 1226.58 465.111 1224.78C465.423 1222.99 466.132 1221.43 466.967 1221.4C466.35 1239.26 465.506 1257.07 464.437 1274.81C464.658 1274.02 465.032 1273.48 465.434 1273.35C465.431 1277.29 465.427 1281.23 465.424 1285.17C466.962 1269.36 467.686 1253.13 467.576 1236.93C467.559 1234.49 467.543 1231.88 468.108 1229.82C468.278 1229.2 468.544 1228.61 468.86 1228.65C469.352 1228.71 469.549 1230.12 469.621 1231.25C469.812 1234.28 470.003 1237.3 470.194 1240.32C469.812 1231.43 470.334 1222.33 471.971 1212.7C472.479 1211.62 473.1 1210.84 473.765 1210.43C474.232 1214.65 474.183 1219.17 473.625 1223.33C473.105 1227.2 472.148 1231.24 472.927 1236.43C474.108 1230.92 475.606 1224.81 478.201 1223.44C478.945 1226.26 477.989 1229.74 477.145 1232.41C472.827 1245.99 470.509 1262.92 470.572 1279.56C470.834 1281.39 471.096 1283.23 471.357 1285.06C471.158 1283.09 471.667 1281.11 472.252 1279.61C472.836 1278.1 473.539 1276.73 473.863 1274.85C474.331 1272.14 473.903 1269.11 473.711 1266.22C473.488 1262.88 473.593 1259.43 474.014 1256.2C474.138 1255.25 474.342 1254.19 474.754 1253.92C475.422 1253.46 475.929 1255.31 476.12 1256.86C476.518 1260.07 476.686 1263.43 476.615 1266.76C477.184 1263.11 478.178 1259.81 479.466 1257.31C479.644 1256.96 479.839 1256.62 480.067 1256.53C480.485 1256.36 480.892 1257.12 481.048 1258.03C481.204 1258.94 481.163 1259.97 481.099 1260.93C480.392 1271.52 477.054 1281.1 478.071 1291.51C477.914 1284.84 479.5 1278.74 480.79 1272.76C482.078 1266.79 483.111 1259.64 481.87 1253.61C481.567 1252.14 481.133 1250.78 480.98 1249.18C480.826 1247.59 481.075 1245.6 481.745 1245.09C482.337 1244.63 482.994 1245.56 483.298 1246.82C483.603 1248.07 483.641 1249.57 483.671 1251.01C483.309 1243.88 485.068 1236.43 487.86 1233.28C487.69 1241.2 487.087 1249.06 486.068 1256.63C486.619 1250.28 487.897 1243.86 490.279 1240.44C490.744 1241.72 490.484 1243.65 490.205 1245.19C489.13 1251.11 488.055 1257.02 486.979 1262.94C487.475 1262.01 487.742 1260.59 488.139 1259.43C488.535 1258.27 489.204 1257.32 489.793 1257.9C490.42 1258.51 490.559 1260.55 490.271 1261.97C489.983 1263.4 489.41 1264.38 488.891 1265.4C486.262 1270.57 484.639 1278.04 483.763 1285.76C482.888 1293.48 482.701 1301.5 482.304 1310.52C484.114 1303.84 485.493 1296.54 486.38 1288.94C486.562 1287.38 486.836 1285.54 487.514 1285.17C487.739 1289.47 487.745 1293.82 487.531 1298.12C487.632 1290.73 489.041 1283.49 491.362 1278.41C491.597 1279.64 491.832 1280.88 492.067 1282.11C491.657 1277.19 492.745 1271.8 494.639 1269.36C495.043 1271.55 495.194 1273.99 495.052 1276.6C495.872 1270.69 496.84 1264.33 499.094 1260.96C499.322 1260.61 499.575 1260.3 499.847 1260.32C500.323 1260.36 500.682 1261.45 500.742 1262.54C500.801 1263.63 500.637 1264.72 500.474 1265.75C500.017 1268.68 499.559 1271.61 499.101 1274.53C499.416 1272.43 499.835 1270.38 500.492 1268.76C501.149 1267.14 502.074 1266 503.034 1266.08C503.217 1268.04 503.374 1270.19 502.964 1271.95C502.692 1273.13 502.208 1273.95 501.746 1274.75C498.154 1280.99 495.009 1288.59 492.474 1297.17C493.093 1294.68 494.074 1292.69 495.22 1291.59C495.599 1291.23 496.034 1290.96 496.412 1291.33C496.789 1291.7 497.003 1292.97 496.445 1294.63C501.438 1287.97 503.008 1271.36 508.344 1266.32C508.587 1266.09 508.864 1265.89 509.107 1266.12C509.26 1266.26 509.374 1266.56 509.46 1266.89C510.087 1269.22 509.337 1272.18 508.614 1274.36C506.836 1279.74 505.058 1285.11 503.279 1290.48C504.903 1287.09 506.786 1284.36 508.816 1282.46C509.164 1282.14 509.533 1281.83 509.907 1281.93C510.784 1282.18 511.264 1284.71 511.005 1286.66C510.745 1288.61 509.983 1289.97 509.199 1290.91C507.675 1292.74 505.95 1293.43 504.324 1294.71C502.044 1296.5 499.967 1299.42 497.913 1302.31C496.799 1303.89 495.597 1305.71 495.071 1310.05C497.444 1307.72 500.312 1309.83 502.667 1307.41C503.726 1306.32 504.581 1304.41 505.409 1302.53C506.226 1300.68 507.042 1298.84 507.859 1296.99C508.477 1299.05 508.445 1302.04 507.624 1304.99C509.454 1302.55 511.284 1300.1 513.115 1297.66C513.338 1297.36 513.57 1297.06 513.826 1297.01C514.591 1296.86 515.089 1299.15 514.841 1300.83C514.593 1302.51 513.899 1303.59 513.236 1304.48C506.522 1313.49 498.55 1315.72 490.818 1317.35C497.212 1318.19 503.66 1316.69 509.853 1312.93C507.698 1319.69 503.964 1322.44 500.479 1324.81C503.205 1325.55 505.918 1326.54 508.609 1327.78C509.8 1328.33 511.293 1329.83 511.159 1332.62C511.136 1333.12 511.039 1333.64 510.844 1333.88C510.701 1334.05 510.533 1334.04 510.373 1334.01C502.189 1333.01 494.075 1326.42 485.96 1329.06C484.535 1329.53 483.075 1330.33 481.942 1332.38C481.239 1333.65 480.702 1335.33 480.122 1336.9C477.397 1344.26 473.555 1349.36 469.433 1351.11C467.335 1351.99 464.729 1351.48 463.711 1347.14C463.487 1346.19 463.356 1345.1 463.039 1344.3C462.503 1342.95 461.615 1342.84 460.824 1342.87C458.727 1342.93 456.565 1343.27 454.597 1341.61C452.628 1339.94 450.896 1335.57 451.146 1330.76C451.253 1328.7 451.701 1326.54 451.325 1324.65C451.006 1323.05 450.203 1322.31 449.454 1321.98C448.054 1321.38 446.609 1321.74 445.195 1321.33C443.782 1320.92 442.29 1319.48 441.668 1316.52C441.046 1313.56 441.877 1309.13 443.301 1309.2C444.005 1309.24 444.612 1310.28 445.244 1310.99C448.094 1314.21 452.014 1309.74 453.548 1301.38V1301.39Z" fill="#4A2002"/>
<path d="M80.7025 1303.66C79.7526 1292.88 82.4277 1282.14 82.515 1271.14C82.5681 1264.43 81.656 1257.66 82.2448 1251.09C82.5032 1248.22 83.046 1245.45 83.0696 1242.51C83.1133 1237.09 81.3834 1231.89 81.9415 1226.62C82.1185 1224.94 82.5268 1223.3 82.3982 1221.6C82.2094 1219.1 80.9775 1217.76 80.5291 1215.45C79.7692 1211.52 81.5274 1207.47 81.7693 1203.2C81.9899 1199.31 80.9173 1195.61 80.8807 1191.69C80.8146 1184.69 83.9346 1179.58 84.4939 1172.7C84.6697 1170.53 84.6178 1168.06 85.2632 1166.43C86.0845 1164.36 87.6197 1164.75 88.5212 1162.87C89.4157 1161 89.3354 1157.75 89.772 1155.16C90.7361 1149.41 94.1309 1147.32 94.9841 1141.49C95.2779 1139.48 95.2201 1137.28 95.4632 1135.23C96.1712 1129.24 99.2026 1125.98 99.9625 1120.03C101.209 1122.25 101.488 1126.39 101.258 1129.99C101.027 1133.59 100.391 1137.01 100.177 1140.61C100.052 1142.73 100.07 1144.91 99.7713 1146.93C98.9076 1152.78 95.7876 1155.18 94.4566 1160.54C93.5409 1164.23 93.5622 1168.97 92.4329 1172.33C91.3261 1175.61 89.3154 1176.91 88.3855 1180.48C86.9825 1185.86 88.7879 1192.78 88.3702 1198.98C88.133 1202.51 87.1737 1205.72 87.1973 1209.28C87.2185 1212.46 88.0185 1215.36 88.1058 1218.53C88.2309 1223.09 86.8669 1227.27 86.8421 1231.85C86.8161 1236.51 88.1885 1240.93 87.8522 1245.53C87.6988 1247.63 87.2032 1249.5 86.8291 1251.44C86.2757 1254.32 85.9819 1257.41 85.6904 1260.48C85.5087 1262.4 85.327 1264.32 85.1464 1266.23C84.0172 1278.16 82.8879 1290.1 80.7049 1303.65L80.7025 1303.66Z" fill="#4A2002"/>
<path d="M79.0281 1309.66C77.7502 1297.08 76.464 1284.44 74.3801 1272.44C73.5895 1267.89 72.6762 1263.38 72.354 1258.53C72.1345 1255.23 72.1935 1251.81 71.7805 1248.6C71.0466 1242.89 68.866 1238.19 68.8778 1232.23C68.8837 1229.72 69.2683 1226.94 68.6642 1224.85C67.9113 1222.24 65.9525 1222.07 65.5844 1219.06C65.464 1218.07 65.5572 1216.96 65.3566 1216.04C64.6982 1213.02 62.1647 1215.94 61.4107 1213.04C61.2148 1212.29 61.2207 1211.35 61.1263 1210.5C60.4738 1204.62 55.8977 1205.67 55.113 1199.87C54.7402 1197.12 55.4163 1193.63 54.5785 1191.49C54.1018 1190.27 53.29 1190.02 52.8062 1188.82C51.9495 1186.7 52.5938 1183.23 53.3926 1181C54.1915 1178.77 55.1921 1176.26 54.9349 1173.42C54.8475 1172.46 54.6198 1171.61 54.4676 1170.7C53.6522 1165.79 55.0965 1160.58 56.4052 1156.29C57.7138 1152 58.9941 1146.39 57.8931 1141.79C58.7817 1141.39 59.6112 1140.31 60.8243 1139.76C59.2914 1145.33 60.3841 1152.75 59.6737 1159.14C59.3504 1162.05 58.6578 1164.68 58.3699 1167.6C58.0819 1170.53 58.3427 1174.11 59.4732 1175.59C60.1458 1176.47 61.0048 1176.43 61.629 1177.49C62.6745 1179.26 62.5105 1182.88 62.3925 1185.86C62.2745 1188.85 62.6285 1192.75 63.9111 1193.18C64.3914 1193.34 64.9236 1192.94 65.3448 1193.49C66.4293 1194.93 65.1206 1199.53 66.0222 1201.53C66.4977 1202.59 67.2623 1202.17 67.9196 1202.05C70.3941 1201.59 72.6656 1207.6 72.1369 1213.21C72.0638 1213.98 71.9469 1214.78 72.0272 1215.55C72.1877 1217.08 72.9747 1217.62 73.606 1218.19C75.2509 1219.69 76.5171 1223.22 76.8475 1227.23C77.1259 1230.61 76.7779 1234.15 77.0776 1237.52C77.3395 1240.47 78.077 1243.07 78.5349 1245.89C79.6264 1252.61 79.0753 1260.06 78.8145 1267.22C78.2882 1281.66 79.0281 1296.35 79.0293 1309.65L79.0281 1309.66Z" fill="#4A2002"/>
<path d="M83.937 1310.8C81.0483 1294.38 79.7173 1276.5 80.0619 1258.79C80.2105 1251.15 80.6554 1243.26 79.6135 1236C79.2099 1233.19 78.5892 1230.51 78.404 1227.58C78.0452 1221.91 79.3433 1215.73 78.2376 1210.59C77.2228 1205.88 74.471 1203.76 73.8928 1198.66C73.625 1196.31 73.8822 1193.63 73.363 1191.51C72.8096 1189.26 71.5824 1188.45 70.7658 1186.67C69.3486 1183.59 69.6248 1177.41 71.285 1175.06C69.718 1169.23 69.6507 1161.42 71.1163 1155.46C71.8337 1152.55 72.8839 1150.06 73.4031 1146.92C74.0698 1142.9 73.7984 1138.19 74.7047 1134.42C75.9083 1129.43 78.8358 1127.56 79.8943 1122.39C76.785 1117.97 72.1334 1121.3 70.649 1129.01C70.4177 1130.21 70.2879 1131.8 70.7045 1132.69C70.9629 1133.25 71.3558 1133.34 71.6272 1133.86C72.2609 1135.08 71.8373 1137.41 71.4372 1139.07C70.4 1143.39 69.8077 1148.28 69.7227 1153.22C69.9622 1149.75 70.1451 1145.79 69.161 1143.12C68.6548 1141.74 67.876 1140.85 67.5704 1139.19C66.9037 1135.57 68.9156 1132.18 69.03 1128.25C69.1008 1125.82 68.4188 1123.37 68.7197 1121.03C69.161 1117.6 71.1776 1117.25 72.7187 1117.59C72.4096 1114.23 74.1465 1111.66 75.6357 1111.62C77.1248 1111.59 78.6058 1112.94 80.0737 1112.37C81.0259 1112 82.18 1110.97 82.8266 1112.63C83.183 1113.55 83.2231 1115.02 83.6514 1115.75C84.088 1116.5 84.6981 1116.12 85.2421 1116.19C86.3229 1116.34 87.2186 1118.57 87.4015 1121.04C87.5844 1123.51 87.1513 1126.06 86.4492 1127.97C86.0386 1129.08 85.5135 1130.12 85.4167 1131.57C85.3447 1132.64 85.53 1133.71 85.6067 1134.78C85.9312 1139.32 84.3464 1143.27 82.9104 1146.46C80.9952 1150.71 78.9538 1156.65 79.9616 1162.33C80.1964 1163.65 80.5882 1164.83 80.7073 1166.23C81.0566 1170.36 78.9633 1173.66 78.8901 1177.86C78.8087 1182.5 81.2088 1186.27 80.7474 1190.79C80.6011 1192.23 80.1669 1193.51 80.1763 1194.99C80.1822 1195.98 80.3864 1196.89 80.5645 1197.78C81.6195 1203.09 81.8767 1209.22 81.2832 1214.89C81.1463 1216.2 80.9657 1217.53 81.0708 1218.85C81.1994 1220.47 81.728 1221.73 82.0395 1223.2C82.9599 1227.56 81.8625 1233.02 82.6248 1237.54C82.9234 1239.31 83.4862 1240.79 83.7907 1242.55C84.2568 1245.24 84.075 1248.27 83.9122 1251.14C82.8372 1270.12 82.8891 1289.45 83.9358 1310.81L83.937 1310.8Z" fill="#4A2002"/>
<path d="M80.8618 1310.38C80.509 1303.65 82.115 1297.24 83.8508 1291.77C85.5865 1286.29 87.5749 1280.88 88.1826 1274.24C88.559 1270.13 88.3773 1265.77 88.9814 1261.81C89.5655 1257.97 90.8376 1254.85 91.4358 1251.03C92.2453 1245.84 91.7225 1240.02 92.2583 1234.65C93.2813 1224.39 97.8338 1217.99 99.5684 1208.25C99.9153 1206.3 100.15 1204.22 100.658 1202.46C101.732 1198.75 103.794 1197.26 105.121 1194.01C106.458 1190.73 106.903 1185.66 106.226 1181.44C105.84 1179.04 105.123 1176.89 104.965 1174.35C104.705 1170.2 105.983 1166.48 107.054 1163.09C108.126 1159.69 109.082 1155.14 108.193 1151.48C107.728 1149.56 106.821 1148.26 106.542 1146.16C106.049 1142.43 107.732 1139.33 108.719 1136.17C110.411 1130.75 109.991 1122.4 107.188 1117.99C107.992 1119.11 109.118 1118.99 109.731 1120.64C110.514 1122.75 109.885 1126.04 110.158 1128.75C110.472 1131.88 111.942 1133.8 112.585 1137.67C111.06 1141.7 111.018 1148.3 112.492 1152.43C113.119 1154.19 114.009 1155.66 114.218 1157.89C114.557 1161.51 112.952 1164.41 112.373 1167.86C111.104 1175.43 114.926 1184.11 113.427 1191.44C112.716 1194.93 110.939 1197.02 110.549 1200.77C110.259 1203.55 110.835 1206.49 110.623 1209.32C110.275 1213.96 108.031 1216.46 107.1 1220.64C106.218 1224.61 106.638 1229.47 106.095 1233.75C104.944 1242.83 99.9424 1246.79 98.5583 1255.69C97.8196 1260.44 97.9683 1266.88 96.0001 1269.07C95.4537 1269.67 94.8307 1269.8 94.2572 1270.26C91.5951 1272.4 91.0358 1280.32 89.5738 1285.89C87.6633 1293.16 83.7198 1297.58 80.8642 1310.39L80.8618 1310.38Z" fill="#4A2002"/>
<rect y="1393" width="767" height="447" fill="#4A2002"/>
</g>
<defs>
<clipPath id="clip0_2413_523">
<rect width="767" height="1838" fill="white"/>
</clipPath>
</defs>
</svg>
