<svg width="1440" height="1336" viewBox="0 0 1440 1336" fill="none" xmlns="http://www.w3.org/2000/svg">
<g clip-path="url(#clip0_2408_250)">
<path d="M1440 622.412V948.657H0V330C2.08911 335.763 3.98105 341.592 5.60935 347.509C11.2187 367.891 13.6025 389 15.9663 410.006C17.9047 427.212 19.841 444.418 25.5124 467.13C41.8841 472.673 51.583 489.062 60.13 504.082C68.3557 518.538 76.8207 532.856 85.5183 547.032C95.4188 563.164 106.053 581.222 112.265 598.227C127.048 608.237 150.039 602.318 158.147 586.414C161.679 579.486 164.158 569.956 171.861 568.862C175.844 568.297 179.801 570.481 183.808 570.1C193.78 569.15 195.401 555.541 200.574 546.965C208.051 534.572 224.884 532.131 236.342 523.286C245.569 516.163 250.872 505.209 255.669 494.588C260.467 483.966 265.332 472.908 274.045 465.165C282.761 457.425 296.565 454.037 315.196 457.429C331.052 453.286 346.907 449.142 362.765 444.998C366.77 443.951 371.387 443.003 374.761 445.404C384.558 452.371 368.119 471.395 377.53 478.877C380.964 481.61 386.073 480.691 389.963 478.657C393.853 476.622 397.265 473.621 401.441 472.268C410.307 469.391 420.141 475.021 425.128 482.892C430.115 490.765 431.391 500.348 450.02 514.779C447.789 531.02 459.925 545.375 471.445 557.042C482.963 568.712 495.599 582.292 494.693 598.659C493.942 612.239 483.714 625.377 487.958 638.3C490.976 647.48 500.223 652.797 508.258 658.172C533.66 675.163 553.166 700.792 565.142 727.428C573.488 741.113 581.833 754.797 590.178 768.484C595.945 758.447 604.406 746.964 615.899 748.355C618.91 748.718 621.723 749.989 624.484 751.245C642.998 759.661 661.512 768.077 681.324 769.085C688.803 775.388 700.126 772.291 709.122 768.451C718.119 764.611 728.629 760.352 737.194 765.078C747.559 770.803 747.887 785.425 754.048 795.533C759.857 805.065 770.841 810.225 781.692 812.843C792.545 815.46 803.841 816.078 814.544 819.252C829.194 823.597 842.014 832.507 855.965 838.741C869.915 844.976 886.584 848.371 895.591 834.569C936.731 831.902 970.438 788.904 963.194 748.331C985 751.159 1007.96 742.931 1023 726.894C1038.04 710.858 1044.78 687.424 1040.55 665.851C1058 650.693 1062.41 622.591 1050.44 602.822C1068.93 603.686 1079.59 582.846 1086.88 565.835C1094.17 548.824 1109.54 529.37 1130.13 529.35C1146.07 529.722 1162.01 530.094 1177.94 530.464C1180.24 539.568 1182.54 548.673 1184.84 557.778C1226.07 541.805 1273.68 543.076 1314.01 561.222C1346.25 570.614 1378.49 580.004 1410.73 589.397C1409.89 600.335 1409.05 611.274 1408.21 622.212C1419.15 619.747 1429.77 620.026 1440 622.412Z" fill="#7A3401"/>
<path d="M1232.12 593.21C1231.38 588.955 1230.63 584.652 1228.89 580.699C1227.15 576.746 1224.3 573.116 1220.37 571.326C1217.77 570.141 1214.7 569.736 1212.65 567.749C1209.79 564.988 1210.06 560.414 1208.69 556.687C1208.14 555.185 1207.25 553.741 1205.89 552.902C1204.28 551.905 1202.28 551.897 1200.4 551.644C1198.52 551.392 1196.46 550.696 1195.64 548.986C1195.14 547.923 1195.22 546.677 1194.89 545.549C1194.3 543.583 1192.53 542.212 1190.71 541.253C1188.9 540.294 1186.92 539.587 1185.34 538.274C1183 536.325 1181.82 533.076 1182.36 530.077C1187.1 532.082 1188.72 538.557 1193.5 540.486C1194.8 541.011 1196.35 541.217 1197.21 542.32C1198.03 543.366 1197.95 544.903 1198.74 545.963C1199.66 547.188 1201.37 547.381 1202.81 547.901C1204.39 548.47 1205.77 549.549 1206.72 550.935C1207.24 551.711 1207.84 552.698 1208.78 552.656C1209.23 552.636 1209.63 552.357 1210.08 552.28C1211.23 552.08 1212.17 553.223 1212.61 554.311C1213.05 555.396 1213.35 556.658 1214.33 557.3C1214.91 557.677 1215.65 557.783 1216.15 558.259C1216.72 558.815 1216.8 559.695 1217.09 560.439C1217.9 562.461 1220.23 563.3 1222.04 564.518C1226.46 567.497 1228.1 573.299 1232.13 576.79C1230.41 573.373 1233.92 569.295 1232.99 565.583C1232.19 562.363 1228.34 560.558 1227.69 557.305C1227.17 554.667 1228.93 551.691 1227.57 549.37C1226.08 546.827 1221.73 546.807 1220.81 544.006C1220.46 542.943 1220.75 541.775 1220.58 540.67C1220.3 538.814 1218.76 537.406 1217.17 536.414C1215.57 535.421 1213.8 534.664 1212.47 533.333C1211.15 532.002 1210.39 529.836 1211.35 528.226C1213.04 529.989 1214.73 531.752 1216.43 533.515C1216.94 534.046 1217.47 534.593 1218.16 534.87C1219.27 535.322 1220.58 534.961 1221.73 535.328C1223.43 535.873 1224.23 537.76 1224.84 539.437C1226.61 537.076 1226.7 533.59 1225.06 531.136C1223.94 529.455 1222.03 528.062 1221.98 526.042C1221.92 523.819 1224.17 522.16 1224.53 519.963C1224.87 517.881 1223.45 515.972 1222.21 514.273C1220.96 512.575 1219.75 510.424 1220.53 508.464C1220.75 507.91 1221.17 507.383 1221.76 507.27C1222.56 507.113 1223.28 507.766 1223.8 508.404C1226.3 511.507 1227.55 515.591 1227.58 519.967C1227.4 521.509 1227.21 523.05 1227.02 524.592C1226.97 525.008 1226.92 525.446 1227.07 525.834C1227.28 526.361 1227.81 526.673 1228.23 527.063C1230.52 529.216 1229.03 533.105 1230 536.092C1230.26 536.896 1230.71 537.636 1230.93 538.453C1231.2 539.441 1231.13 540.484 1231.15 541.507C1231.22 544.01 1231.93 546.491 1233.18 548.659C1233.66 549.487 1234.21 550.273 1234.6 551.15C1235.31 552.787 1235.36 554.621 1235.39 556.403C1235.48 560.461 1235.57 564.52 1235.65 568.578C1235.72 571.962 1235.86 575.567 1237.81 578.336C1236.61 577.126 1237.66 574.994 1239.1 574.068C1240.53 573.144 1242.34 572.713 1243.42 571.39C1244.74 569.774 1244.51 567.393 1245.4 565.506C1246.42 563.349 1248.8 562.062 1249.78 559.885C1250.04 559.314 1250.19 558.667 1250.04 558.056C1249.7 556.601 1247.8 555.717 1247.91 554.224C1247.95 553.62 1248.33 553.099 1248.54 552.53C1249.25 550.597 1247.9 548.575 1246.69 546.911C1245.47 545.248 1244.28 543.049 1245.28 541.246C1246.71 542.938 1248.13 544.632 1249.55 546.324C1249.88 546.708 1250.23 547.113 1250.94 546.931C1249.24 544.227 1249.3 540.52 1251.09 537.873C1251.69 536.989 1252.46 536.219 1252.95 535.273C1254.87 531.57 1251.89 526.941 1253.11 522.955C1253.89 520.399 1256.33 518.397 1256.39 515.724C1256.44 513.308 1254.47 511.157 1254.65 508.748C1254.74 507.516 1255.68 506.214 1256.91 506.289C1258.7 506.398 1259.1 508.841 1258.97 510.628C1258.72 514.016 1258.47 517.405 1258.22 520.793C1258.11 522.337 1257.97 523.96 1257.09 525.236C1256.57 525.996 1255.81 526.596 1255.45 527.442C1254.77 529.03 1255.7 530.799 1255.92 532.514C1256.46 536.675 1252.78 540.695 1253.83 544.759C1254.09 545.755 1254.63 546.783 1254.3 547.757C1254.14 548.231 1253.79 548.614 1253.52 549.033C1250.91 553.046 1255.33 558.988 1252.7 562.992C1251.86 564.27 1250.41 565.098 1249.74 566.472C1248.9 568.179 1249.45 570.33 1248.59 572.028C1247.99 573.202 1246.82 573.959 1245.92 574.916C1245.01 575.873 1244.35 577.348 1245.02 578.48C1246.29 575.888 1249.01 574.068 1251.89 573.871C1252.64 573.82 1253.44 573.862 1254.11 573.508C1255.49 572.77 1255.57 570.83 1256.45 569.532C1258.09 567.114 1262.34 567.163 1263.3 564.403C1264.37 565.515 1263.95 567.431 1262.93 568.576C1261.9 569.721 1260.44 570.354 1259.15 571.193C1257.86 572.033 1256.64 573.28 1256.6 574.814C1256.59 575.211 1256.68 575.638 1256.98 575.904C1257.68 576.544 1258.74 575.802 1259.63 575.472C1261.79 574.675 1264.27 577.344 1263.32 579.436C1259.09 577.518 1254.25 579.913 1250.23 582.245C1248.55 583.221 1246.82 584.238 1245.66 585.793C1244.93 586.769 1244.46 587.91 1243.87 588.977C1242.79 590.926 1241.3 592.645 1239.53 593.991C1238.07 591.961 1237.23 589.482 1237.16 586.98C1235.91 587.881 1235.77 589.688 1235.97 591.219C1236.16 592.749 1236.56 594.366 1235.96 595.79C1235.36 597.214 1232.96 598.055 1232.12 593.207L1232.12 593.21Z" fill="#602A02"/>
<path d="M1225.59 523.354C1225.37 522.262 1225.11 521.079 1224.24 520.384C1223.83 520.054 1223.32 519.87 1222.81 519.75C1221.24 519.383 1219.6 519.56 1218.02 519.287C1216.44 519.015 1214.77 518.078 1214.44 516.508C1214.35 516.063 1214.39 515.553 1214.7 515.226C1215.14 514.772 1215.91 514.853 1216.43 515.21C1216.94 515.567 1217.27 516.125 1217.63 516.634C1218 517.143 1218.45 517.646 1219.06 517.786C1219.41 517.865 1219.76 517.821 1220.11 517.786C1221.35 517.666 1222.64 517.695 1223.78 518.209C1224.91 518.723 1225.85 519.812 1225.59 523.351V523.354Z" fill="#602A02"/>
<path d="M1224.76 513.111C1224.21 512.606 1224.02 511.799 1224.1 511.06C1224.18 510.32 1224.5 509.627 1224.83 508.96C1225.24 508.114 1225.8 507.195 1226.72 506.987C1227.45 506.821 1228.3 507.138 1228.92 506.721C1229.37 506.422 1229.52 505.849 1229.65 505.326C1230.4 506.404 1230.7 508.052 1229.73 508.943C1229.03 509.587 1227.94 509.578 1227.11 510.054C1226.39 510.466 1225.92 511.217 1225.68 512.008C1225.43 512.798 1225.36 513.669 1224.76 513.113V513.111Z" fill="#602A02"/>
<path d="M1256.72 519.378C1255.55 518.142 1254.26 516.84 1252.57 516.557C1252.12 516.481 1251.66 516.481 1251.22 516.351C1250.06 516.001 1249.36 514.805 1249.01 513.638C1248.98 513.518 1248.94 513.39 1248.98 513.27C1249.02 513.144 1249.12 513.051 1249.24 512.987C1249.67 512.747 1250.23 512.867 1250.64 513.133C1251.06 513.399 1251.38 513.791 1251.73 514.145C1252.64 515.086 1253.77 515.788 1254.79 516.612C1255.81 517.436 1256.77 518.437 1256.72 519.378Z" fill="#602A02"/>
<path d="M1257.95 514.96C1257.72 512.79 1258.83 510.539 1260.69 509.39C1260.84 509.295 1261.01 509.204 1261.19 509.222C1261.53 509.253 1261.71 509.629 1261.8 509.957C1262.31 511.983 1261.4 514.291 1259.63 515.414C1258.94 515.857 1258.07 516.134 1257.95 514.96Z" fill="#602A02"/>
<path d="M1253.46 538.32C1254.57 536.159 1255.72 533.949 1257.51 532.305C1257.98 531.873 1258.61 531.461 1259.22 531.659C1259.85 531.865 1260.12 532.675 1259.94 533.315C1259.76 533.957 1259.27 534.456 1258.78 534.905C1257.58 536.002 1256.28 536.985 1254.9 537.833C1255.67 537.765 1256.46 537.729 1257.24 537.729C1257.5 537.729 1257.78 537.736 1258.01 537.873C1258.45 538.141 1258.49 538.817 1258.21 539.251C1257.93 539.687 1257.43 539.933 1256.95 540.121C1255.7 540.613 1254.36 540.874 1253.46 538.316V538.32Z" fill="#602A02"/>
<path d="M1228.88 532.593C1228.46 530.215 1229.07 527.779 1229.81 525.48C1230.36 523.794 1231.16 521.956 1232.81 521.307C1233.36 521.09 1234.01 521.039 1234.53 521.32C1235.21 521.688 1235.5 522.543 1235.43 523.312C1235.36 524.08 1235 524.786 1234.64 525.469C1233.51 527.588 1232.29 529.73 1230.45 531.269C1231.24 530.266 1232.27 529.453 1233.42 528.919C1234.06 528.629 1234.84 528.432 1235.41 528.819C1236.07 529.258 1236.11 530.221 1235.87 530.97C1235.38 532.44 1234.13 533.526 1232.8 534.316C1231.47 535.105 1229.46 535.829 1228.88 532.593H1228.88Z" fill="#602A02"/>
<path d="M1188.6 538.464C1186.79 535.377 1186.7 531.355 1188.36 528.184C1188.55 527.805 1188.87 527.386 1189.3 527.433C1189.49 527.453 1189.66 527.57 1189.79 527.708C1190.55 528.474 1190.41 529.727 1190.17 530.777C1189.55 533.45 1188.66 536.135 1188.6 538.464H1188.6Z" fill="#602A02"/>
<path d="M1184.24 535.581C1182.42 536.761 1179.98 536.93 1178 536.006C1177.53 535.787 1177.08 535.501 1176.76 535.096C1176.43 534.691 1176.25 534.148 1176.36 533.641C1176.42 533.406 1176.54 533.176 1176.75 533.058C1176.9 532.979 1177.06 532.959 1177.23 532.946C1180.16 532.697 1183.17 533.699 1184.24 535.579V535.581Z" fill="#602A02"/>
<path d="M1197.26 545.503C1196.41 542.564 1196.32 539.412 1197 536.429C1197.08 536.035 1197.19 535.634 1197.42 535.304C1197.65 534.972 1198.03 534.719 1198.44 534.746C1198.87 534.773 1199.23 535.118 1199.4 535.517C1199.58 535.915 1199.59 536.361 1199.6 536.795C1199.64 540.267 1198.99 543.705 1197.25 545.505L1197.26 545.503Z" fill="#602A02"/>
<path d="M1198.79 539.811C1199.64 538.274 1201.15 537.12 1202.85 536.713C1202.97 536.684 1203.12 536.664 1203.21 536.75C1203.3 536.832 1203.29 536.97 1203.28 537.087C1203 539.266 1201.04 541.109 1198.79 539.811Z" fill="#602A02"/>
<path d="M1214.71 565.147C1212.07 565.916 1209.27 566.155 1206.54 565.845C1205.27 565.701 1204.01 565.435 1202.87 564.857C1202.32 564.574 1201.78 564.195 1201.48 563.646C1201.19 563.096 1201.2 562.346 1201.64 561.909C1202.05 561.515 1202.67 561.473 1203.24 561.455C1204.49 561.415 1205.76 561.378 1206.98 561.688C1209.31 562.286 1211.18 564.102 1214.7 565.145L1214.71 565.147Z" fill="#602A02"/>
<path d="M1216.28 561.015C1215.74 560.904 1215.31 560.457 1215.1 559.947C1214.89 559.438 1214.86 558.871 1214.87 558.317C1214.93 556.326 1215.55 554.353 1216.64 552.683C1216.84 552.362 1217.11 552.027 1217.48 551.956C1217.86 551.886 1218.24 552.116 1218.46 552.43C1218.68 552.747 1218.76 553.135 1218.81 553.513C1219.22 556.226 1218.62 559.075 1216.28 561.015H1216.28Z" fill="#602A02"/>
<path d="M1205.82 563.685C1204.52 563.537 1203.25 562.963 1202.33 562.018C1201.42 561.072 1200.89 559.748 1200.98 558.437C1201.01 558.065 1201.1 557.666 1201.38 557.42C1201.67 557.17 1202.11 557.139 1202.47 557.265C1202.83 557.393 1203.12 557.655 1203.38 557.941C1204.6 559.32 1204.99 561.254 1205.82 563.685H1205.82Z" fill="#602A02"/>
<path d="M1209.91 554.275C1208.22 551.941 1207.72 548.792 1208.61 546.05C1208.85 545.303 1209.39 544.46 1210.17 544.557C1210.94 544.654 1211.27 545.596 1211.32 546.375C1211.49 549.015 1210.45 551.622 1209.9 554.275H1209.91Z" fill="#602A02"/>
<path d="M1225.54 569.53C1224.91 568.471 1224.27 567.384 1224.05 566.173C1223.89 565.262 1223.97 564.326 1224.07 563.406C1224.21 562.228 1224.39 561.043 1224.8 559.932C1224.85 559.799 1224.94 559.639 1225.08 559.666C1225.15 559.677 1225.19 559.726 1225.23 559.77C1226.46 561.079 1226.78 562.999 1226.7 564.788C1226.62 566.578 1226.19 568.339 1225.54 569.528L1225.54 569.53Z" fill="#602A02"/>
<path d="M1231.99 582.329C1231 580.752 1229.91 579.091 1228.21 578.329C1226.39 577.514 1224.15 577.868 1222.47 576.799C1221.8 576.373 1221.27 575.753 1220.64 575.275C1220.01 574.797 1219.17 574.46 1218.43 574.726C1218.1 574.843 1217.78 575.14 1217.82 575.488C1217.85 575.669 1217.97 575.824 1218.08 575.966C1218.65 576.672 1219.29 577.326 1220.11 577.685C1217.83 576.768 1215.33 576.427 1212.89 576.703C1212.31 576.77 1211.61 576.985 1211.5 577.558C1211.43 577.988 1211.75 578.389 1212.09 578.655C1213.96 580.099 1216.83 579.552 1218.86 580.67C1217.58 580.874 1216.36 581.516 1215.47 582.468C1215.24 582.71 1215.03 583 1215.04 583.33C1215.07 583.793 1215.56 584.116 1216.03 584.12C1216.49 584.125 1216.92 583.895 1217.33 583.673C1218.48 583.046 1219.63 582.417 1220.78 581.791C1221.83 581.219 1222.95 580.63 1224.14 580.728C1225.83 580.867 1227.08 582.329 1228.61 583.073C1228.99 583.255 1229.39 583.396 1229.81 583.381C1230.82 583.345 1231.56 582.424 1231.99 582.329H1231.99Z" fill="#602A02"/>
<path d="M1232.96 556.222C1232.02 554.153 1231.9 551.784 1232.27 549.545C1232.64 547.306 1233.5 545.173 1234.46 543.118C1234.93 542.117 1235.66 540.976 1236.76 541.014C1237.07 544.119 1235.21 547.007 1234.74 550.092C1235.35 548.57 1236.7 547.363 1238.28 546.925C1238.97 546.734 1239.92 546.834 1240.09 547.525C1240.17 547.855 1240.03 548.194 1239.87 548.495C1239.23 549.759 1238.36 550.911 1237.33 551.883C1238.24 552.023 1239.14 552.255 1240.01 552.579C1240.21 552.654 1240.42 552.745 1240.55 552.922C1240.8 553.294 1240.53 553.795 1240.24 554.142C1238.73 555.989 1236.66 557.38 1232.96 556.22L1232.96 556.222Z" fill="#602A02"/>
<path d="M1215.35 533.455C1214.39 533.276 1213.92 532.188 1213.67 531.24C1213.31 529.92 1213.05 528.554 1213.18 527.194C1213.25 526.49 1213.55 525.675 1214.23 525.502C1214.48 525.438 1214.76 525.478 1215 525.575C1215.67 525.841 1216.12 526.507 1216.31 527.203C1216.51 527.898 1216.5 528.631 1216.52 529.351C1216.57 530.682 1216.72 532.009 1215.35 533.455Z" fill="#602A02"/>
<path d="M1251.57 561.021C1253.85 559.918 1255.99 558.324 1257.16 556.078C1257.56 555.303 1257.84 554.47 1258.24 553.697C1258.64 552.924 1259.21 552.193 1260 551.823C1261.1 553.135 1260.76 555.15 1259.95 556.66C1258.32 559.697 1254.98 561.743 1251.57 561.021Z" fill="#602A02"/>
<path d="M1259.05 556.813C1260.19 555.292 1261.36 553.741 1262.93 552.67C1263.27 552.433 1263.65 552.218 1264.06 552.153C1264.47 552.089 1264.94 552.202 1265.2 552.526C1265.46 552.847 1265.48 553.301 1265.43 553.71C1265.23 555.252 1264.16 556.598 1262.8 557.356C1261.44 558.113 1259.83 558.333 1259.05 556.811L1259.05 556.813Z" fill="#602A02"/>
<path d="M1259.59 568.549C1259.11 567.659 1258.62 566.753 1258.4 565.763C1258.18 564.773 1258.27 563.672 1258.86 562.848C1259.12 562.474 1259.5 562.164 1259.94 562.033C1260.38 561.903 1260.89 561.976 1261.25 562.273C1261.84 562.769 1261.83 563.666 1261.74 564.432C1261.57 565.86 1261.31 567.28 1259.59 568.549Z" fill="#602A02"/>
<path d="M1261.02 577.076C1262.93 576.114 1264.32 574.199 1264.65 572.09C1264.71 571.692 1264.74 571.282 1264.88 570.901C1265.01 570.52 1265.27 570.157 1265.66 570.028C1266.22 569.836 1266.86 570.241 1267.1 570.79C1267.34 571.34 1267.27 571.975 1267.1 572.549C1266.61 574.247 1265.41 575.634 1264.25 576.963C1263.73 577.545 1263.19 578.152 1261.02 577.078V577.076Z" fill="#602A02"/>
<path d="M1247.19 547.213C1245.66 547.791 1243.93 547.826 1242.38 547.312C1241.5 547.02 1240.63 546.513 1240.18 545.7C1239.72 544.885 1239.83 543.72 1240.58 543.18C1241.41 542.588 1242.59 542.947 1243.4 543.556C1244.21 544.165 1244.86 545.002 1245.75 545.483C1246.59 545.937 1247.62 546.048 1247.19 547.213Z" fill="#602A02"/>
<path d="M1254.1 526.751C1254.84 524.88 1255.79 522.798 1257.7 522.167C1259.17 521.682 1260.75 522.22 1262.3 522.275C1265.49 522.388 1268.61 520.14 1269.52 517.079C1269.85 515.959 1269.93 514.723 1270.6 513.766C1271.27 512.807 1272.89 512.389 1273.55 513.352C1273.89 513.853 1273.84 514.524 1273.71 515.115C1273.21 517.358 1271.77 519.296 1270.09 520.869C1269.19 521.71 1268.19 522.477 1267.04 522.931C1264.07 524.104 1260.18 523.194 1258 525.524C1257.36 526.208 1256.96 527.099 1256.28 527.745C1255.6 528.39 1254.42 528.702 1254.1 526.753V526.751Z" fill="#602A02"/>
<path d="M1265.41 522.253C1264.7 520.767 1264.55 519.026 1264.98 517.443C1265.16 516.827 1265.43 516.209 1265.93 515.808C1266.06 515.704 1266.21 515.611 1266.38 515.615C1266.74 515.624 1266.93 516.025 1267.03 516.366C1267.67 518.497 1267.81 520.773 1265.41 522.253Z" fill="#602A02"/>
<path d="M1271.2 518.612C1274.74 516.109 1276.62 511.755 1280.16 509.255C1280.51 511.868 1279.15 514.479 1277.2 516.269C1275.26 518.058 1272.81 519.166 1271.2 518.612Z" fill="#602A02"/>
<path d="M1226.95 546.229C1225.56 546.575 1224.15 546.807 1222.73 546.929C1220.83 547.091 1218.84 547.033 1217.12 546.201C1215.41 545.368 1214.03 543.6 1214.15 541.696C1214.17 541.377 1214.24 541.051 1214.42 540.79C1214.73 540.347 1215.32 540.179 1215.86 540.221C1216.85 540.298 1217.75 541.029 1218.04 541.982C1218.22 542.588 1218.21 543.335 1218.72 543.705C1219.02 543.924 1219.42 543.935 1219.8 543.939C1220.64 543.948 1221.5 543.953 1222.29 543.68C1222.68 543.547 1223.05 543.35 1223.45 543.29C1224.54 543.124 1225.5 543.979 1226.95 546.232V546.229Z" fill="#602A02"/>
<path d="M1254.98 532.604C1253.43 532.999 1251.85 532.166 1250.47 531.353C1249.04 530.511 1247.6 529.648 1246.43 528.467C1245.27 527.289 1244.38 525.743 1244.33 524.087C1244.31 523.464 1244.54 522.687 1245.16 522.612C1245.64 522.552 1246.03 522.959 1246.34 523.329C1247.04 524.18 1247.75 525.028 1248.46 525.878C1249.75 527.442 1251.17 529.083 1253.11 529.654C1253.4 529.739 1253.7 529.798 1253.97 529.936C1254.85 530.381 1255.15 531.468 1254.98 532.604Z" fill="#602A02"/>
<path d="M1249.01 527.971C1247.51 526.483 1246.83 524.211 1247.27 522.142C1247.37 521.684 1247.64 521.141 1248.11 521.165C1248.29 521.176 1248.46 521.278 1248.6 521.391C1249.18 521.859 1249.53 522.598 1249.53 523.345C1249.53 524.04 1249.23 524.7 1249.13 525.389C1248.98 526.403 1249.28 527.473 1249.01 527.969V527.971Z" fill="#602A02"/>
<path d="M1364.19 462.106C1362.88 459.291 1361.44 456.702 1360.67 453.876C1359.79 450.612 1359.84 447.188 1359.63 443.817C1359.41 440.448 1358.87 436.956 1356.98 434.152C1355.97 432.823 1354.67 432.345 1353.42 432.464C1352.17 432.584 1350.99 433.299 1350.31 434.358C1350.14 437.111 1350.8 439.831 1352.01 442.322C1350.66 440.163 1349.19 438.023 1347.72 435.886C1347.51 435.583 1347.27 435.257 1346.92 435.171C1346.59 435.089 1346.25 435.248 1345.95 435.414C1344.84 436.041 1343.85 436.87 1343.03 437.846C1341.94 436.947 1340.46 437.237 1339.64 438.141C1338.82 439.047 1338.62 440.422 1338.93 441.622C1339.25 442.825 1340.02 443.866 1340.93 444.71C1340.26 445.866 1340.44 447.502 1340.93 448.997C1341.41 450.492 1342.18 451.876 1342.95 453.249C1340.09 449.965 1337.61 447.002 1335.41 443.848C1334.9 443.113 1334.28 442.293 1333.4 442.22C1332.49 442.145 1331.71 442.96 1331.52 443.852C1331.33 444.747 1331.59 445.68 1331.91 446.543C1332.86 449.092 1334.35 451.396 1335.83 453.675C1335.19 453.63 1334.56 454.058 1334.36 454.669C1332.62 450.621 1330.44 446.732 1327.97 443.031C1327.49 442.298 1326.96 441.549 1326.2 441.113C1325.12 440.488 1323.65 440.681 1322.78 441.56C1321.9 442.44 1321.7 443.93 1322.31 445.033C1322.57 445.502 1322.96 445.928 1323.03 446.459C1323.09 446.991 1322.52 447.595 1322.08 447.296C1321.68 446.893 1321.27 446.49 1320.86 446.089C1319.8 445.804 1319.05 446.47 1318.93 447.21C1318.81 447.952 1319.12 448.696 1319.45 449.372C1319.98 450.439 1320.58 451.467 1321.22 452.463C1320.98 452.552 1320.76 452.665 1320.55 452.802C1319.91 450.72 1319.15 448.698 1317.84 446.989C1316.05 447.345 1314.49 447.899 1314.02 449.256C1313.62 450.421 1314.2 451.688 1314.78 452.791C1316.36 455.854 1317.95 458.917 1319.53 461.982C1316.97 460.018 1315.67 457.482 1314.53 455.059C1313.38 452.638 1312.17 450.082 1309.99 448.552C1308.34 448.552 1306.89 448.687 1305.67 449.383C1304.46 450.078 1303.54 451.482 1303.82 452.882C1304.03 453.921 1304.82 454.727 1305.56 455.482C1309.23 459.214 1312.54 463.315 1315.42 467.705C1315.69 466.923 1316 466.159 1316.35 465.413C1316.61 464.874 1316.92 464.319 1317.43 464.024C1317.94 463.729 1318.62 463.853 1318.86 464.469C1319.28 465.545 1319.18 466.812 1318.59 467.787C1318 468.761 1316.93 469.421 1315.8 469.514C1315.51 469.539 1315.14 469.477 1315.05 469.191C1315 469.051 1315.04 468.901 1315.08 468.761C1315.16 468.473 1315.32 467.988 1315.42 467.705C1312.19 463.927 1308.64 460.571 1304.93 457.28C1304.04 458.062 1303.13 458.864 1302.54 459.9C1301.95 460.937 1301.73 462.268 1302.27 463.351C1302.58 463.975 1303.1 464.458 1303.62 464.923C1307.26 468.205 1310.9 471.488 1314.54 474.77C1314.24 477.43 1315.34 480.05 1316.9 482.22C1318.47 484.39 1320.48 486.175 1322.48 487.941C1327.91 492.722 1333.32 497.504 1338.75 502.283C1338.5 505.184 1340.05 505.888 1341.51 505.919C1342.97 505.951 1344.38 505.432 1345.74 504.921C1347.83 504.137 1349.93 503.35 1352.02 502.566C1353.11 502.157 1354.34 501.61 1354.69 500.478C1354.94 499.641 1354.64 498.653 1355.06 497.893C1355.58 496.979 1356.82 496.892 1357.73 496.379C1359.6 495.32 1359.75 492.722 1360.1 490.572C1361.05 484.78 1364.97 480.01 1366.89 474.486C1367.78 471.948 1368.23 469.273 1368.68 466.615C1368.85 465.599 1369 464.482 1368.49 463.583C1367.69 462.184 1365.78 462.06 1364.19 462.108M1311.98 453.081C1311.78 453.648 1311.24 454.069 1310.64 454.12C1309.91 454.182 1309.24 453.739 1308.58 453.407C1307.8 453.012 1306.95 452.756 1306.09 452.651C1305.67 452.601 1305.19 452.543 1304.98 452.173C1304.78 451.817 1304.97 451.376 1305.19 451.039C1305.87 450.003 1306.9 449.15 1308.11 448.96C1309.32 448.769 1310.06 449.812 1311.61 451.398C1312.03 451.832 1312.18 452.514 1311.98 453.081ZM1305.47 459.366C1305.11 460.215 1304.52 460.961 1303.79 461.51C1303.54 461.696 1303.2 461.858 1302.94 461.674C1302.71 461.504 1302.72 461.158 1302.65 461.03C1303.19 460.197 1303.88 459.462 1304.67 458.864C1304.79 458.771 1304.92 458.68 1305.07 458.647C1305.22 458.613 1305.4 458.647 1305.49 458.773C1305.62 458.939 1305.55 459.178 1305.47 459.369M1320.54 473.902C1319.65 475.8 1317.55 477.027 1315.48 476.856C1315.23 476.836 1314.95 476.767 1314.85 476.537C1314.77 476.369 1314.83 476.174 1314.9 476.003C1315.35 474.801 1316.01 473.682 1316.84 472.712C1317.3 472.17 1317.83 471.66 1318.5 471.401C1319.16 471.142 1319.97 471.175 1320.53 471.636C1321.08 472.097 1321.01 472.878 1320.54 473.899M1317.83 448.816C1316.88 449.292 1315.89 449.677 1314.87 449.965C1314.71 450.009 1314.49 450.025 1314.43 449.868C1314.38 449.744 1314.48 449.615 1314.57 449.522C1315.25 448.871 1316.03 448.337 1316.88 447.93C1317.07 447.835 1317.28 447.744 1317.5 447.739C1317.72 447.735 1317.96 447.837 1318.05 448.038C1318.15 448.24 1318.15 448.654 1317.83 448.813M1325.91 442.561C1325.21 443.084 1324.46 443.527 1323.66 443.877C1323.35 444.012 1322.95 444.118 1322.7 443.877C1322.48 443.66 1322.53 443.29 1322.66 443.006C1322.99 442.218 1323.74 441.678 1324.53 441.376C1324.94 441.221 1325.41 441.122 1325.82 441.279C1326.24 441.438 1326.62 442.025 1325.91 442.559M1337.18 455.309C1337.18 455.675 1337.02 456.031 1336.77 456.286C1336.51 456.541 1336.17 456.691 1335.81 456.733C1335.61 456.758 1335.39 456.742 1335.2 456.64C1335.02 456.541 1334.89 456.361 1334.81 456.166C1334.58 455.582 1334.84 454.904 1335.27 454.454C1335.49 454.224 1335.76 454.027 1336.08 454C1336.38 453.974 1336.7 454.12 1336.88 454.372C1337.06 454.625 1337.17 454.964 1337.18 455.311M1334.24 443.54C1333.84 443.89 1333.39 444.187 1332.91 444.415C1332.8 444.47 1332.67 444.524 1332.55 444.493C1332.43 444.466 1332.34 444.375 1332.28 444.271C1332.1 443.957 1332.17 443.534 1332.41 443.263C1332.64 442.993 1333.01 442.869 1333.37 442.874C1333.73 442.878 1334.08 443 1334.24 443.538M1346.46 446.373C1346.34 446.76 1346 447.086 1345.91 446.623C1344.68 446.938 1343.36 446.924 1342.13 446.583C1341.85 446.508 1341.54 446.375 1341.46 446.096C1341.4 445.881 1341.51 445.657 1341.63 445.471C1341.94 444.993 1342.37 444.599 1342.87 444.335C1343.45 444.032 1344.12 443.903 1344.77 444.041C1345.41 444.178 1346.01 444.592 1346.31 445.184C1346.5 445.547 1346.58 445.983 1346.46 446.371M1343.84 439.447C1343.84 439.817 1343.75 440.218 1343.55 440.336C1342.71 440.836 1341.69 441.027 1340.73 440.858C1340.33 440.79 1339.91 440.63 1339.73 440.262C1339.59 439.955 1339.67 439.585 1339.83 439.286C1340.13 438.719 1340.7 438.305 1341.32 438.194C1341.78 438.114 1342.24 438.185 1342.69 438.254C1342.94 438.291 1343.19 438.331 1343.4 438.473C1343.7 438.681 1343.84 439.075 1343.84 439.447ZM1347.11 436.194C1346.8 437 1346.04 437.607 1345.19 437.731C1344.97 437.764 1344.68 437.729 1344.6 437.512C1344.53 437.343 1344.64 437.162 1344.74 437.02C1345.15 436.482 1345.68 436.046 1346.29 435.756C1346.46 435.674 1346.65 435.603 1346.83 435.654C1347.01 435.705 1347.21 435.946 1347.11 436.196M1350.88 434.914C1350.86 434.664 1351.08 434.475 1351.29 434.343C1352.19 433.765 1353.2 433.368 1354.25 433.186C1354.73 433.105 1355.29 433.093 1355.62 433.452C1355.95 433.8 1355.92 434.34 1355.91 434.365C1354.68 435.255 1353.11 435.645 1351.6 435.432C1351.28 435.388 1350.9 435.237 1350.88 434.916M1367.3 464.95C1366.53 465.393 1365.71 465.771 1364.83 465.878C1363.95 465.984 1363 465.782 1362.34 465.182C1361.98 464.863 1361.71 464.336 1361.93 463.915C1362.08 463.608 1362.44 463.477 1362.77 463.371C1363.16 463.242 1363.56 463.116 1363.95 462.988C1364.56 462.793 1365.17 462.595 1365.8 462.589C1366.43 462.582 1367.1 462.797 1367.51 463.295C1367.92 463.794 1367.95 464.569 1367.3 464.948" fill="#602A02"/>
<path d="M341.176 823.142C337.514 822.965 333.899 821.57 330.868 819.16C328.56 817.327 326.459 814.536 326.528 811.278C328.214 810.662 329.975 811.883 331.302 813.245C332.629 814.605 333.914 816.232 335.64 816.66C333.803 815.836 332.547 813.86 331.548 811.883C328.743 806.335 327.135 799.968 326.911 793.53C326.781 789.74 327.188 785.72 329.131 782.682C329.448 782.186 329.889 781.679 330.418 781.732C331.242 781.816 331.493 783.072 331.495 784.037C331.506 788.121 330.985 792.192 331.072 796.276C331.158 800.357 331.929 804.603 334.176 807.735C333.024 806.669 332.472 804.933 332.521 803.228C332.567 801.569 334.599 801.332 334.933 802.946L336.688 811.46C337.06 813.267 337.756 815.433 339.335 815.668C340.611 811.708 340.78 807.274 339.807 803.199C339.667 802.616 339.51 801.979 339.725 801.429C340.031 800.654 340.968 800.481 341.626 800.847C342.284 801.212 342.727 801.948 343.139 802.652C344.238 798.351 344.71 793.831 344.528 789.346C344.346 784.859 343.518 780.359 344.076 775.914C345.636 776.523 346.639 778.277 347.359 780.002C351.549 790.024 350.029 802.074 346.684 812.518C351.95 809.376 355.727 803.046 356.427 796.185C356.549 794.989 356.983 793.375 358.002 793.552C358.609 793.658 358.959 794.411 359.119 795.102C359.761 797.861 358.886 800.798 357.701 803.301C356.513 805.803 354.996 808.12 354.189 810.82C361.283 803.79 365.41 792.856 365.071 781.998C365.029 780.662 365.107 778.968 366.175 778.487C366.87 778.175 367.685 778.618 368.135 779.313C368.585 780.009 368.749 780.895 368.864 781.756C369.777 788.562 368.459 795.662 365.607 801.693C362.756 807.724 358.427 812.713 353.469 816.443C352.588 817.107 351.635 817.794 351.19 818.906C352.774 820.057 355.301 817.109 356.465 818.815C357.167 819.845 356.336 821.331 355.456 822.155C351.482 825.873 345.576 826.498 341.178 823.147" fill="#602A02"/>
<path d="M367.466 788.965C368.423 785.371 369.511 781.823 370.727 778.334C370.794 778.146 370.893 777.927 371.068 777.916C371.146 777.911 371.221 777.954 371.29 778C371.983 778.465 372.393 779.38 372.511 780.306C372.628 781.231 372.486 782.173 372.3 783.083C372.025 784.416 371.651 785.723 371.181 786.981C370.871 787.809 370.506 788.639 369.914 789.224C369.254 789.875 368.388 790.148 367.464 788.965" fill="#602A02"/>
<path d="M347.857 787.249C348.467 784.35 348.759 781.36 348.73 778.376C348.724 777.805 348.708 777.218 348.87 776.678C349.032 776.137 349.415 775.646 349.902 775.588C350.259 775.546 350.609 775.743 350.89 776.005C351.692 776.746 352.053 777.998 352.049 779.191C352.045 780.385 351.719 781.546 351.36 782.664C350.746 784.578 349.984 786.5 347.857 787.249Z" fill="#602A02"/>
<path d="M350.279 780.332C351.236 779.887 351.929 778.91 352.512 777.918C353.092 776.926 353.62 775.861 354.408 775.088C354.621 774.879 354.893 774.682 355.162 774.766C355.317 774.815 355.441 774.948 355.536 775.099C356.028 775.889 355.735 777.001 355.356 777.872C354.847 779.041 354.18 780.162 353.234 780.868C352.288 781.577 351.021 781.8 350.281 780.33" fill="#602A02"/>
<path d="M329.39 800.375C328.112 800.933 326.594 800.654 325.524 799.664C324.543 798.756 323.989 797.372 323.504 796.021C323.028 794.694 322.58 793.326 322.485 791.891C322.427 791.038 322.629 789.973 323.338 789.756C323.759 789.627 324.195 789.866 324.552 790.154C325.267 790.734 325.846 791.545 326.202 792.473C326.594 793.494 326.716 794.626 327.053 795.673C327.605 797.394 328.748 798.847 329.39 800.373" fill="#602A02"/>
<path d="M329.667 789.731C331.005 788.128 331.944 786.075 332.343 783.885C332.492 783.065 332.571 782.21 332.906 781.47C333.24 780.731 333.918 780.117 334.625 780.25C335.19 780.359 335.622 780.906 335.888 781.497C336.3 782.421 336.408 783.523 336.182 784.531C335.846 786.039 334.831 787.209 333.759 788.139C332.689 789.069 331.508 789.853 329.667 789.729" fill="#602A02"/>
<path d="M362.601 802.021C365.488 801.037 367.01 797.394 369.433 795.319C369.797 795.009 370.193 794.728 370.636 794.641C371.079 794.555 371.58 794.699 371.855 795.113C372.165 795.578 372.123 796.238 372.01 796.812C371.321 800.313 368.711 802.78 366.232 804.904C365.667 805.387 365.067 805.885 364.371 805.972C363.219 806.113 362.165 805.041 362.599 802.021" fill="#602A02"/>
<path fill-rule="evenodd" clip-rule="evenodd" d="M1440 947.699V361.745C1431.13 359.171 1418.71 363.536 1407.76 370.705C1393.21 380.233 1381.45 395.749 1381.03 413.13C1380.84 420.953 1382.9 428.533 1384.96 436.132C1386.05 440.131 1387.14 444.135 1387.9 448.182C1390.11 459.92 1388.64 473.935 1378.9 480.845C1374.26 484.129 1368.56 485.225 1362.87 486.319C1356.95 487.459 1351.03 488.596 1346.34 492.206C1338.62 498.146 1337.03 508.142 1335.44 518.151C1334.82 522.029 1334.2 525.909 1333.23 529.555C1326.76 553.788 1299.07 570.117 1274.73 564.062C1272.07 565.466 1269.33 566.851 1266.56 568.25C1249.45 576.895 1231.23 586.101 1225.04 603.792C1223.45 608.315 1222.76 613.191 1222.08 618.036C1220.98 625.853 1219.89 633.588 1215.06 639.628C1209.11 647.059 1199.67 649.367 1190.11 651.703C1181.96 653.696 1173.72 655.71 1167.51 660.944C1159.5 667.695 1156.7 678.034 1153.88 688.449C1151.34 697.834 1148.79 707.281 1142.38 714.217C1139.62 717.645 1137.09 720.174 1134.76 722.015C1128.52 726.951 1123.7 726.949 1119.55 726.107C1118.25 725.843 1116.94 725.522 1115.63 725.2C1111.21 724.118 1106.77 723.029 1102.41 724.057C1097.65 725.178 1093.74 728.642 1089.91 732.043C1085.15 736.263 1080.51 740.388 1074.46 739.828C1071.21 739.525 1068.36 737.84 1065.51 736.155C1064.4 735.498 1063.29 734.842 1062.16 734.266C1055.34 730.809 1047.93 730.353 1040.44 731.565C1031.01 733.088 1021.45 737.259 1012.77 741.42C1007.33 753.587 999.409 755.392 993.228 753.789C989.653 752.86 986.372 751.145 983.086 749.427C980.691 748.175 978.293 746.921 975.775 745.969C969.802 743.708 962.082 743.639 958.059 748.598C953.712 741.21 949.365 733.821 945.019 726.431C949.755 711.927 952.465 702.694 951.793 693.337C951.124 683.977 946.337 674.321 937.752 670.53C935.938 669.728 933.955 669.168 931.98 668.611C927.769 667.421 923.599 666.243 921.195 662.765C917.216 657.003 920.894 649.809 924.25 643.243C924.797 642.175 925.334 641.123 925.829 640.097C933.268 624.683 929.863 604.726 917.73 592.65C910.64 600.749 897.855 601.259 883.606 601.827C870.263 602.358 855.638 602.941 843.204 609.856C841.644 610.723 840.117 611.691 838.591 612.658C834.554 615.218 830.516 617.777 825.849 618.491C819.415 619.474 811.522 614.475 812.907 608.119C798.704 615.445 785.786 625.259 774.919 636.977C771.259 643.443 765.804 647.051 760.364 650.651C758.258 652.044 756.154 653.436 754.157 654.991C747.001 660.566 741.274 668.616 740.576 677.659C740.083 684.09 742.109 690.302 744.13 696.499C744.803 698.561 745.474 700.621 746.053 702.687C748.37 710.966 748.8 720.938 742.745 727.042C739.598 730.217 735.152 731.867 730.78 733.49C725.139 735.583 719.621 737.632 717.169 742.851C715.857 745.643 715.769 748.83 715.702 751.913C715.514 760.73 715.326 769.547 715.138 778.363C714.951 787.18 714.763 795.997 714.575 804.814C714.49 808.793 714.404 812.775 714.32 816.755C713.68 831.217 708.188 836.88 702.481 838.021C698.73 838.772 694.914 838.303 691.087 837.832C689.094 837.587 687.097 837.341 685.105 837.268C679.29 837.053 672.529 839.071 670.484 844.517C668.71 849.237 671.154 853.774 673.666 858.439C675.229 861.343 676.82 864.297 677.436 867.374C679.268 876.515 671.873 885.294 663.344 889.052C657.417 891.664 650.977 892.589 644.531 893.515C641.698 893.922 638.864 894.328 636.072 894.879C626.925 896.682 617.308 900.757 613.132 909.091C593.047 886.487 566.124 877.859 541.542 882.877C539.06 883.384 536.534 884.013 533.992 884.646C523.83 887.177 513.415 889.771 504.547 884.879C500.949 882.893 498.156 879.914 495.506 876.743C494.903 876.02 494.306 875.287 493.71 874.553C491.932 872.367 490.149 870.175 488.156 868.227C477.349 857.654 459.557 855.056 446.176 862.097C427.6 846.649 409.846 833.921 390.01 835.348C389.059 835.416 388.092 835.514 387.119 835.612C382.553 836.073 377.856 836.548 374.125 834.083C371.968 832.658 370.53 830.473 369.091 828.287C368.538 827.447 367.985 826.606 367.391 825.809C361.58 818.009 350.884 814.208 341.453 816.596C317.004 795.895 306.775 760.741 319.259 734.1C316.94 733.633 314.62 733.166 312.303 732.698C315.054 723.831 305.816 713.712 296.733 715.643C295.851 699.748 291.487 684.055 284.037 669.985C280.572 661.83 273.797 659.934 268.795 661.407C266.12 662.196 263.691 663.584 261.259 664.974C259.144 666.183 257.027 667.393 254.743 668.211C249.833 669.969 243.07 668.968 241.311 664.06C240.893 662.896 240.811 661.637 240.729 660.385C240.627 658.818 240.525 657.26 239.769 655.91C238.205 653.113 234.361 652.365 231.264 653.199C228.899 653.837 226.816 655.162 224.738 656.485C224.094 656.895 223.45 657.304 222.799 657.693C210.373 665.108 193.691 664.676 181.664 656.63C178.375 657.945 174.646 658.493 170.791 659.059C167.812 659.496 164.757 659.944 161.772 660.767C154.926 662.652 148.373 666.807 145.254 673.187C140.021 683.882 145.739 696.459 151.371 706.95C148.481 710.466 145.591 713.981 142.701 717.497C139.811 721.012 136.921 724.527 134.031 728.043C110.156 727.828 99.71 726.993 89.2667 726.158C84.8404 720.876 80.414 715.594 75.9877 710.314C62.6034 697.984 57.9773 683.811 53.352 669.64L53.3509 669.637C52.2809 666.359 51.0978 662.911 48.4726 660.676C45.8452 658.444 41.2903 658.107 39.2743 660.904C38.2562 648.772 37.2361 636.642 36.2159 624.51L35.9801 621.706C34.0211 614.438 32.7393 608.213 31.6006 602.682C29.9707 594.766 28.6339 588.274 26.0241 582.185C23.7622 576.907 20.6009 572.073 17.4572 567.269C11.6421 558.383 5.82482 549.497 0.00751105 540.611L0 540.6V947.699H1440ZM1440 948H0V1377H1440V948Z" fill="#602A02"/>
<path d="M1440 765.08V1001.36C1439.6 1002.24 1439.19 1003.12 1438.79 1004H0V619.165C3.17243 628.375 6.88985 637.302 11.1234 645.841C15.8156 655.311 21.1946 664.461 23.9815 675.01C26.7707 685.557 26.4916 698.151 20.6186 706.565C29.5577 723.783 38.4945 740.999 47.4336 758.217C50.6149 764.343 53.8626 770.68 54.8884 777.84C56.1157 786.404 54.0266 795.295 55.2517 803.862C56.4768 812.426 63.7721 820.949 70.0128 816.871C67.9303 843.888 82.7003 871.467 110.678 877.572C108.6 886.976 109.086 897.694 113.705 905.612C118.324 913.53 127.655 917.508 134.64 912.911C139.523 909.696 142.343 903.319 145.941 898.139C149.538 892.958 155.332 888.579 160.394 891.338C166.958 894.916 166.841 906.989 172.2 912.865C177.328 918.49 185.208 916.486 191.965 914.972C218.45 909.05 246.772 916.742 283.208 935.907C287.078 929.396 295.639 933.314 300.249 939.048C304.859 944.782 309.407 952.438 315.96 952.304C318.84 952.247 321.517 950.598 324.284 949.613C335.467 945.627 348.591 954.224 365.051 968.677C372.654 957.354 380.572 945.714 391.232 939.105C401.891 932.496 416.12 932.253 424.658 942.519C443.279 938.363 461.901 934.208 488.339 929.805C490.728 925.418 493.118 921.031 495.506 916.644C502.323 904.126 509.142 891.608 515.959 879.091C518.407 874.595 520.963 869.965 524.683 867.075C533.531 860.196 547.176 864.392 553.658 854.279C559.174 845.674 555.419 832.644 558.736 822.471C562.211 811.81 572.198 807.219 581.109 803.802C600.746 796.269 621.435 788.659 650.583 796.075C662.477 801.073 673.718 808.413 683.752 817.729C683.313 822.801 682.872 827.872 682.434 832.944C691.847 826.79 702.942 825.069 714.575 828.09C724.09 830.561 733.964 836.199 743.569 845.178C754.321 855.503 762.05 870.497 765.063 886.864C773.156 887.884 781.249 888.904 789.342 889.923C786.333 896.661 783.327 903.401 780.32 910.141C791.03 902.387 807.047 912.663 808.013 927.913C808.403 934.077 806.757 940.482 808.316 946.363C809.874 952.244 817.379 955.811 825.964 950.797C843.559 953 861.758 946.775 875.905 933.715C872.886 939.539 877.762 947.465 883.274 948.765C888.786 950.066 894.313 947.293 899.765 945.657C913.811 941.442 929.283 945.063 946.607 948.122C956.437 945.368 966.512 942.486 974.9 935.599C983.285 928.711 989.739 916.835 988.615 904.505C988.119 899.049 986.203 893.882 985.864 888.407C985.213 877.905 990.594 867.947 997.577 861.859C1004.56 855.77 1012.98 852.828 1021.23 849.99C1008.43 828.009 1017.03 792.345 1041.9 773.616C1041.41 761.715 1040.92 749.814 1040.44 737.912C1040.28 734.155 1040.13 730.4 1039.98 726.643C1049.23 719.96 1059.96 716.421 1070.68 716.517C1074.94 701.482 1091.66 697.804 1103.8 703.317C1115.11 708.454 1124.26 718.859 1134.76 726.155C1135.53 726.687 1136.3 727.202 1137.08 727.698C1169.21 748.085 1210.91 732.669 1248.03 763.888C1265.28 740.478 1289.01 724.435 1314.33 719.077C1315.41 736.077 1331.38 748.944 1340.44 746.258C1338.91 763.394 1337.38 780.534 1335.85 797.67C1335.44 802.289 1335.44 807.987 1338.7 810.33C1343.95 814.098 1350.68 804.517 1356.15 807.78C1362.16 811.363 1357.71 822.61 1358.8 830.716C1360.09 840.363 1370.98 844.45 1377.74 839.318C1384.51 834.187 1387.06 823.256 1386.16 813.539C1385.5 806.381 1383.32 799.541 1382.64 792.389C1381.96 785.234 1383.17 777.109 1387.85 772.785C1390.96 769.908 1395.02 769.229 1398.89 768.646C1412.79 766.544 1426.69 764.439 1440 765.08Z" fill="#4A2002"/>
<path d="M1305.97 736.2C1301.91 728.108 1297.79 719.92 1292.19 713.357C1286.6 706.794 1279.27 701.933 1271.55 701.995C1268.11 702.023 1264.47 702.971 1261.36 701.169C1258.25 699.37 1256.41 694.762 1257.14 690.634C1257.43 688.995 1258.33 687.253 1259.69 687.174C1261.06 687.097 1262.04 688.671 1262.94 689.944C1265.45 693.502 1269.15 695.735 1273.37 696.305C1267.53 690.732 1262.44 683.122 1261.51 674.103C1261.31 672.115 1261.32 670.01 1262.05 668.221C1262.3 667.63 1262.67 667.035 1263.2 666.932C1264.05 666.765 1264.67 667.883 1265.02 668.851C1266.34 672.494 1267.22 676.352 1268.48 680.03C1269.73 683.708 1271.42 687.283 1274.18 690.68C1274.2 685.701 1276.15 680.984 1276.31 676.008C1276.46 671.561 1275.18 667.24 1273.73 663.164C1272.89 660.8 1271.97 658.198 1272.58 655.731C1272.67 655.371 1272.8 655.003 1273.06 654.801C1273.57 654.403 1274.23 654.848 1274.68 655.33C1278.26 659.095 1279.27 665.402 1279.21 671.193C1279.16 676.984 1278.29 682.814 1278.84 687.793C1280.78 691.25 1282.75 694.759 1285.4 697.393C1287.73 699.708 1290.55 701.275 1293.5 701.9C1292.08 701.496 1290.98 700.133 1290.06 698.732C1286.85 693.799 1284.96 687.577 1284.76 681.257C1284.74 680.513 1284.74 679.73 1285.03 679.07C1285.31 678.41 1285.96 677.933 1286.53 678.187C1286.9 678.351 1287.15 678.765 1287.37 679.163C1291.26 686.217 1293.06 694.999 1298.11 700.924C1296.74 692.91 1299.58 684.812 1302.36 677.369C1300.54 676.717 1299.26 674.738 1298.12 672.87C1294.21 666.479 1290.08 659.188 1290.89 651.246C1290.98 650.286 1291.46 649.07 1292.23 649.288C1292.52 649.37 1292.74 649.651 1292.92 649.94C1293.95 651.603 1294.13 653.803 1294.55 655.832C1295.37 659.854 1297.26 663.537 1299.47 666.918C1301.4 662.065 1302.47 656.699 1302.59 651.298C1302.6 650.919 1302.62 650.48 1302.87 650.259C1303.34 649.842 1303.91 650.616 1304.13 651.281C1306 657.042 1305.66 663.485 1305.31 670.392C1304.86 671.144 1304.41 671.899 1303.97 672.652C1304.84 673.454 1305.67 674.329 1306.34 676.327C1306.48 673.702 1307.92 671.46 1309.51 669.691C1311.09 667.921 1312.89 666.405 1314.16 664.287C1315.93 661.334 1316.46 657.52 1316.51 653.85C1316.57 650.182 1316.2 646.51 1316.4 642.848C1317.61 643.729 1318.6 645.086 1319.22 646.695C1320.33 652.429 1321.38 658.801 1319.04 663.943C1317.79 666.673 1315.74 668.674 1314.01 670.959C1312.27 673.244 1310.75 676.161 1310.52 679.763C1310.69 680.785 1310.86 681.805 1311.03 682.828C1310.44 679.324 1313.18 676.417 1315.69 674.599C1318.19 672.783 1321.12 670.542 1321.27 666.967C1323.02 669.05 1323 672.633 1321.97 675.349C1320.93 678.064 1319.1 680.164 1317.45 682.361C1314.98 685.62 1312.83 689.227 1311.04 693.088C1309.29 696.85 1307.87 700.916 1307.42 705.215C1306.96 709.515 1307.55 714.079 1309.51 717.76C1312.82 710.175 1316.89 703.094 1321.6 696.733C1322.09 696.068 1322.61 695.364 1322.75 694.484C1322.85 693.873 1322.76 693.246 1322.66 692.635C1322.2 689.799 1321.61 686.95 1321.72 684.06C1321.82 681.17 1322.74 678.157 1324.69 676.543C1324.32 679.687 1324.59 682.939 1325.6 687.798C1327.09 681.821 1330.66 677.047 1333.8 672.137C1336.94 667.226 1339.86 661.503 1339.64 655.259C1339.61 654.31 1339.5 653.342 1339.71 652.429C1339.92 651.516 1340.55 650.66 1341.32 650.695C1342.32 650.741 1342.87 652.105 1343.12 653.288C1344.56 660.23 1342.61 667.627 1339.59 673.756C1336.57 679.886 1332.54 685.145 1329.51 692.092C1330.95 688.761 1333.93 686.89 1336.87 685.849C1339.82 684.807 1342.92 684.379 1345.74 682.898C1351.1 680.082 1354.93 673.312 1355.22 666.146C1355.31 663.853 1355.07 661.538 1355.34 659.265C1355.61 656.993 1356.53 654.648 1358.23 653.705C1359.61 658.986 1359.99 664.655 1359.28 670.776C1360.76 670.258 1362.05 668.93 1362.72 667.218C1363.06 666.356 1363.45 665.222 1364.23 665.266C1364.49 665.279 1364.72 665.437 1364.93 665.626C1366.34 666.932 1366.31 669.71 1365.32 671.501C1364.32 673.293 1362.65 674.31 1361.02 675.147C1359.4 675.984 1357.69 676.761 1356.42 678.277C1355.39 679.523 1354.73 681.172 1353.8 682.533C1350.7 687.029 1345.33 687.517 1340.83 689.535C1334.9 692.193 1330.2 697.78 1325.69 703.217C1322.14 707.492 1318.37 712.345 1318.24 719.132C1323.22 714.48 1329.77 713.526 1335.95 712.313C1342.12 711.099 1348.72 709.136 1352.76 703.263C1355 700.01 1356.32 695.713 1359.17 693.298C1360.93 694.685 1361.14 697.815 1360.53 700.275C1359.69 703.688 1357.69 706.532 1355.36 708.662C1353.04 710.791 1350.37 712.285 1346.47 714.764C1348.25 715.184 1350.06 715.426 1351.88 715.486C1352.44 715.505 1353.01 715.505 1353.54 715.287C1354.27 714.987 1354.85 714.308 1355.39 713.651C1356.25 712.632 1357.11 711.598 1357.73 710.349C1358.05 709.714 1358.4 708.945 1359.01 708.872C1359.61 708.798 1360.11 709.537 1360.17 710.276C1360.24 711.015 1359.99 711.735 1359.74 712.416C1359.32 713.572 1358.91 714.728 1358.49 715.884C1358.09 717.01 1357.63 718.21 1356.76 718.815C1355.43 719.742 1353.79 718.908 1352.27 718.663C1351.1 718.475 1349.92 718.655 1348.74 718.625C1345.99 718.554 1343.26 717.28 1341.34 714.949C1331.65 716.034 1323.01 722.564 1314.78 728.923C1313.15 730.18 1311.47 731.497 1310.42 733.479C1309.5 735.21 1308.8 737.651 1305.97 736.192V736.2Z" fill="#4A2002"/>
<path d="M276.529 937.589C270.567 938.069 264.592 933.109 262.722 926.127C261.77 922.568 261.801 918.68 260.733 915.174C260.658 914.929 260.569 914.67 260.39 914.528C260.124 914.312 259.769 914.432 259.468 914.569C257.164 915.613 254.986 917.273 252.54 917.53C250.095 917.783 247.221 915.866 247.212 912.845C247.21 911.989 247.671 910.948 248.358 911.087C248.573 911.13 248.761 911.289 248.943 911.441C250.205 912.513 251.466 913.587 253.746 914.517C253.243 913.252 252.93 911.872 252.828 910.471C252.795 910.023 252.806 909.505 253.081 909.208C253.511 908.745 254.206 909.205 254.499 909.808C254.794 910.411 254.906 911.158 255.312 911.654C256.273 912.835 257.88 911.763 258.921 910.689C257.895 909.511 257.137 907.987 256.754 906.326C256.537 905.386 256.428 904.38 255.996 903.559C255.662 902.924 255.157 902.452 254.63 902.067C250.454 899.03 244.432 900.69 241.036 896.426C239.753 894.815 239.082 892.497 239.248 890.253C239.266 890.013 239.299 889.757 239.432 889.58C239.795 889.097 240.427 889.596 240.788 890.084C241.893 891.578 243.001 893.072 244.543 894.597C244.124 893.582 243.694 892.508 243.75 891.374C243.803 890.239 244.541 889.07 245.462 889.154C246.94 889.288 247.153 891.949 248.298 893.105C248.754 893.566 249.348 893.762 249.92 893.945C251.453 894.436 252.986 894.929 254.521 895.42C252.456 892.993 251.878 889.263 250.447 886.223C249.058 883.273 246.803 880.956 244.195 879.8C242.458 879.031 240.196 878.952 239.098 880.776C238.513 881.746 238.358 883.12 237.562 883.827C236.842 884.465 235.861 884.323 234.984 884.154C233.885 883.941 232.471 883.249 232.618 881.891C232.728 880.868 233.681 880.388 234.797 879.999C232.921 880.148 230.954 880.279 229.239 879.325C228.173 878.733 227.212 877.632 227.006 876.214C226.798 874.796 227.604 873.152 228.772 873.07C229.549 873.016 230.245 873.605 230.976 873.937C232.174 874.485 233.495 874.346 234.773 874.417C236.049 874.488 237.438 874.864 239.033 876.421C237.434 873.324 234.563 871.672 232.203 869.425C229.846 867.178 227.815 863.405 228.947 860.01C231.047 861.681 232.713 864.165 233.65 867.02C233.253 866.129 232.848 865.199 232.79 864.184C232.733 863.17 233.129 862.041 233.909 861.698C234.944 861.243 236.027 862.369 236.463 863.609C236.902 864.85 236.977 866.262 237.498 867.454C239.244 871.445 244.667 870.715 246.625 874.556C245.97 873.689 245.285 872.759 245.108 871.595C244.931 870.431 245.509 869.013 246.468 868.94C247.773 868.841 248.318 870.9 248.617 872.465C249.891 879.115 254.098 884.347 255.943 890.79C257.66 896.786 257.481 904.088 260.536 908.088C259.614 905.377 260.053 902.046 261.624 899.834C262.496 902.056 262.849 904.584 262.634 907.038C262.335 904.832 263.715 902.493 265.512 902.16C266.559 903.823 265.919 906.195 265.503 908.238C264.541 912.957 265.102 918.119 267.036 922.361C268.97 926.604 272.257 929.884 276.032 931.332C274.962 930.991 275.038 929.101 275.357 927.801C276.05 924.97 276.744 922.14 277.836 919.654C276.015 918.787 274.154 917.887 272.689 916.297C271.225 914.708 270.217 912.259 270.627 909.912C271.992 910.989 273.283 912.207 274.479 913.552C274.145 912.36 273.265 911.526 272.791 910.408C272.317 909.29 272.572 907.474 273.595 907.373C274.477 907.286 275.007 908.507 275.383 909.494C276.347 912.019 277.845 914.233 279.686 915.858C278.644 912.704 279.943 908.728 278.412 905.893C277.84 904.835 276.95 904.11 276.238 903.188C274.202 900.56 273.808 896.669 273.343 893.081C272.878 889.495 272.047 885.569 269.572 883.589C268.755 882.935 267.811 882.548 266.987 881.904C265.206 880.511 264.116 877.877 264.249 875.287C264.275 874.758 264.402 874.15 264.796 873.943C265.514 873.567 266.03 874.785 266.358 875.655C267.018 877.403 268.5 878.635 270.733 879.355C266.327 874.578 264.998 866.709 265.376 859.498C265.427 858.519 265.5 857.504 265.219 856.586C264.874 855.468 264.063 854.688 263.473 853.739C262.671 852.447 262.279 850.781 262.397 849.161C262.474 848.087 263.055 846.805 263.919 846.991C264.501 847.113 264.838 847.847 265.095 848.501C266.127 851.127 267.16 853.755 268.715 857.046C268.979 854.909 269.736 852.869 270.877 851.225C271.925 852.163 272.195 853.987 271.969 855.56C271.743 857.131 271.121 858.568 270.704 860.078C269.426 864.719 270.241 870.145 273.316 875.26C272.397 872.926 271.506 870.248 272.235 867.816C272.452 867.091 272.858 866.388 273.46 866.172C274.362 865.853 275.29 866.813 275.574 867.914C275.857 869.016 275.689 870.205 275.589 871.355C275.25 875.279 275.753 879.232 276.256 883.131C276.475 884.846 276.697 886.559 276.478 889.441C277.904 887.197 278.873 884.516 279.271 881.711C279.568 879.62 279.679 877.182 281.07 875.928C281.546 877.403 281.885 878.943 282.08 880.514C282.712 877.059 283.817 873.736 285.335 870.728C285.552 870.3 285.796 869.856 286.17 869.649C287.032 869.174 287.951 870.216 288.361 871.263C289.28 873.607 289.163 876.446 288.321 878.834C287.479 881.223 285.971 883.189 284.245 884.694C283.337 885.487 282.353 886.177 281.58 887.164C279.302 890.079 279.449 894.777 280.468 898.621C280.16 897.462 281.227 896.249 282.202 896.459C283.177 896.669 283.844 897.904 283.904 899.12C283.963 900.336 283.54 901.511 283.022 902.547C282.504 903.583 281.877 904.546 281.693 906.692C283.057 907.313 284.132 908.827 284.449 910.577C285.211 914.773 281.879 918.506 281.637 922.795C281.71 921.772 283.106 921.699 283.505 922.601C283.906 923.504 283.525 924.651 282.955 925.401C282.386 926.151 281.64 926.683 281.101 927.468C280.093 928.938 279.976 931.062 280.248 932.957C282.419 928.311 285.248 924.131 288.569 920.665C289.985 919.187 291.62 917.538 291.702 915.258C291.773 913.282 290.63 911.599 289.985 909.786C289.347 907.995 289.19 905.953 289.54 904.047C289.606 903.681 289.721 903.275 290 903.123C290.308 902.951 290.663 903.174 290.942 903.409C291.992 904.29 292.878 905.462 294.876 907.463C293.049 904.142 292.774 899.616 294.183 896.001C294.701 894.667 295.455 893.263 295.14 891.835C294.646 889.591 291.762 888.631 291.996 886.321C292.171 884.596 294.615 884.32 295.04 885.978C294.458 885.16 293.849 884.279 293.709 883.205C293.569 882.131 294.119 880.844 295.003 880.789C295.997 880.729 296.596 882.087 296.948 883.235C297.646 885.512 298.344 887.791 299.041 890.068C299.052 884.754 299.061 879.44 299.072 874.128C299.072 873.231 299.072 872.304 298.78 871.483C298.443 870.532 297.765 869.842 297.203 869.073C295.253 866.407 294.619 862.385 295.621 859.015C296.864 860.945 298.109 862.876 299.352 864.806C298.45 862.813 298.846 860.067 300.253 858.581C300.911 857.886 301.733 857.466 302.409 856.796C304.618 854.609 304.664 850.593 304.855 847.111C304.879 846.645 304.917 846.162 305.112 845.764C305.614 844.741 306.955 844.848 307.635 845.698C308.315 846.549 308.481 847.831 308.517 849.025C308.681 854.582 306.766 859.86 305.191 865.071C303.616 870.281 302.345 876.056 303.785 881.326C302.949 878.709 303.734 875.451 305.59 873.812C307.032 874.704 307.579 876.999 307.298 878.957C307.017 880.912 306.097 882.624 305.244 884.309C300.566 893.555 297.278 903.861 295.599 914.555C296.666 914.209 296.886 912.333 297.858 911.689C298.855 911.03 300.171 912.169 300.313 913.552C300.455 914.931 299.721 916.256 298.795 917.055C297.869 917.854 296.762 918.252 295.712 918.768C291.361 920.905 287.778 925.306 285.747 931.353C287.408 928.12 290.47 926.407 293.474 925.42C296.478 924.431 299.622 923.97 302.457 922.399C305.291 920.826 307.87 917.778 308.111 913.963C308.193 912.685 308.007 911.392 308.133 910.119C308.257 908.846 308.807 907.499 309.799 907.117C311.43 906.487 312.857 908.807 313.063 910.896C313.269 912.982 312.876 915.218 313.594 917.123C314.828 913.121 315.694 908.949 316.175 904.712C316.459 902.204 316.581 899.507 315.597 897.282C315.169 896.314 314.531 895.417 314.476 894.321C314.365 892.137 316.461 890.935 318.176 890.349C318.927 892.219 319.675 894.089 320.426 895.96C322.267 891.747 324.106 887.535 325.947 883.319C326.616 881.787 327.121 879.475 325.876 878.654C325.26 878.245 324.472 878.472 323.838 878.106C322.527 877.354 322.824 874.963 323.439 873.351C324.089 874.085 324.735 874.818 325.385 875.549C323.061 872.871 321.866 868.784 322.272 864.899C322.365 864.005 322.843 862.878 323.548 863.124C323.885 863.241 324.093 863.647 324.259 864.029C325.223 866.238 325.865 868.656 326.151 871.137C327.892 866.109 324.696 860.438 325.236 855.012C325.351 853.848 326.005 852.433 326.926 852.722C327.618 852.94 327.868 853.968 327.994 854.832C328.805 860.375 329.432 865.959 329.403 873.267C330.327 871.034 331.251 868.801 332.175 866.567C333.107 868.781 332.58 871.519 331.654 873.736C330.728 875.952 329.425 877.943 328.728 880.282C327.686 883.772 328.094 887.657 327.48 891.297C326.754 895.605 324.647 899.335 322.591 902.934C324.066 901.582 325.568 900.268 327.09 898.997C327.828 902.673 325.859 906.324 323.683 908.998C321.508 911.673 318.92 914.13 317.897 917.696C317.626 918.639 317.469 919.651 317.039 920.502C315.858 922.825 313.242 923.037 311.024 923.266C310.291 923.343 309.31 923.872 309.531 924.736C310.143 925.363 311.009 925.598 311.778 925.341L312.542 926.805C313.685 925.349 314.979 923.804 316.618 923.64C318.258 923.476 320.017 925.66 319.208 927.424C318.65 928.643 317.327 928.867 316.193 928.951C314.088 929.109 311.973 929.265 309.875 928.987C308.24 928.771 306.633 928.291 304.996 928.117C296.593 927.231 289.212 934.268 281.544 938.592C280.802 939.01 279.73 939.288 276.542 937.603L276.529 937.589Z" fill="#4A2002"/>
<path d="M851.512 912.388C850.019 910.803 848.528 909.219 847.035 907.635C846.893 907.485 846.747 907.33 846.576 907.237C845.725 906.779 844.928 907.93 844.376 908.851C841.574 913.533 836.133 915.509 831.713 913.454C830.911 911.06 831.819 908.295 833.102 906.242C834.385 904.189 836.049 902.485 837.085 900.232C831.476 901.206 825.986 903.226 820.864 906.204C819.947 906.735 819.017 907.308 818.006 907.42C816.996 907.529 815.873 907.063 815.392 905.964C814.912 904.865 815.437 903.191 816.445 903.082C815.076 901.956 813.31 901.961 811.73 901.383C810.151 900.805 808.538 899.036 808.972 897.081C809.398 895.158 811.374 894.629 812.986 894.463C818.585 893.891 824.194 893.49 831.204 893.768C830.918 891.783 830.632 889.801 830.346 887.816C828.605 888.519 827.595 891.445 825.769 891.251C823.919 891.052 823.463 887.794 824.256 885.727C825.051 883.66 826.542 881.962 826.848 879.707C827.364 875.898 824.36 872.88 821.651 870.927C818.944 868.975 815.798 866.437 815.789 862.573C815.789 861.949 815.935 861.224 816.403 860.975C816.726 860.804 817.098 860.924 817.435 861.06C820.816 862.429 823.782 865.289 825.672 869C824.509 862.688 824.243 856.125 824.892 849.701C825.397 844.687 827.074 838.937 831.035 837.612C831.529 844.611 831.91 851.618 832.181 858.636C831.828 855.708 833.461 852.616 835.778 851.825C836.6 855.097 835.989 858.614 835.765 862.028C835.103 872.103 838.065 882.458 843.707 889.801C841.432 885.084 843.789 878.046 848.102 876.672C848.47 881.929 848.836 887.189 849.204 892.445C849.299 893.801 849.416 895.237 850.087 896.317C850.759 897.397 852.192 897.877 852.974 896.917C853.975 895.69 853.134 893.664 852.606 892.05C851.92 889.945 851.889 887.527 852.522 885.397C852.93 884.026 853.599 882.78 853.929 881.378C854.782 877.757 853.255 874.003 852.416 871.803C850.331 864.836 848.233 857.834 845.265 851.37C843.94 848.485 842.44 845.701 841.461 842.618C840.459 839.471 840.025 836.055 840.194 832.682C840.245 831.673 840.493 830.449 841.288 830.19C842.154 829.912 842.874 831.008 843.293 831.981C844.994 835.954 846.009 840.305 847.013 844.624C846.394 841.519 845.814 838.056 847.097 835.275C847.487 834.432 848.293 833.631 848.993 834.075C849.261 834.247 849.443 834.569 849.587 834.893C850.845 837.748 849.941 841.241 849.919 844.488C849.886 848.97 851.583 853.164 853.24 857.158C852.174 854.614 852.064 851.495 852.945 848.848C853.24 847.962 854.066 847.005 854.669 847.607C854.853 847.792 854.946 848.079 855.03 848.351C855.54 849.996 856.049 851.637 856.561 853.281C856.984 850.331 857.409 847.384 857.832 844.433C857.99 843.346 858.145 842.236 858.019 841.142C857.633 837.846 854.751 835.152 855.371 831.91C855.504 831.212 855.887 830.49 856.468 830.405C857.23 830.293 857.766 831.275 858.107 832.123C858.812 833.863 859.514 835.602 861.109 837.988C861.127 834.015 861.545 830.045 862.906 826.089C864.27 825.476 865.792 826.88 866.249 828.576C866.705 830.274 866.399 832.123 866.091 833.871C865.334 838.16 864.576 842.446 863.818 846.735C862.844 852.253 861.869 858.023 863.043 863.481C863.81 867.053 865.447 870.232 867.062 873.346C864.496 868.986 868.96 862.568 867.13 857.679C866.415 855.768 864.802 854.385 864.512 852.31C864.262 850.535 865.351 848.54 866.816 848.469C868.278 848.398 869.503 850.699 869.607 853.374C869.667 848.439 869.352 843.498 868.593 838.206C868.812 835.627 869.457 833.102 870.963 831.15C871.528 834.599 872.095 838.048 872.66 841.497C872.645 839.566 872.636 837.576 873.221 835.785C873.805 833.993 875.137 832.428 876.705 832.404C875.547 850.26 873.963 868.073 871.956 885.812C872.37 885.024 873.072 884.476 873.828 884.35C873.821 888.29 873.814 892.23 873.808 896.17C876.696 880.361 878.054 864.13 877.848 847.929C877.817 845.489 877.786 842.885 878.848 840.823C879.167 840.205 879.665 839.607 880.259 839.648C881.183 839.714 881.553 841.123 881.688 842.252C882.047 845.276 882.405 848.3 882.764 851.323C882.047 842.427 883.026 833.328 886.101 823.695C887.053 822.624 888.219 821.841 889.468 821.435C890.345 825.653 890.252 830.168 889.205 834.326C888.23 838.195 886.433 842.244 887.895 847.427C890.113 841.92 892.924 835.807 897.796 834.443C899.194 837.257 897.399 840.744 895.813 843.405C887.707 856.995 883.356 873.918 883.473 890.556C883.965 892.391 884.457 894.229 884.947 896.064C884.574 894.092 885.529 892.113 886.628 890.605C887.725 889.097 889.043 887.731 889.652 885.853C890.532 883.14 889.727 880.105 889.366 877.218C888.948 873.88 889.145 870.431 889.936 867.197C890.168 866.246 890.551 865.193 891.325 864.915C892.579 864.46 893.531 866.311 893.89 867.857C894.637 871.066 894.951 874.426 894.818 877.76C895.886 874.107 897.754 870.81 900.171 868.31C900.505 867.964 900.871 867.62 901.301 867.53C902.085 867.364 902.849 868.119 903.141 869.03C903.434 869.94 903.356 870.966 903.237 871.933C901.91 882.521 895.642 892.099 897.552 902.506C897.257 895.843 900.235 889.735 902.656 883.764C905.076 877.793 907.014 870.638 904.686 864.613C904.116 863.138 903.301 861.78 903.013 860.185C902.725 858.592 903.192 856.602 904.451 856.087C905.561 855.631 906.795 856.558 907.366 857.815C907.938 859.072 908.009 860.569 908.066 862.009C907.386 854.879 910.689 847.43 915.931 844.278C915.612 852.196 914.48 860.065 912.566 867.634C913.6 861.281 916 854.857 920.472 851.438C921.345 852.719 920.858 854.65 920.333 856.19C918.315 862.107 916.296 868.024 914.276 873.94C915.209 873.01 915.709 871.59 916.454 870.431C917.198 869.272 918.454 868.321 919.56 868.896C920.736 869.507 920.997 871.546 920.457 872.972C919.916 874.398 918.84 875.377 917.867 876.397C912.931 881.566 909.883 889.043 908.239 896.759C906.595 904.475 906.245 912.505 905.499 921.522C908.897 914.844 911.487 907.542 913.153 899.935C913.494 898.381 914.008 896.541 915.282 896.173C915.703 900.467 915.714 904.821 915.313 909.118C915.503 901.732 918.148 894.488 922.506 889.408C922.947 890.643 923.388 891.878 923.829 893.111C923.06 888.189 925.103 882.799 928.658 880.359C929.416 882.548 929.7 884.986 929.434 887.6C930.973 881.695 932.79 875.325 937.021 871.955C937.449 871.614 937.925 871.301 938.435 871.32C939.33 871.355 940.003 872.446 940.116 873.539C940.227 874.633 939.919 875.715 939.613 876.751C938.754 879.677 937.894 882.605 937.035 885.531C937.626 883.434 938.413 881.376 939.647 879.759C940.881 878.142 942.617 877.005 944.419 877.079C944.762 879.036 945.057 881.187 944.288 882.954C943.776 884.129 942.868 884.95 942.002 885.749C935.258 891.987 929.352 899.592 924.593 908.167C925.756 905.683 927.597 903.69 929.748 902.588C930.459 902.226 931.277 901.958 931.986 902.332C932.695 902.703 933.096 903.971 932.048 905.626C941.423 898.967 944.37 882.36 954.388 877.318C954.844 877.089 955.365 876.888 955.821 877.119C956.107 877.264 956.322 877.564 956.484 877.886C957.66 880.225 956.253 883.181 954.895 885.365C951.557 890.736 948.218 896.11 944.879 901.481C947.928 898.089 951.463 895.363 955.274 893.462C955.927 893.135 956.621 892.83 957.323 892.933C958.969 893.176 959.871 895.712 959.383 897.661C958.896 899.611 957.465 900.974 955.994 901.912C953.132 903.736 949.893 904.431 946.84 905.707C942.56 907.496 938.661 910.416 934.804 913.315C932.712 914.885 930.457 916.709 929.469 921.05C933.924 918.719 939.308 920.829 943.73 918.408C945.719 917.317 947.323 915.406 948.878 913.53C950.411 911.684 951.944 909.838 953.477 907.992C954.638 910.051 954.578 913.036 953.036 915.989C956.472 913.546 959.909 911.103 963.345 908.66C963.763 908.363 964.2 908.058 964.68 908.009C966.116 907.859 967.051 910.154 966.586 911.834C966.12 913.514 964.818 914.593 963.573 915.482C950.967 924.488 936 926.716 921.485 928.354C933.488 929.186 945.595 927.686 957.221 923.935C953.176 930.688 946.164 933.442 939.622 935.806C944.74 936.548 949.833 937.54 954.886 938.778C957.122 939.326 959.924 940.828 959.674 943.618C959.629 944.119 959.448 944.643 959.082 944.877C958.814 945.049 958.497 945.035 958.198 945.014C942.832 944.007 927.599 937.417 912.364 940.065C909.688 940.528 906.948 941.333 904.821 943.383C903.5 944.654 902.492 946.333 901.402 947.901C896.287 955.26 889.074 960.364 881.335 962.106C877.397 962.993 872.503 962.477 870.593 958.145C870.172 957.19 869.926 956.097 869.33 955.298C868.325 953.954 866.656 953.842 865.172 953.867C861.235 953.932 857.177 954.273 853.481 952.607C849.784 950.941 846.532 946.57 847.001 941.761C847.203 939.697 848.045 937.537 847.338 935.651C846.74 934.05 845.231 933.306 843.825 932.984C841.197 932.384 838.483 932.739 835.829 932.327C833.177 931.915 830.375 930.478 829.207 927.52C828.04 924.562 829.6 920.131 832.274 920.202C833.596 920.237 834.735 921.276 835.922 921.99C841.272 925.213 848.632 920.736 851.512 912.385V912.388Z" fill="#4A2002"/>
<path d="M151.514 914.659C149.731 903.878 154.753 893.143 154.917 882.142C155.017 875.434 153.304 868.662 154.41 862.093C154.895 859.217 155.914 856.449 155.958 853.513C156.04 848.087 152.793 842.887 153.841 837.617C154.173 835.94 154.939 834.299 154.698 832.597C154.343 830.1 152.031 828.761 151.189 826.446C149.762 822.517 153.063 818.468 153.517 814.201C153.931 810.31 151.918 806.608 151.849 802.687C151.725 795.685 157.582 790.581 158.632 783.699C158.963 781.529 158.865 779.056 160.077 777.428C161.619 775.356 164.501 775.748 166.194 773.867C167.873 771.999 167.722 768.755 168.542 766.156C170.352 760.414 176.726 758.323 178.327 752.488C178.879 750.479 178.77 748.276 179.227 746.228C180.556 740.243 186.247 736.977 187.674 731.027C190.013 733.255 190.538 737.394 190.106 740.993C189.672 744.592 188.478 748.006 188.077 751.613C187.842 753.726 187.876 755.91 187.315 757.928C185.693 763.776 179.836 766.184 177.337 771.541C175.618 775.228 175.658 779.975 173.538 783.328C171.46 786.614 167.685 787.914 165.939 791.481C163.305 796.86 166.694 803.777 165.91 809.983C165.465 813.509 163.664 816.718 163.708 820.284C163.748 823.455 165.25 826.364 165.414 829.527C165.649 834.091 163.088 838.274 163.041 842.846C162.992 847.512 165.569 851.934 164.937 856.534C164.649 858.633 163.719 860.498 163.017 862.442C161.978 865.316 161.426 868.411 160.879 871.483C160.538 873.4 160.197 875.317 159.858 877.234C157.737 889.16 155.617 901.099 151.519 914.653L151.514 914.659Z" fill="#4A2002"/>
<path d="M148.371 920.657C145.972 908.077 143.557 895.439 139.645 883.445C138.16 878.892 136.445 874.379 135.841 869.531C135.429 866.227 135.539 862.81 134.764 859.604C133.386 853.894 129.292 849.186 129.314 843.231C129.325 840.717 130.047 837.941 128.913 835.85C127.5 833.241 123.822 833.074 123.131 830.056C122.905 829.069 123.08 827.957 122.703 827.041C121.467 824.017 116.711 826.942 115.295 824.039C114.927 823.286 114.939 822.354 114.761 821.503C113.536 815.616 104.945 816.674 103.472 810.875C102.772 808.121 104.041 804.631 102.468 802.491C101.573 801.275 100.049 801.015 99.1406 799.816C97.5323 797.697 98.7419 794.235 100.242 791.999C101.742 789.766 103.62 787.257 103.137 784.419C102.973 783.462 102.546 782.608 102.26 781.695C100.729 776.793 103.441 771.582 105.898 767.291C108.354 762.999 110.758 757.388 108.691 752.793C110.359 752.39 111.917 751.31 114.194 750.762C111.316 756.327 113.368 763.754 112.034 770.143C111.427 773.046 110.127 775.68 109.586 778.603C109.046 781.526 109.535 785.114 111.658 786.589C112.92 787.467 114.533 787.432 115.705 788.487C117.668 790.257 117.36 793.877 117.138 796.863C116.917 799.846 117.581 803.75 119.99 804.181C120.891 804.342 121.89 803.936 122.681 804.495C124.717 805.931 122.26 810.531 123.953 812.533C124.846 813.588 126.281 813.168 127.515 813.045C132.161 812.59 136.426 818.605 135.433 824.208C135.296 824.985 135.076 825.781 135.227 826.552C135.528 828.077 137.006 828.617 138.191 829.192C141.279 830.689 143.657 834.22 144.277 838.23C144.8 841.611 144.146 845.148 144.709 848.52C145.201 851.471 146.585 854.066 147.445 856.888C149.494 863.609 148.46 871.061 147.97 878.215C146.982 892.663 148.371 907.354 148.373 920.652L148.371 920.657Z" fill="#4A2002"/>
<path d="M157.587 921.805C152.164 905.38 149.665 887.505 150.312 869.793C150.591 862.145 151.426 854.263 149.47 846.996C148.712 844.185 147.547 841.513 147.199 838.582C146.526 832.908 148.962 826.727 146.887 821.593C144.981 816.876 139.815 814.757 138.73 809.661C138.227 807.306 138.71 804.631 137.735 802.512C136.696 800.258 134.392 799.45 132.859 797.673C130.198 794.589 130.717 788.408 133.834 786.058C130.892 780.234 130.765 772.425 133.517 766.465C134.864 763.547 136.835 761.055 137.81 757.919C139.062 753.898 138.552 749.186 140.254 745.424C142.513 740.429 148.01 738.561 149.997 733.394C144.16 728.969 135.426 732.295 132.64 740.006C132.205 741.208 131.962 742.798 132.744 743.692C133.229 744.246 133.967 744.338 134.476 744.859C135.666 746.075 134.87 748.406 134.119 750.07C132.172 754.391 131.06 759.28 130.9 764.218C131.35 760.752 131.694 756.791 129.846 754.119C128.896 752.742 127.433 751.853 126.86 750.192C125.608 746.571 129.385 743.18 129.6 739.253C129.733 736.816 128.452 734.37 129.017 732.028C129.846 728.598 133.632 728.252 136.525 728.593C135.945 725.228 139.206 722.657 142.002 722.624C144.798 722.591 147.578 723.941 150.334 723.368C152.122 722.998 154.288 721.972 155.502 723.633C156.171 724.546 156.247 726.021 157.051 726.755C157.871 727.505 159.016 727.12 160.037 727.194C162.066 727.344 163.748 729.571 164.091 732.039C164.435 734.506 163.622 737.061 162.304 738.967C161.533 740.08 160.547 741.124 160.365 742.569C160.23 743.643 160.578 744.709 160.722 745.784C161.331 750.323 158.356 754.274 155.66 757.461C152.064 761.712 148.231 767.651 150.123 773.327C150.564 774.65 151.3 775.833 151.523 777.234C152.179 781.36 148.249 784.656 148.112 788.855C147.959 793.496 152.465 797.269 151.599 801.79C151.324 803.227 150.509 804.514 150.527 805.992C150.538 806.976 150.921 807.886 151.255 808.781C153.236 814.087 153.719 820.216 152.605 825.893C152.348 827.196 152.009 828.535 152.206 829.854C152.447 831.466 153.44 832.728 154.025 834.201C155.753 838.563 153.692 844.022 155.123 848.545C155.684 850.315 156.741 851.792 157.312 853.554C158.187 856.245 157.846 859.269 157.54 862.142C155.522 881.125 155.62 900.445 157.585 921.808L157.587 921.805Z" fill="#4A2002"/>
<path d="M151.814 921.382C151.151 914.648 154.167 908.238 157.425 902.765C160.684 897.293 164.417 891.878 165.558 885.242C166.265 881.133 165.924 876.768 167.058 872.806C168.155 868.967 170.543 865.853 171.666 862.025C173.186 856.837 172.204 851.024 173.21 845.649C175.131 835.389 183.678 828.987 186.934 819.251C187.586 817.301 188.027 815.216 188.979 813.462C190.997 809.746 194.868 808.263 197.36 805.01C199.87 801.733 200.705 796.664 199.434 792.443C198.709 790.039 197.362 787.893 197.065 785.354C196.578 781.196 198.977 777.477 200.989 774.085C203 770.691 204.795 766.143 203.127 762.478C202.254 760.564 200.55 759.261 200.027 757.162C199.101 753.434 202.26 750.332 204.115 747.169C207.291 741.748 206.503 733.402 201.239 728.988C202.75 730.114 204.863 729.986 206.013 731.636C207.484 733.749 206.303 737.037 206.815 739.75C207.404 742.883 210.165 744.797 211.372 748.666C208.51 752.695 208.43 759.296 211.197 763.43C212.376 765.191 214.046 766.658 214.438 768.889C215.074 772.509 212.061 775.408 210.973 778.862C208.592 786.426 215.768 795.11 212.954 802.444C211.618 805.929 208.282 808.017 207.551 811.766C207.006 814.553 208.087 817.495 207.688 820.317C207.035 824.958 202.823 827.455 201.075 831.643C199.418 835.613 200.207 840.466 199.188 844.75C197.028 853.826 187.637 857.791 185.038 866.693C183.651 871.443 183.93 877.877 180.235 880.067C179.209 880.675 178.04 880.798 176.963 881.258C171.965 883.404 170.915 891.317 168.17 896.887C164.583 904.164 157.179 908.579 151.818 921.391L151.814 921.382Z" fill="#4A2002"/>
<rect y="1004" width="1440" height="332" fill="#4A2002"/>
</g>
<defs>
<clipPath id="clip0_2408_250">
<rect width="1440" height="1336" fill="white"/>
</clipPath>
</defs>
</svg>
