<svg width="500" height="966" viewBox="0 0 500 966" fill="none" xmlns="http://www.w3.org/2000/svg">
<path d="M0 447.005H500V966H0V447.005Z" fill="#602A02"/>
<path d="M500 253.883V447.005H0V312.831C2.02077 315.761 4.04154 318.691 6.06154 321.621C7.15308 323.204 8.25077 324.798 9.03615 326.537C10.5754 329.946 10.8392 333.738 12.4931 339.563C12.8746 343.869 13.2562 348.175 13.6369 352.482C14.3369 351.56 15.9185 351.671 16.8308 352.407C17.7423 353.143 18.1531 354.28 18.5246 355.36C20.1308 360.031 21.7369 364.702 26.3846 368.767C27.9215 370.507 29.4585 372.248 30.9954 373.988C34.6215 374.264 38.2485 374.539 46.5385 374.61C48.5454 372.292 50.5523 369.975 52.5592 367.658C50.6038 364.2 48.6185 360.055 50.4354 356.53C51.5185 354.427 53.7938 353.058 56.1708 352.436C58.5485 351.815 61.0531 351.842 63.0777 351.073C67.2538 353.725 73.0462 353.867 77.3608 351.423C78.3169 350.882 79.2246 350.217 80.3 349.942C81.3754 349.667 82.71 349.914 83.2531 350.836C83.7254 351.636 83.4623 352.658 83.7885 353.522C84.3992 355.139 86.7477 355.469 88.4523 354.89C90.1569 354.31 91.5946 353.134 93.3315 352.647C95.0685 352.162 97.4208 352.787 98.6238 355.474C101.211 360.112 102.726 365.284 103.032 370.523C106.186 369.886 109.394 373.221 108.438 376.144C109.243 376.298 110.048 376.452 110.854 376.606C106.519 385.386 110.071 396.973 118.56 403.795C121.835 403.008 125.548 404.261 127.566 406.832C128.309 407.779 128.868 408.908 129.905 409.559C131.476 410.544 133.542 410.104 135.42 409.976C142.308 409.506 148.472 413.7 154.922 418.792C159.568 416.471 165.746 417.327 169.498 420.812C170.423 421.67 171.217 422.671 172.051 423.619C172.971 424.664 173.941 425.646 175.19 426.301C179.039 428.316 183.728 426.476 188.035 425.641C196.571 423.987 205.919 426.83 212.893 434.28C214.343 431.533 217.682 430.19 220.858 429.596C224.034 429.002 227.365 428.915 230.328 427.676C233.289 426.437 235.857 423.544 235.221 420.531C234.663 417.887 231.808 415.522 232.807 412.998C233.517 411.203 235.865 410.538 237.884 410.608C239.903 410.679 241.936 411.233 243.917 410.857C245.898 410.481 247.805 408.614 248.028 403.848C248.057 402.536 248.087 401.224 248.116 399.912C248.247 394.1 248.377 388.289 248.508 382.477C248.531 381.461 248.562 380.41 249.017 379.49C250.528 376.437 255.395 376.676 257.898 374.28C260 372.268 259.851 368.981 259.046 366.253C258.242 363.525 256.916 360.829 257.145 358.004C257.387 355.023 259.375 352.37 261.86 350.533C264.345 348.696 267.306 347.552 269.069 344.596C272.842 340.733 277.328 337.499 282.259 335.085C281.778 337.179 284.519 338.827 286.753 338.503C288.986 338.179 290.805 336.699 292.779 335.657C301.707 330.944 313.889 335.155 318.656 329.986C322.869 333.966 324.052 340.544 321.468 345.624C320.241 348.041 318.253 350.887 319.859 353.095C321.085 354.779 323.635 354.827 325.608 355.654C328.589 356.904 330.252 360.086 330.484 363.171C330.717 366.255 329.776 369.298 328.132 374.078C329.641 376.514 331.15 378.949 332.659 381.384C334.056 379.75 336.737 379.772 338.811 380.518C340.885 381.262 342.725 382.566 344.871 383.095C347.017 383.624 349.766 383.029 351.655 379.018C354.668 377.647 357.988 376.272 361.263 375.77C363.865 375.371 366.437 375.521 368.804 376.661C370.209 377.337 371.509 378.355 373.078 378.494C376.866 378.827 379.078 374.124 382.78 373.296C384.745 372.856 386.756 373.591 388.734 373.972C390.174 374.249 391.847 374.25 394.015 372.623C394.823 372.016 395.701 371.183 396.661 370.053C401.351 365.23 400.098 356.725 405.386 352.495C410.071 348.748 418.068 350.009 421.895 345.469C424.613 342.245 423.922 337.555 425.36 333.658C427.859 326.884 435.995 323.884 442.613 320.564C451.068 322.56 460.679 317.178 462.927 309.191C464.138 304.887 463.758 299.597 467.478 296.881C470.671 294.55 475.498 295.347 478.783 293.137C482.167 290.859 482.677 286.24 481.91 282.372C481.142 278.503 479.424 274.754 479.524 270.819C479.67 265.091 483.754 259.977 488.805 256.836C492.607 254.474 496.918 253.035 500 253.883Z" fill="#602A02"/>
</svg>
